<?xml version="1.0" encoding="UTF-8"?>
<svg width="200px" height="23px" viewBox="0 0 200 23" version="1.1" xmlns="http://www.w3.org/2000/svg" xmlns:xlink="http://www.w3.org/1999/xlink">
    <!-- Generator: Sketch 57 (83077) - https://sketch.com -->
    <title>euromedik-logo</title>
    <desc>Created with Sketch.</desc>
    <g id="Symbols" stroke="none" stroke-width="1" fill="none" fill-rule="evenodd">
        <g id="top-bar" transform="translate(-120.000000, -74.000000)">
            <g id="euromedik-logo">
                <g transform="translate(120.000000, 74.000000)">
                    <path d="M142.364729,21.0821643 L142.364729,1.04208417 L142.364729,21.0821643 Z M142.364729,1.04208417 L149.138277,1.04208417 L149.138277,21.0821643 L142.364729,21.0821643 L142.364729,1.04208417 Z M122.52505,21.0821643 L122.52505,1.04208417 L130.260521,1.04208417 C131.743487,1.04208417 133.106212,1.28256513 134.388778,1.76352705 C135.631263,2.24448898 136.713427,2.9258517 137.635271,3.80761523 C138.557114,4.68937876 139.278557,5.73146293 139.799599,6.93386774 C140.280561,8.13627255 140.601202,9.45891784 140.681363,10.9418838 L140.681363,11.1422846 L140.681363,11.3827655 C140.681363,13.3066132 140.200401,14.9498998 139.318637,16.4328657 C138.436874,17.9158317 137.154309,19.0781563 135.591182,19.8797595 C134.028056,20.6813627 132.264529,21.0821643 130.300601,21.0821643 L130.300601,15.2304609 C130.901804,15.2304609 131.422846,15.0701403 131.943888,14.749499 C132.46493,14.4288577 132.905812,13.987976 133.226453,13.3466934 C133.547094,12.745491 133.707415,11.9839679 133.707415,11.1422846 C133.707415,9.65931864 133.306613,8.57715431 132.54509,7.89579158 C131.743487,7.21442886 130.701403,6.85370741 129.378758,6.85370741 L129.378758,21.0420842 L122.52505,21.0420842 L122.52505,21.0821643 Z M119.679359,21.0821643 L115.791583,21.0821643 C113.587174,21.0821643 111.743487,20.6012024 110.140281,19.6793587 C108.577154,18.7975952 107.41483,17.5551102 106.653307,16.0721443 C105.891784,14.5891784 105.490982,12.9859719 105.490982,11.2625251 C105.490982,9.498998 105.891784,7.81563126 106.733467,6.25250501 C107.57515,4.68937876 108.817635,3.40681363 110.460922,2.44488978 C112.064128,1.48296593 114.028056,0.961923848 116.272545,0.961923848 L119.679359,0.961923848 L119.679359,6.17234469 L117.51503,6.17234469 C116.833667,6.17234469 116.152305,6.25250501 115.470942,6.45290581 C114.789579,6.65330661 114.188377,6.93386774 113.747495,7.33466934 C113.266533,7.69539078 112.985972,8.13627255 112.905812,8.61723447 L119.679359,8.61723447 L119.679359,13.3466934 L112.905812,13.3466934 C113.026052,13.8677355 113.426854,14.3887776 114.068136,14.8697395 C114.669339,15.3507014 115.430862,15.5911824 116.312625,15.5911824 L119.719439,15.5911824 L119.719439,21.0821643 L119.679359,21.0821643 Z M78.757515,21.0821643 L80.2004008,4.16833667 C80.240481,3.48697395 80.4809619,2.84569138 80.9619238,2.3246493 C81.4428858,1.76352705 81.9639279,1.36272545 82.6452906,1.04208417 C83.3667335,0.761523046 84.0881764,0.601202405 84.8897796,0.601202405 C85.8917836,0.601202405 86.8136273,0.841683367 87.5751503,1.36272545 C88.3767535,1.88376754 88.8977956,2.64529058 89.1382766,3.68737475 L90.8216433,10.2204409 L92.7855711,3.24649299 C92.9859719,2.44488978 93.5470942,1.80360721 94.3887776,1.32264529 C95.2304609,0.841683367 96.1923848,0.601202405 97.1943888,0.601202405 C97.9559118,0.601202405 98.6773547,0.761523046 99.3186373,1.04208417 C99.9599198,1.28256513 100.521042,1.76352705 100.961924,2.3246493 C101.402806,2.9258517 101.643287,3.68737475 101.723447,4.56913828 L103.166333,21.002004 L96.6332665,21.002004 L95.8717435,9.29859719 L93.2264529,19.6392786 C93.1462926,20.2004008 92.8657315,20.6012024 92.4248497,20.9218437 C91.9839679,21.242485 91.5430862,21.4028056 90.9819639,21.4028056 C90.501002,21.4028056 90.0200401,21.2825651 89.6192385,21.002004 C89.2184369,20.761523 88.9779559,20.3607214 88.8577154,19.9198397 L85.9318637,9.33867735 L85.1703407,21.0420842 L78.757515,21.0420842 L78.757515,21.0821643 Z M61.3627255,11.3827655 C61.3627255,12.1843687 61.5631263,12.8657315 61.9639279,13.4268537 C62.3647295,13.987976 62.8456914,14.3887776 63.5270541,14.7094188 C64.1683367,14.98998 64.8496994,15.1503006 65.5711423,15.1503006 C66.252505,15.1503006 66.8937876,14.98998 67.5350701,14.7094188 C68.1362725,14.4288577 68.6973948,13.987976 69.0581162,13.4268537 C69.4188377,12.8657315 69.6192385,12.1442886 69.6192385,11.3827655 C69.6192385,10.1002004 69.2184369,9.13827655 68.4569138,8.45691383 C67.6553106,7.7755511 66.7334669,7.45490982 65.6112224,7.45490982 C64.488978,7.45490982 63.4869739,7.81563126 62.6853707,8.49699399 C61.7635271,9.21843687 61.3627255,10.1402806 61.3627255,11.3827655 Z M54.3086172,10.9418838 C54.3086172,9.77955912 54.5490982,8.61723447 55.0701403,7.49498998 C55.5511022,6.29258517 56.2324649,5.250501 57.1943888,4.24849699 C58.1563126,3.28657315 59.3186373,2.48496994 60.7214429,1.9238477 C62.1242485,1.36272545 63.6873747,1.04208417 65.4108216,1.04208417 C67.0941884,1.04208417 68.6172345,1.28256513 69.9799599,1.76352705 C71.3426854,2.24448898 72.50501,2.96593186 73.4268537,3.84769539 C74.3887776,4.76953908 75.1102204,5.85170341 75.5911824,7.13426854 C76.0721443,8.41683367 76.3527054,9.85971944 76.3527054,11.4228457 C76.3527054,12.9058116 76.0721443,14.2685371 75.4709419,15.5511022 C74.9098196,16.8336673 74.1482966,17.9158317 73.1462926,18.8376754 C72.1042084,19.7995992 70.9819639,20.5210421 69.6993988,21.002004 C68.4168337,21.5230461 67.0541082,21.7635271 65.6913828,21.7635271 C64.2084168,21.7635271 62.7655311,21.5230461 61.4028056,20.9619238 C60,20.4408818 58.7975952,19.6793587 57.755511,18.7174349 C56.7134269,17.755511 55.8717435,16.5931864 55.2705411,15.2705411 C54.6292585,13.9078156 54.3086172,12.50501 54.3086172,10.9418838 Z M36.1523046,21.0821643 L36.1523046,7.7755511 C36.1523046,6.41282565 36.3527054,5.250501 36.753507,4.32865731 C37.1543086,3.40681363 37.7154309,2.64529058 38.4368737,2.1242485 C39.1983968,1.56312625 40,1.16232465 40.9619238,0.921843687 C41.8837675,0.681362725 42.9258517,0.561122244 44.1282565,0.561122244 C45.8116232,0.561122244 47.2945892,0.881763527 48.4168337,1.52304609 C49.5791583,2.16432866 50.4609218,2.96593186 51.0621242,3.92785571 C51.6232465,4.92985972 51.9038076,5.93186373 51.9038076,7.05410822 C51.9038076,7.89579158 51.743487,8.65731463 51.4228457,9.33867735 C51.1022044,10.0200401 50.5811623,10.5811623 49.9398798,10.9418838 C50.7014028,11.1823647 51.2625251,11.6232465 51.7034068,12.3046092 C52.1442886,12.9859719 52.3446894,13.7875752 52.3446894,14.7895792 L52.3446894,21.1222445 L45.5711423,21.1222445 L45.5711423,16.1122244 C45.5711423,15.1903808 45.4509018,14.6292585 45.1703407,14.4288577 C44.9298597,14.1883768 44.4088176,14.0280561 43.6472946,13.8677355 L43.6472946,9.13827655 C43.8476954,9.17835671 44.0480962,9.17835671 44.248497,9.17835671 C44.8096192,9.17835671 45.250501,9.05811623 45.5310621,8.81763527 C45.8116232,8.57715431 45.9719439,8.25651303 45.9719439,7.89579158 C45.9719439,7.45490982 45.7715431,7.05410822 45.4509018,6.69338677 C45.0901804,6.33266533 44.6893788,6.17234469 44.1683367,6.17234469 C43.5671343,6.17234469 43.2064128,6.37274549 43.006012,6.81362725 C42.8056112,7.21442886 42.6853707,7.89579158 42.6853707,8.89779559 L42.6853707,21.0821643 L36.1523046,21.0821643 Z M16.3126253,1.04208417 L23.0861723,1.04208417 L23.0861723,14.3486974 C23.0861723,14.749499 23.246493,15.1102204 23.5270541,15.3106212 C23.8076152,15.5511022 24.1282565,15.6713427 24.5290581,15.6713427 C24.9298597,15.6713427 25.2905812,15.5511022 25.5711423,15.3106212 C25.8517034,15.0701403 26.012024,14.749499 26.012024,14.3486974 L26.012024,1.04208417 L32.7855711,1.04208417 L32.7855711,14.3486974 C32.7855711,15.4308617 32.6252505,16.3927856 32.3046092,17.2745491 C31.9839679,18.1563126 31.4228457,18.9178357 30.741483,19.5591182 C30.0601202,20.2004008 29.1783567,20.6813627 28.1763527,21.0420842 C27.1342685,21.4028056 25.9318637,21.5631263 24.5691383,21.5631263 C23.2865731,21.5631263 22.1242485,21.3627255 21.0821643,20.9619238 C20.0400802,20.5611222 19.1583166,20 18.4368737,19.3587174 C17.7154309,18.6773547 17.1943888,17.8757515 16.8336673,17.0340681 C16.5130261,16.1923848 16.3126253,15.3106212 16.3126253,14.3887776 L16.3126253,1.04208417 Z M14.1883768,21.0821643 L10.3006012,21.0821643 C8.09619238,21.0821643 6.25250501,20.6012024 4.6492986,19.6793587 C3.08617234,18.7975952 1.9238477,17.5551102 1.16232465,16.0721443 C0.400801603,14.5891784 0,13.0260521 0,11.3026052 C0,9.53907816 0.400801603,7.85571142 1.24248497,6.29258517 C2.08416834,4.72945892 3.32665331,3.44689379 4.96993988,2.48496994 C6.57314629,1.52304609 8.53707415,1.00200401 10.7815631,1.00200401 L14.1883768,1.00200401 L14.1883768,6.21242485 L12.0240481,6.21242485 C11.3426854,6.21242485 10.6613226,6.29258517 9.97995992,6.49298597 C9.29859719,6.69338677 8.69739479,6.9739479 8.25651303,7.3747495 C7.7755511,7.73547094 7.49498998,8.17635271 7.41482966,8.65731463 L14.1883768,8.65731463 L14.1883768,13.3867735 L7.41482966,13.3867735 C7.53507014,13.9078156 7.93587174,14.4288577 8.57715431,14.9098196 C9.17835671,15.3907816 9.93987976,15.6312625 10.8216433,15.6312625 L14.2284569,15.6312625 L14.2284569,21.0821643 L14.1883768,21.0821643 Z M152.54509,1.00200401 L159.238477,1.00200401 L159.238477,8.33667335 C159.559118,8.25651303 159.95992,7.89579158 160.200401,7.61523046 C161.402806,6.17234469 161.963928,3.60721443 162.765531,0.961923848 L169.138277,0.961923848 C168.176353,5.01002004 167.49499,8.49699399 165.611222,9.8997996 C167.094188,9.8997996 167.935872,10.8617234 168.376754,12.0240481 C168.777555,13.0661323 168.657315,19.6793587 168.657315,21.1623246 L161.883768,21.1623246 C161.883768,19.5591182 161.883768,17.8356713 161.843687,16.2324649 C161.803607,13.9078156 161.843687,12.9859719 159.278557,13.2264529 L159.278557,21.1623246 L152.58517,21.1623246 L152.58517,1.00200401 L152.54509,1.00200401 Z" id="Shape" fill="#D71920" fill-rule="nonzero"></path>
                    <path d="M188.857715,0 C194.98998,0 200,5.01002004 200,11.1823647 C200,17.3547094 194.98998,22.3647295 188.817635,22.3647295 C182.645291,22.3647295 177.635271,17.3547094 177.635271,11.1823647 C177.675351,5.01002004 182.685371,0 188.857715,0 L188.857715,0 Z M188.857715,0.881763527 C194.549098,0.881763527 199.158317,5.49098196 199.158317,11.1823647 C199.158317,16.8737475 194.549098,21.4829659 188.857715,21.4829659 C183.166333,21.4829659 178.557114,16.8737475 178.557114,11.1823647 C178.557114,5.49098196 183.166333,0.881763527 188.857715,0.881763527 Z" id="Shape" fill="#15B15F"></path>
                    <path d="M182.645291,9.29859719 L195.03006,9.29859719 C195.430862,9.29859719 195.751503,9.61923848 195.751503,10.0200401 L195.751503,12.3847695 C195.751503,12.7855711 195.430862,13.1062124 195.03006,13.1062124 L182.645291,13.1062124 C182.244489,13.1062124 181.923848,12.7855711 181.923848,12.3847695 L181.923848,10.0200401 C181.963928,9.61923848 182.244489,9.29859719 182.645291,9.29859719" id="Path" fill="#15B15F"></path>
                    <path d="M186.973948,17.3547094 L186.973948,4.96993988 C186.973948,4.56913828 187.294589,4.24849699 187.695391,4.24849699 L190.06012,4.24849699 C190.460922,4.24849699 190.781563,4.56913828 190.781563,4.96993988 L190.781563,17.3547094 C190.781563,17.755511 190.460922,18.0761523 190.06012,18.0761523 L187.695391,18.0761523 C187.294589,18.0761523 186.973948,17.755511 186.973948,17.3547094" id="Path" fill="#15B15F"></path>
                </g>
            </g>
        </g>
    </g>
</svg>