<?xml version="1.0" encoding="UTF-8"?>
<svg width="100px" height="99px" viewBox="0 0 100 99" version="1.1" xmlns="http://www.w3.org/2000/svg" xmlns:xlink="http://www.w3.org/1999/xlink">
    <!-- Generator: Sketch 57.1 (83088) - https://sketch.com -->
    <title>bed</title>
    <desc>Created with Sketch.</desc>
    <g id="Page-1" stroke="none" stroke-width="1" fill="none" fill-rule="evenodd">
        <g id="1.-Euromedik---Home-v4" transform="translate(-200.000000, -3849.000000)" fill="#FFFFFF" fill-rule="nonzero">
            <g id="Group-28" transform="translate(0.000000, 3680.000000)">
                <g id="Group-27">
                    <g id="Group-26" transform="translate(200.000000, 163.000000)">
                        <g id="Group-25" transform="translate(0.000000, 6.000000)">
                            <g id="bed">
                                <path d="M97.0189144,34.7382127 L94.2601731,34.7382127 C92.7235624,34.7382127 91.4740193,35.9877559 91.4740193,37.5243665 L91.4740193,48.0704799 L87.3378107,48.0704799 C86.7667214,46.9496222 85.6047454,46.1790327 84.2638281,46.1790327 L68.6982212,46.1790327 C67.8903205,46.1790327 67.2362329,46.8331201 67.2362329,47.6410211 C67.2362329,48.4481602 67.8903205,49.1030094 68.6982212,49.1030094 L84.2630665,49.1030094 C84.5531797,49.1030094 84.78923,49.3390595 84.78923,49.6291727 L84.78923,64.0685916 L51.3645224,64.0685916 L51.3645224,49.1030094 L61.8748478,49.1030094 C62.6827485,49.1030094 63.3368361,48.4481602 63.3368361,47.6410211 C63.3368361,46.8331201 62.6827485,46.1790327 61.8748478,46.1790327 L51.092684,46.1790327 C50.5680433,44.9409113 49.3413439,44.0705713 47.9143823,44.0705713 L34.5691704,44.0705713 C32.6670626,44.0705713 31.1190302,45.6186039 31.1190302,47.5207115 L31.1190302,48.0704799 L29.8527351,48.0704799 C29.9692374,47.6889924 30.0331992,47.2846612 30.0331992,46.8658626 L30.0331992,44.1992569 C30.0331992,41.9225146 28.1813474,40.0706628 25.9046053,40.0706628 L18.7355324,40.0706628 L18.7355324,8.33104893 L26.9234285,8.33104893 L26.9234285,9.42144854 L24.6801901,9.42144854 C22.5458394,9.42144854 20.8097283,11.1575596 20.8097283,13.2919103 L20.8097283,27.4770041 C20.8097283,29.6113548 22.5458394,31.3474659 24.6801901,31.3474659 L26.9234285,31.3474659 L26.9234285,35.7532285 C26.9234285,36.5611294 27.5782772,37.2152168 28.3854168,37.2152168 C29.1933175,37.2152168 29.8481665,36.5611294 29.8481665,35.7532285 L29.8481665,31.3474659 L32.0914047,31.3474659 C34.2257554,31.3474659 35.9618665,29.6113548 35.9618665,27.4770041 C35.9618665,25.8254142 35.9618665,14.9869029 35.9618665,13.2919103 C35.9618665,11.1575596 34.2257554,9.42144854 32.0914047,9.42144854 L29.8481665,9.42144854 L29.8481665,8.33104893 L30.4999696,8.33104893 C31.3078704,8.33104893 31.9619579,7.6769614 31.9619579,6.86906062 C31.9619579,6.06115984 31.3078704,5.40707232 30.4999696,5.40707232 L29.8458821,5.40707232 C29.8268458,4.61668499 29.1811343,3.98087232 28.3861782,3.98087232 C27.5904604,3.98087232 26.9455105,4.61592359 26.9257127,5.40707232 L18.736294,5.40707232 L18.736294,3.45242456 C18.736294,1.54879376 17.1875,0 15.2838694,0 L13.856908,0 C11.9532772,0 10.4052448,1.54879376 10.4052448,3.45242456 L10.4052448,40.0706628 L9.53642788,40.0706628 C9.11686764,40.0706628 8.71253645,40.1346248 8.33181053,40.2511269 L8.33181053,37.5243665 C8.33181053,35.9877559 7.08150585,34.7382127 5.54565673,34.7382127 L2.7861538,34.7382127 C1.24954308,34.7382127 -2.84217094e-14,35.9877559 -2.84217094e-14,37.5243665 L-2.84217094e-14,62.8639743 C-2.84217094e-14,65.0721856 1.74372554,66.8760661 3.92604776,66.9826694 L3.92604776,68.2710466 C3.92604776,70.5477887 5.77789961,72.3996405 8.05464172,72.3996405 L32.1249086,72.3996405 L42.4311647,79.3220029 L32.7729045,85.8088146 C32.26197,85.6770834 31.726669,85.6070296 31.1753778,85.6070296 C27.638432,85.6070296 24.7616655,88.4837963 24.7616655,92.0199805 C24.7616655,95.5569261 27.6391934,98.4336928 31.1753778,98.4336928 C34.5059698,98.4336928 37.2502437,95.8813049 37.5586318,92.6299037 L49.9032955,84.3392117 L62.2471979,92.6299037 C62.555586,95.8813049 65.2998598,98.4336928 68.630452,98.4336928 C72.1673977,98.4336928 75.0441641,95.5569261 75.0441641,92.0199805 C75.0441641,88.4837963 72.1666363,85.6070296 68.630452,85.6070296 C68.0791606,85.6070296 67.5438596,85.6770834 67.0329251,85.8088146 L57.3746649,79.3220029 L67.6809211,72.3996405 L91.7511879,72.3996405 C94.02793,72.3996405 95.8797819,70.5477887 95.8797819,68.2710466 L95.8797819,66.9826694 C98.0621041,66.8760661 99.8058296,65.0721856 99.8058296,62.8639743 L99.8058296,60.9428302 C99.8058296,60.1356908 99.1509807,59.4808419 98.3438413,59.4808419 C97.5359405,59.4808419 96.881853,60.1356908 96.881853,60.9428302 L96.881853,62.8639743 C96.881853,63.528722 96.341222,64.0685916 95.6772357,64.0685916 C92.7783869,64.0685916 90.6006335,64.0685916 87.713968,64.0685916 L87.713968,50.9944565 L95.6772357,50.9944565 C96.341222,50.9944565 96.881853,51.5343263 96.881853,52.1990741 L96.881853,54.1202181 C96.881853,54.9281189 97.5359405,55.5822064 98.3438413,55.5822064 C99.1509807,55.5822064 99.8058296,54.9281189 99.8058296,54.1202181 L99.8058296,37.5243665 C99.8058296,35.9877559 98.5555251,34.7382127 97.0189144,34.7382127 L97.0189144,34.7382127 Z M33.0378899,27.4770041 C33.0378899,27.990223 32.6046236,28.4234893 32.0914047,28.4234893 L24.6801901,28.4234893 C24.1669712,28.4234893 23.7337049,27.990223 23.7337049,27.4770041 L23.7337049,18.9822429 L33.0378899,18.9822429 L33.0378899,27.4770041 Z M33.0378899,13.2919103 L33.0378899,16.0582663 L23.7337049,16.0582663 L23.7337049,13.2919103 C23.7337049,12.7786916 24.1669712,12.3454251 24.6801901,12.3454251 L32.0914047,12.3454251 C32.6046236,12.3454251 33.0378899,12.7786916 33.0378899,13.2919103 Z M34.0430068,47.5207115 C34.0430068,47.2305982 34.2790569,46.994548 34.5691704,46.994548 L47.9143823,46.994548 C48.2044955,46.994548 48.4405458,47.2305982 48.4405458,47.5207115 L48.4405458,64.0685916 L34.0430068,64.0685916 C34.0430068,61.7735747 34.0430068,48.8760965 34.0430068,47.5207115 Z M13.3292214,3.45242456 C13.3292214,3.16154971 13.5660331,2.92473801 13.856908,2.92473801 L15.2838694,2.92473801 C15.5747442,2.92473801 15.8115558,3.16154971 15.8115558,3.45242456 L15.8115558,40.0706628 L13.3292214,40.0706628 L13.3292214,3.45242456 Z M9.53566647,42.9946394 L25.9046053,42.9946394 C26.5685916,42.9946394 27.1092226,43.5352706 27.1092226,44.1992569 L27.1092226,46.8658626 C27.1092226,47.5298489 26.5685916,48.0704799 25.9046053,48.0704799 L9.53566647,48.0704799 C8.87168012,48.0704799 8.33104893,47.5298489 8.33104893,46.8658626 L8.33104893,44.1992569 C8.33104893,43.5352706 8.87168012,42.9946394 9.53566647,42.9946394 Z M2.92397661,37.6621893 L5.40707232,37.6621893 L5.40707232,48.0704799 L4.12859415,48.0704799 C3.76157407,48.0704799 3.30470273,48.1329191 2.92397661,48.2494212 L2.92397661,37.6621893 Z M2.92397661,62.8639743 L2.92397661,52.1983127 C2.92397661,51.5343263 3.4646078,50.9944565 4.12859415,50.9944565 L6.86906062,50.9944565 L31.1197916,50.9944565 L31.1197916,64.0685916 C29.5230263,64.0685916 4.40956998,64.0685916 4.12859415,64.0685916 C3.4646078,64.0685916 2.92397661,63.528722 2.92397661,62.8639743 L2.92397661,62.8639743 Z M37.3697916,72.3996405 L41.8227643,72.3996405 L47.2800926,76.0652717 L45.0536062,77.5607639 L37.3697916,72.3996405 Z M49.9025341,74.3040327 L47.0676474,72.3996405 L52.7374209,72.3996405 L49.9025341,74.3040327 Z M31.1746162,95.5097162 C29.2511879,95.5097162 27.6856421,93.9441704 27.6856421,92.0207419 C27.6856421,90.096552 29.2511879,88.5310062 31.1746162,88.5310062 C33.0820542,88.5310062 34.6643519,90.089699 34.6643519,92.0207419 C34.6643519,93.9441704 33.098806,95.5097162 31.1746162,95.5097162 L31.1746162,95.5097162 Z M72.1194261,92.0207419 C72.1194261,93.9441704 70.5538803,95.5097162 68.630452,95.5097162 C66.7062622,95.5097162 65.1414778,93.9441704 65.1414778,92.0207419 C65.1414778,90.0813232 66.7268214,88.5310062 68.630452,88.5310062 C70.5538803,88.5310062 72.1194261,90.096552 72.1194261,92.0207419 L72.1194261,92.0207419 Z M64.1729105,87.4101485 C63.5721248,87.9911366 63.0794651,88.7091862 62.7550865,89.4493177 L52.5249756,82.5787341 L54.751462,81.0832419 L64.1729105,87.4101485 Z M37.0499817,89.4493177 C36.7286489,88.7152778 36.2413195,87.9995127 35.6329191,87.4101485 C37.2007493,86.3570602 49.0679825,78.3869396 50.7180495,77.2790265 C50.7180495,77.2790265 57.9823039,72.4004019 57.9823039,72.3996405 L62.436038,72.3996405 C62.1436404,72.5960953 37.6104105,89.0731602 37.0499817,89.4493177 L37.0499817,89.4493177 Z M92.9550439,66.9933296 L92.9550439,68.271808 C92.9550439,68.9357943 92.4151743,69.4756639 91.7511879,69.4756639 C86.3212719,69.4756639 11.0136452,69.4756639 8.05388031,69.4756639 C7.38989396,69.4756639 6.85002437,68.9357943 6.85002437,68.271808 L6.85002437,66.9933296 L92.9550439,66.9933296 Z M94.3979959,48.0704799 L94.3979959,37.6621893 L96.8810916,37.6621893 L96.8810916,48.2494212 C96.5163559,48.1382493 96.060246,48.0704799 95.6764741,48.0704799 L94.3979959,48.0704799 Z" id="Shape"></path>
                            </g>
                        </g>
                    </g>
                </g>
            </g>
        </g>
    </g>
</svg>