<?xml version="1.0" encoding="UTF-8"?>
<svg width="90px" height="102px" viewBox="0 0 90 102" version="1.1" xmlns="http://www.w3.org/2000/svg" xmlns:xlink="http://www.w3.org/1999/xlink">
    <!-- Generator: Sketch 57.1 (83088) - https://sketch.com -->
    <title>doctor (1)</title>
    <desc>Created with Sketch.</desc>
    <g id="Page-1" stroke="none" stroke-width="1" fill="none" fill-rule="evenodd">
        <g id="1.-Euromedik---Home-v4" transform="translate(-517.000000, -3846.000000)" fill="#FFFFFF" fill-rule="nonzero">
            <g id="Group-28" transform="translate(0.000000, 3680.000000)">
                <g id="Group-27">
                    <g id="Group-26" transform="translate(200.000000, 163.000000)">
                        <g id="Group-24" transform="translate(317.000000, 3.000000)">
                            <g id="doctor-(1)">
                                <path d="M89.7485526,95.8782237 L85.2781579,69.7065789 C84.7963816,66.8867763 82.7960526,64.6215789 80.0571711,63.7953947 L67.9995395,60.1573026 C67.7498684,57.2098026 66.5413816,54.4290789 64.5301974,52.2280263 C62.9214474,50.4675 60.8980263,49.1855921 58.6675658,48.4782237 C59.0492763,48.0546711 59.4031579,47.6325 59.7278289,47.2196053 C62.5951974,43.5728289 64.1303289,39.5551974 64.5211184,36.8135526 L65.4513158,36.8135526 C67.8706579,36.8135526 69.8390132,34.8453947 69.8390132,32.4258553 L69.8390132,30.1766447 C69.8390132,28.5619737 68.9307237,27.0988816 67.5647368,26.3396053 L67.5647368,20.9309211 C67.5647368,20.1136184 66.9021711,19.4510526 66.0848684,19.4510526 C65.2675658,19.4510526 64.6051974,20.1134211 64.6051974,20.9309211 L64.6051974,27.0027632 C64.0288816,27.1028289 63.34125,27.2757237 62.6378289,27.5719737 C62.5657895,27.5982237 62.4957237,27.6286184 62.4294079,27.6651316 C62.2705263,27.7375658 62.1114474,27.8139474 61.9529605,27.9 L61.9529605,15.9746053 C61.9529605,12.6799342 59.2726974,9.99967105 55.9780263,9.99967105 L51.8934868,9.99967105 C50.4846711,9.99967105 49.1084211,10.4905263 48.0177632,11.3822368 L47.6169079,11.7098684 C46.8807237,12.3118421 45.9515132,12.6434211 45.0003947,12.6434211 C44.0492763,12.6434211 43.1198684,12.3118421 42.3836842,11.7098684 L41.9830263,11.3822368 C40.8923684,10.4907237 39.5161184,9.99967105 38.1073026,9.99967105 L34.0223684,9.99967105 C30.7276974,9.99967105 28.0474342,12.6799342 28.0474342,15.9746053 L28.0474342,27.9 C27.8889474,27.8139474 27.7298684,27.7375658 27.5709868,27.6651316 C27.5046711,27.6286184 27.4348026,27.5982237 27.3627632,27.5719737 C26.6593421,27.2757237 25.9715132,27.1028289 25.3953947,27.0027632 L25.3953947,11.6496711 C25.3953947,6.85796053 29.2938158,2.95953947 34.0855263,2.95953947 L55.9146711,2.95953947 C60.7065789,2.95953947 64.6048026,6.85796053 64.6048026,11.6496711 L64.6048026,13.9758553 C64.6048026,14.7931579 65.2673684,15.4557237 66.0844737,15.4557237 C66.9015789,15.4557237 67.5643421,14.7933553 67.5643421,13.9758553 L67.5643421,11.6496711 C67.5643421,5.22611842 62.3382237,0 55.9146711,0 L34.0855263,0 C27.6617763,0 22.4358553,5.22611842 22.4358553,11.6496711 L22.4358553,26.3398026 C21.0698684,27.0990789 20.1615789,28.5619737 20.1615789,30.1768421 L20.1615789,32.4260526 C20.1615789,34.8455921 22.1299342,36.81375 24.5492763,36.81375 L25.4794737,36.81375 C25.8700658,39.5553947 27.4053947,43.5730263 30.2727632,47.2198026 C30.5970395,47.6323026 30.9507237,48.0540789 31.3320395,48.4772368 C26.2044079,50.1059211 22.4650658,54.7160526 22.0010526,60.1573026 L9.94302632,63.7953947 C7.20414474,64.6215789 5.20361842,66.8867763 4.72203947,69.7065789 L2.90664474,80.3346711 C2.76907895,81.1403289 3.31065789,81.9047368 4.11611842,82.0423026 C4.92138158,82.1802632 5.68618421,81.6384868 5.82394737,80.8328289 L7.63934211,70.2047368 C7.93065789,68.4986842 9.14092105,67.1285526 10.7978289,66.6288158 L21.9501316,63.2638816 L21.9501316,66.1910526 C19.3938158,66.6615789 17.2186184,68.4175658 16.3227632,70.8505263 C16.0849342,71.4963158 15.9371053,72.1725 15.8834211,72.8601316 L14.8055921,86.6946711 C14.7242763,87.7367763 15.0848684,88.7745395 15.7944079,89.5413158 C16.5039474,90.3082895 17.5103289,90.7484211 18.5553947,90.7484211 L20.4003947,90.7484211 C21.2176974,90.7484211 21.8802632,90.0860526 21.8802632,89.2685526 C21.8802632,88.4510526 21.2176974,87.7888816 20.4003947,87.7888816 L18.5553947,87.7888816 C18.3325658,87.7888816 18.1182237,87.6953289 17.9668421,87.5315132 C17.8156579,87.3680921 17.7388816,87.1470395 17.75625,86.925 L18.8340789,73.0902632 C18.8666447,72.6736184 18.9560526,72.2640789 19.1001316,71.8730921 C19.7234211,70.1806579 21.4065789,69.0345395 23.2888816,69.0213158 L23.5326316,69.0195395 C23.5440789,69.0193421 23.5553289,69.0193421 23.5665789,69.0193421 C25.3959868,69.0193421 27.0153947,70.0567105 27.6984868,71.6694079 C27.8901316,72.1215789 28.0065789,72.5996053 28.0448684,73.0902632 L29.1230921,86.9251974 C29.1402632,87.1470395 29.0634868,87.3680921 28.9123026,87.5317105 C28.7611184,87.6951316 28.5465789,87.7888816 28.32375,87.7888816 L26.47875,87.7888816 C25.6614474,87.7888816 24.9988816,88.45125 24.9988816,89.2685526 C24.9988816,90.0858553 25.6614474,90.7484211 26.47875,90.7484211 L28.32375,90.7484211 C29.3688158,90.7484211 30.3753947,90.3084868 31.0847368,89.5413158 C31.7944737,88.7741447 32.1550658,87.7365789 32.07375,86.6948684 L30.9955263,72.8601316 C30.9323684,72.0505263 30.7399342,71.26125 30.4235526,70.5146053 C29.44875,68.2138816 27.3643421,66.6142105 24.9094737,66.1813816 L24.9094737,62.3709868 L29.9964474,60.8360526 C30.4592763,61.8108553 31.3764474,63.9173684 33.1932237,68.4582237 C35.0242105,73.0399342 37.3000658,78.9126316 39.4827632,84.6217105 C39.4983553,84.6696711 39.5163158,84.7164474 39.5364474,84.7622368 C40.9930263,88.5736184 42.4059868,92.3066447 43.6144737,95.5269079 C43.8311842,96.1044079 44.3832237,96.4869079 45,96.4869079 C45.6167763,96.4869079 46.1688158,96.1044079 46.3855263,95.5269079 C47.5938158,92.3066447 49.0067763,88.5736184 50.4635526,84.7622368 C50.4838816,84.7164474 50.5016447,84.6694737 50.5172368,84.6217105 C52.6983553,78.9159868 54.9730263,73.0470395 56.8032237,68.4667105 C58.6223684,63.9199342 59.5403289,61.8116447 60.0033553,60.8360526 L65.0903289,62.3709868 L65.0903289,71.1114474 C61.5657237,71.7961184 58.8959211,74.9046711 58.8959211,78.6266447 C58.8959211,82.8485526 62.3307237,86.2835526 66.5528289,86.2835526 C70.7749342,86.2835526 74.2097368,82.84875 74.2097368,78.6266447 C74.2097368,74.9169079 71.5575,71.8158553 68.0498684,71.1177632 L68.0498684,63.2640789 L79.2023684,66.6290132 C80.8592763,67.12875 82.0693421,68.4988816 82.3608553,70.2049342 L86.83125,96.3765789 C86.9054605,96.8105921 86.79,97.2349342 86.5059868,97.5714474 C86.2221711,97.9077632 85.8232895,98.0932895 85.3829605,98.0932895 L4.61703947,98.0932895 C4.17671053,98.0932895 3.77802632,97.9079605 3.49401316,97.5714474 C3.21019737,97.2349342 3.09453947,96.8107895 3.16875,96.3765789 L4.64407895,87.7393421 C4.78164474,86.9336842 4.24006579,86.1692763 3.43460526,86.0317105 C2.62934211,85.8935526 1.86453947,86.4357237 1.72677632,87.2411842 L0.251447368,95.8784211 C0.0313815789,97.1676316 0.388815789,98.4803289 1.23197368,99.48 C2.07552632,100.479474 3.30927632,101.052632 4.61703947,101.052632 L85.3829605,101.052632 C86.6907237,101.052632 87.9246711,100.479474 88.7680263,99.4798026 C89.6111842,98.4801316 89.9686184,97.1674342 89.7485526,95.8782237 Z M64.6225658,30.0175658 C65.4110526,29.8209868 66.0440132,29.8245395 66.0511184,29.8247368 C66.3061184,29.8280921 66.5540132,29.7684868 66.7742763,29.6530263 C66.8401974,29.8170395 66.8790789,29.9932895 66.8790789,30.1768421 L66.8790789,32.4260526 C66.8790789,33.2135526 66.2384211,33.8542105 65.4509211,33.8542105 L64.6225658,33.8542105 L64.6225658,30.0175658 Z M25.3774342,33.8542105 L25.3774342,33.8542105 L24.5490789,33.8542105 C23.7615789,33.8542105 23.1209211,33.2135526 23.1209211,32.4260526 L23.1209211,30.1768421 C23.1209211,29.9932895 23.16,29.8170395 23.2257237,29.6532237 C23.4457895,29.7686842 23.6936842,29.8282895 23.9488816,29.8247368 C23.9601316,29.8267105 24.5913158,29.8231579 25.3774342,30.0183553 L25.3774342,33.8542105 Z M28.3369737,35.5134868 L28.3369737,31.6257237 C28.7853947,31.7601316 29.2758553,31.7417763 29.7286184,31.5528947 C30.5052632,31.2288158 31.0069737,30.47625 31.0069737,29.6352632 L31.0069737,15.9746053 C31.0069737,14.3119737 32.3597368,12.9592105 34.0223684,12.9592105 L38.1069079,12.9592105 C38.8348026,12.9592105 39.5459211,13.2128289 40.1094079,13.6734868 L40.5100658,14.0011184 C41.7734211,15.0341447 43.3679605,15.6027632 45,15.6027632 C46.6320395,15.6027632 48.2265789,15.0339474 49.4899342,14.0011184 L49.8905921,13.6734868 C50.4538816,13.2128289 51.1651974,12.9592105 51.8930921,12.9592105 L55.9776316,12.9592105 C57.6402632,12.9592105 58.9930263,14.3119737 58.9930263,15.9746053 L58.9930263,29.6354605 C58.9930263,30.47625 59.4947368,31.2290132 60.2713816,31.5530921 C60.5307237,31.66125 60.8023026,31.71375 61.0715132,31.71375 C61.2722368,31.71375 61.4713816,31.6843421 61.6630263,31.6271053 L61.6630263,35.5134868 C61.6630263,37.6740789 60.1693421,41.8697368 57.4010526,45.3903947 C56.4840789,46.5566447 55.3053947,47.8095395 53.8541447,48.9045395 C53.8081579,48.9353289 53.7641447,48.9686842 53.7221053,49.0042105 C51.4738816,50.6664474 48.5830263,51.9398684 45,51.9398684 C41.4169737,51.9398684 38.5261184,50.6664474 36.2776974,49.0040132 C36.2356579,48.9686842 36.1918421,48.9353289 36.1460526,48.9047368 C34.6948026,47.8095395 33.5161184,46.5566447 32.5989474,45.3903947 C29.8308553,41.8699342 28.3369737,37.6740789 28.3369737,35.5134868 Z M54.6947368,59.4217105 L45,66.6678947 L35.3052632,59.4217105 C36.2666447,58.1998026 36.8052632,56.6313158 36.8052632,55.2315789 L36.8052632,52.8461842 C39.0850658,54.0722368 41.8053947,54.8996053 45,54.8996053 C48.1946053,54.8996053 50.9151316,54.0722368 53.1947368,52.8461842 L53.1947368,55.2315789 C53.1947368,56.6313158 53.7333553,58.1998026 54.6947368,59.4217105 Z M32.8355921,57.7699342 C32.0453289,57.4689474 31.1692105,57.4196053 30.3404605,57.6444079 C30.3041447,57.6528947 30.2686184,57.6625658 30.2340789,57.6728289 L25.1216447,59.2154605 C25.9863158,54.96375 29.4386842,51.5796711 33.8457237,50.9242105 L33.8457237,55.2315789 C33.8457237,56.16 33.43125,57.1198026 32.8355921,57.7699342 Z M36.8518421,69.6491447 C36.8490789,69.6422368 36.8463158,69.6353289 36.84375,69.6286184 C36.76875,69.4389474 36.6947368,69.2518421 36.6213158,69.0669079 C36.6080921,69.0333553 36.5948684,69 36.5816447,68.9668421 C36.5098026,68.7858553 36.4385526,68.60625 36.3682895,68.4296053 C36.3633553,68.4171711 36.3584211,68.4049342 36.3534868,68.3923026 C36.1342105,67.8410526 35.9228289,67.3123026 35.7195395,66.8056579 C35.7047368,66.7689474 35.6899342,66.7316447 35.6751316,66.6951316 C35.6167105,66.5498684 35.5592763,66.4067763 35.5022368,66.2654605 C35.4813158,66.2135526 35.4605921,66.1622368 35.4398684,66.1109211 C35.3846053,65.9739474 35.3297368,65.8377632 35.2756579,65.7045395 C35.2594737,65.6646711 35.2436842,65.6259868 35.2276974,65.5863158 C35.1296053,65.3443421 35.0336842,65.1084868 34.9401316,64.8785526 C34.9148684,64.8163816 34.8890132,64.7530263 34.8639474,64.6916447 C34.8272368,64.6020395 34.7915132,64.5148026 34.7555921,64.4269737 C34.7169079,64.3322368 34.6782237,64.2382895 34.6403289,64.1459211 C34.6261184,64.1113816 34.6113158,64.0748684 34.5971053,64.0405263 C34.5856579,64.0128947 34.5751974,63.9874342 34.5639474,63.96 C34.3930263,63.5447368 34.2305921,63.1533553 34.0764474,62.7852632 C34.0752632,62.7823026 34.0738816,62.7793421 34.0726974,62.7763816 C33.9905921,62.5803947 33.9102632,62.3889474 33.8330921,62.2065789 C33.7930263,62.1120395 33.7535526,62.0190789 33.7148684,61.9278947 L42.0526974,68.1596053 L38.56875,69.6396711 C38.5626316,69.6422368 38.5563158,69.6448026 38.5501974,69.6475658 L37.0955921,70.2655263 C37.0130921,70.0569079 36.9323684,69.8524342 36.8518421,69.6491447 Z M40.3827632,78.7099342 C40.0904605,77.9514474 39.7959868,77.1886184 39.5009211,76.4265789 C39.0394737,75.2346711 38.59875,74.1013816 38.1769737,73.0217763 L38.7292105,72.7871053 L40.9855263,75.4099342 L40.3827632,78.7099342 Z M45.0286184,90.7371711 C44.9861842,90.6491447 44.9356579,90.5660526 44.8772368,90.4886842 C44.2085526,88.72125 43.3598684,86.4848684 42.4205921,84.0242763 L43.8021711,76.4601316 L46.1978289,76.4601316 L47.5794079,84.0242763 C46.5951316,86.6021053 45.7111184,88.9330263 45.0286184,90.7371711 Z M46.7528289,73.5007895 L43.2471711,73.5007895 L41.5882895,71.5725 L45,70.1232237 L48.4117105,71.5725 L46.7528289,73.5007895 Z M50.4990789,76.4265789 C50.2040132,77.1886184 49.9095395,77.9514474 49.6172368,78.7099342 L49.0144737,75.4097368 L51.2707895,72.7869079 L51.8230263,73.0215789 C51.40125,74.1011842 50.9605263,75.2346711 50.4990789,76.4265789 Z M56.1671053,62.2065789 C56.0938816,62.3794737 56.0176974,62.5608553 55.9401316,62.7459868 C55.9300658,62.7700658 55.9198026,62.7943421 55.9097368,62.8186184 C55.8329605,63.0021711 55.7548026,63.1896711 55.6738816,63.3848684 C55.6685526,63.3976974 55.6630263,63.4113158 55.6576974,63.4243421 C55.5878289,63.5926974 55.5161842,63.7663816 55.4433553,63.9434211 C55.4297368,63.9765789 55.4169079,64.0071711 55.4032895,64.0405263 C55.3871053,64.0801974 55.3697368,64.1222368 55.3533553,64.1623026 C55.3209868,64.24125 55.2880263,64.3217763 55.2548684,64.4023026 C55.2142105,64.5015789 55.17375,64.6004605 55.1321053,64.7021053 C55.1188816,64.7344737 55.1052632,64.7682237 55.0918421,64.8007895 C54.9888158,65.0532237 54.8830263,65.3133553 54.7748684,65.5805921 C54.7578947,65.6224342 54.7411184,65.6634868 54.7241447,65.7059211 C54.6706579,65.8379605 54.6161842,65.9727632 54.5615132,66.1083553 C54.5401974,66.1614474 54.5186842,66.2143421 54.4971711,66.2680263 C54.4407237,66.4079605 54.3836842,66.5496711 54.3260526,66.6933553 C54.3098684,66.7334211 54.2934868,66.7744737 54.2773026,66.8147368 C54.0765789,67.3144737 53.8683553,67.8357237 53.6522368,68.3788816 C53.6451316,68.3968421 53.6380263,68.4144079 53.6309211,68.4325658 C53.5610526,68.6080263 53.4903947,68.7864474 53.4189474,68.96625 C53.4057237,68.9998026 53.3923026,69.0333553 53.3788816,69.0671053 C53.3050658,69.2530263 53.2306579,69.4409211 53.1552632,69.6317763 C53.1538816,69.6353289 53.1525,69.6388816 53.1511184,69.6422368 C53.0698026,69.8478947 52.9880921,70.0547368 52.9048026,70.2659211 L51.4488158,69.6473684 C51.4436842,69.6451974 51.4385526,69.6430263 51.4336184,69.6408553 L47.9476974,68.16 L56.2855263,61.9282895 C56.2464474,62.0190789 56.2069737,62.1118421 56.1671053,62.2065789 Z M59.7659211,57.6730263 C59.7657237,57.6730263 59.7653289,57.6728289 59.7651316,57.6728289 C59.7639474,57.6724342 59.7625658,57.6722368 59.7613816,57.6716447 C58.9028289,57.4140789 57.9870395,57.4567105 57.1646053,57.7699342 C56.56875,57.1198026 56.1544737,56.16 56.1544737,55.2315789 L56.1544737,50.9220395 C60.5891447,51.5757237 64.0310526,54.9280263 64.8844737,59.2172368 L59.7659211,57.6730263 Z M71.2501974,78.6266447 C71.2501974,81.2169079 69.1428947,83.3240132 66.5528289,83.3240132 C63.9627632,83.3240132 61.8554605,81.2169079 61.8554605,78.6266447 C61.8554605,76.0363816 63.9627632,73.9292763 66.5528289,73.9292763 C69.1428947,73.9292763 71.2501974,76.0363816 71.2501974,78.6266447 Z" id="Shape"></path>
                            </g>
                        </g>
                    </g>
                </g>
            </g>
        </g>
    </g>
</svg>