<?xml version="1.0" encoding="UTF-8"?>
<svg width="90px" height="105px" viewBox="0 0 90 105" version="1.1" xmlns="http://www.w3.org/2000/svg" xmlns:xlink="http://www.w3.org/1999/xlink">
    <!-- Generator: Sketch 57.1 (83088) - https://sketch.com -->
    <title>nurse</title>
    <desc>Created with Sketch.</desc>
    <g id="Page-1" stroke="none" stroke-width="1" fill="none" fill-rule="evenodd">
        <g id="1.-Euromedik---Home-v4" transform="translate(-817.000000, -3843.000000)" fill="#FFFFFF" fill-rule="nonzero">
            <g id="Group-28" transform="translate(0.000000, 3680.000000)">
                <g id="Group-27">
                    <g id="Group-26" transform="translate(200.000000, 163.000000)">
                        <g id="Group-23" transform="translate(617.000000, 0.000000)">
                            <g id="nurse">
                                <path d="M47.6928409,6.58493182 L46.5289773,6.58493182 L46.5289773,5.42086364 C46.5289773,4.57629545 45.8443636,3.89168182 44.9997955,3.89168182 C44.1552273,3.89168182 43.4706136,4.57629545 43.4706136,5.42086364 L43.4706136,6.58493182 L42.30675,6.58493182 C41.4621818,6.58493182 40.7775682,7.26954545 40.7775682,8.11411364 C40.7775682,8.95868182 41.4621818,9.64329545 42.30675,9.64329545 L43.4706136,9.64329545 L43.4706136,10.8071591 C43.4706136,11.6517273 44.1552273,12.3363409 44.9997955,12.3363409 C45.8443636,12.3363409 46.5289773,11.6517273 46.5289773,10.8071591 L46.5289773,9.64329545 L47.6928409,9.64329545 C48.5374091,9.64329545 49.2220227,8.95868182 49.2220227,8.11411364 C49.2220227,7.26954545 48.5374091,6.58493182 47.6928409,6.58493182 Z" id="Path"></path>
                                <path d="M89.7850227,99.4966364 L85.3159091,73.332 C84.8311364,70.4941364 82.8177955,68.2146818 80.0615455,67.3832045 L59.9995227,61.3300909 C59.1146591,61.0631591 58.1964545,61.1793409 57.4339091,61.5955909 C56.7208636,60.9606818 56.2009091,59.8749545 56.2009091,58.8696136 L56.2009091,53.8615227 C56.2526591,53.8169318 56.3046136,53.7723409 56.3561591,53.7279545 C56.4332727,53.6614773 56.5152955,53.5896818 56.5995682,53.5150227 L58.5646364,53.5150227 C61.29225,53.5150227 63.8224773,52.4198864 65.6891591,50.4312955 C67.5558409,48.4427045 68.4891818,45.8484545 68.31675,43.1263636 L67.77225,34.5229773 L67.77225,34.3941136 C67.77225,34.1592955 67.7544545,33.9287727 67.7202955,33.7031591 L67.1103409,24.0678409 C67.0569545,23.2249091 66.3283636,22.5852955 65.4876818,22.6380682 C64.64475,22.6914545 64.0047273,23.418 64.0581136,24.2609318 L64.4189318,29.9618182 C64.0200682,29.8489091 63.5997273,29.7869318 63.1650682,29.7869318 L63.0797727,29.7869318 C62.6303864,29.1049773 61.8848182,28.6343182 61.0079318,28.5553636 C45.1339773,27.1268182 40.5638182,22.3862727 37.2264545,18.9245455 C36.5328409,18.2051591 35.3951591,18.1501364 33.8453182,18.7611136 C31.15125,19.8229091 26.5651364,23.2543636 26.4649091,29.3815227 C26.4649091,29.3899091 26.4647045,29.3982955 26.4647045,29.4066818 L26.4647045,29.8016591 C26.16075,29.826 25.8653864,29.8808182 25.5806591,29.9614091 L26.0523409,22.5102273 C26.3033182,18.5463409 28.2988636,15.0128182 31.4822045,12.7654773 L31.5979773,13.068 C32.3656364,15.0739773 34.3245682,16.4217273 36.4725,16.4217273 L53.9263636,16.4217273 C56.0740909,16.4217273 58.0330227,15.0739773 58.8008864,13.068 L58.8276818,12.9980455 C60.48,14.2431136 61.8066818,15.858 62.7099545,17.7453409 C62.9727955,18.2941364 63.5199545,18.6146591 64.0904318,18.6146591 C64.31175,18.6146591 64.5365455,18.5661818 64.7494773,18.4643182 C65.5114091,18.0998182 65.8333636,17.1865227 65.4686591,16.4247955 C64.2244091,13.8252273 62.3325682,11.6429318 59.9567727,10.0476818 L61.0097727,7.29593182 C61.4100682,6.24988636 61.3300909,5.08704545 60.7907045,4.10563636 C60.2513182,3.12443182 59.3126591,2.43368182 58.2152727,2.21093182 L49.4386364,0.428522727 C46.6255227,-0.142977273 43.7731364,-0.142977273 40.9600227,0.428522727 L32.1835909,2.21052273 C31.0862045,2.43327273 30.1473409,3.12381818 29.6079545,4.10543182 C29.0685682,5.08704545 28.9885909,6.24968182 29.3890909,7.29572727 L30.3615,9.83638636 C26.0498864,12.5793409 23.3269773,17.15175 23.0001136,22.3167273 L22.2754091,33.7639091 C22.2469773,33.9702955 22.2273409,34.1793409 22.2273409,34.3935 L22.2273409,34.5223636 L21.6828409,43.12575 C21.5104091,45.8476364 22.44375,48.4420909 24.3104318,50.4306818 C26.1771136,52.4192727 28.7073409,53.5144091 31.4349545,53.5144091 L33.4000227,53.5144091 C33.4842955,53.5888636 33.5663182,53.6608636 33.6434318,53.7273409 C33.6949773,53.7717273 33.7469318,53.8163182 33.7986818,53.8609091 L33.7986818,58.869 C33.7986818,59.8743409 33.2787273,60.9602727 32.5656818,61.5949773 C31.8031364,61.1787273 30.8847273,61.0621364 30.0002727,61.3292727 L9.93804545,67.3825909 C7.182,68.2140682 5.16865909,70.4937273 4.68368182,73.3313864 L3.00497727,83.16 C2.86281818,83.9925 3.42245455,84.7826591 4.25495455,84.9248182 C5.08663636,85.0682045 5.87761364,84.5075455 6.01977273,83.6748409 L7.69847727,73.8462273 C7.98668182,72.15975 9.18327273,70.8048409 10.8212727,70.3106591 L30.8837045,64.2571364 C31.0150227,64.2176591 31.1547273,64.2777955 31.2167045,64.3997045 C31.2167045,64.3999091 31.2171136,64.4003182 31.2171136,64.4005227 L40.7957727,83.3246591 C41.0477727,83.8227273 41.3785227,84.2618864 41.7683864,84.6300682 C42.62625,85.4404773 43.7712955,85.9082727 44.9993864,85.9082727 C45.7809545,85.9082727 46.5287727,85.7188636 47.1904773,85.3721591 C48.0411818,84.9264545 48.7493182,84.2209773 49.2032045,83.3244545 L58.7822727,64.3997045 C58.8440455,64.2773864 58.9839545,64.2166364 59.1154773,64.2571364 L79.1777045,70.3104545 C80.8159091,70.8046364 82.0125,72.1595455 82.3005,73.8460227 L86.7696136,100.010455 C86.8663636,100.576023 86.6143636,100.976114 86.4554318,101.164295 C86.2965,101.352477 85.9446818,101.668295 85.3709318,101.668295 L75.8976136,101.668295 L73.3982727,87.03675 C73.2561136,86.20425 72.4665682,85.644 71.6334545,85.7867727 C70.8009545,85.9289318 70.2413182,86.7190909 70.3834773,87.5515909 L72.7948636,101.668091 L17.2045227,101.668091 L19.6159091,87.5515909 C19.7580682,86.7190909 19.1984318,85.9289318 18.3659318,85.7867727 C17.5338409,85.6444091 16.7432727,86.2040455 16.6011136,87.03675 L14.1017727,101.668295 L4.62825,101.668295 C4.0545,101.668295 3.70247727,101.352477 3.54375,101.164295 C3.38502273,100.976114 3.13302273,100.575818 3.22956818,100.010455 L4.78534091,90.90225 C4.9275,90.06975 4.36786364,89.2795909 3.53536364,89.1374318 C2.70327273,88.9946591 1.91270455,89.5549091 1.77054545,90.3874091 L0.214772727,99.4956136 C-0.00777272727,100.798977 0.353454545,102.126273 1.206,103.136727 C2.05854545,104.147182 3.30586364,104.726864 4.62825,104.726864 C4.62988636,104.726864 4.62825,104.726864 4.62988636,104.726864 L85.37175,104.726864 C86.6939318,104.726864 87.94125,104.147182 88.794,103.136727 C89.6463409,102.127091 90.0077727,100.799795 89.7850227,99.4966364 Z M32.2887273,5.57897727 C32.3507045,5.46627273 32.4985909,5.26806818 32.7925227,5.20834091 L41.5689545,3.42613636 C42.7737273,3.18170455 43.9864773,3.05938636 45.1996364,3.05938636 C46.4123864,3.05938636 47.62575,3.18170455 48.8301136,3.42613636 L57.60675,5.20834091 C57.60675,5.20834091 57.60675,5.20834091 57.6069545,5.20854545 C57.9006818,5.26806818 58.0485682,5.46627273 58.1105455,5.57897727 C58.1725227,5.69188636 58.2606818,5.92281818 58.1535,6.20304545 L55.9446136,11.9749091 C55.62675,12.8053636 54.8157273,13.3633636 53.9265682,13.3633636 L36.4727045,13.3633636 C35.5835455,13.3633636 34.7725227,12.8053636 34.4546591,11.9749091 L32.2457727,6.20304545 C32.1385909,5.92302273 32.22675,5.69188636 32.2887273,5.57897727 Z M65.2645227,43.3196591 C65.38275,45.1898182 64.7417045,46.9718182 63.4592045,48.3379773 C62.4178636,49.4474318 61.0758409,50.1520909 59.60475,50.3777045 C61.2861136,48.29625 62.937,45.5459318 63.4029545,42.4059545 C64.0370455,42.3736364 64.6361591,42.2097955 65.1775909,41.9455227 L65.2645227,43.3196591 Z M26.5405909,48.3379773 C25.2580909,46.9718182 24.6170455,45.1896136 24.7352727,43.3196591 L24.8222045,41.9457273 C25.3636364,42.21 25.96275,42.3736364 26.5968409,42.4061591 C27.0625909,45.5459318 28.7136818,48.29625 30.3950455,50.3779091 C28.9239545,50.1520909 27.5819318,49.4474318 26.5405909,48.3379773 Z M46.6666364,81.5649545 L46.4747727,81.9439773 C46.4475682,81.9977727 46.4156591,82.0476818 46.3839545,82.0971818 C46.3737273,82.1129318 46.3655455,82.1305227 46.3551136,82.1458636 C46.3358864,82.1738864 46.3131818,82.1980227 46.2925227,82.2246136 C46.2190909,82.3185 46.1393182,82.4060455 46.0495227,82.4802955 C46.0307045,82.4958409 46.0094318,82.5083182 45.99,82.5230455 C45.7120227,82.7320909 45.3714545,82.8505227 44.9997955,82.8505227 C44.3636591,82.8505227 43.8122045,82.5115909 43.5248182,81.9441818 L37.1740909,69.39675 L52.8259091,69.39675 L46.6666364,81.5649545 Z M54.3739091,66.3381818 L35.6258864,66.3381818 L34.4446364,64.0043182 C35.8856591,62.7989318 36.8574545,60.831 36.8574545,58.8694091 L36.8574545,56.2307727 C38.8593409,57.5181818 41.3644091,58.5167727 44.9830227,58.5572727 C44.98875,58.5572727 44.9942727,58.5572727 45,58.5572727 C45.0057273,58.5572727 45.01125,58.5572727 45.0169773,58.5572727 C48.6355909,58.5167727 51.1406591,57.5181818 53.1425455,56.2309773 L53.1425455,58.8696136 C53.1425455,60.8314091 54.1141364,62.7991364 55.5553636,64.0045227 L54.3739091,66.3381818 Z M54.3606136,51.41025 C51.5327727,53.8455682 49.3525227,55.4461364 45,55.4987045 C40.6476818,55.4461364 38.4674318,53.8453636 35.6393864,51.41025 C31.8851591,48.1778182 29.6003864,44.2300909 29.5277727,40.8499773 C29.5099773,40.0185 28.8306818,39.3535227 27.999,39.3535227 L26.8349318,39.3535227 C25.9809545,39.3535227 25.2863182,38.6588864 25.2863182,37.8049091 L25.2863182,34.3941136 C25.2863182,34.3227273 25.2928636,34.2531818 25.3022727,34.18425 C25.3065682,34.1609318 25.3098409,34.1374091 25.3131136,34.1138864 C25.4454545,33.3934773 26.0768864,32.8455 26.8351364,32.8455 L27.9945,32.8455 C28.8390682,32.8455 29.5236818,32.1608864 29.5236818,31.3163182 L29.5236818,29.4199773 C29.6153182,24.2439545 34.0208182,21.8252045 35.4160227,21.4498636 C39.9006818,26.0247273 45.4123636,30.1849773 60.4994318,31.5803864 C60.6244091,32.2989545 61.2513409,32.8455 62.0059091,32.8455 L63.1652727,32.8455 C63.9233182,32.8455 64.55475,33.3934773 64.6872955,34.1138864 C64.6905682,34.1376136 64.6938409,34.1611364 64.6981364,34.18425 C64.7075455,34.2529773 64.7140909,34.3227273 64.7140909,34.3941136 L64.7140909,37.8049091 C64.7140909,38.6586818 64.0194545,39.3535227 63.1654773,39.3535227 L62.0014091,39.3535227 C61.1695227,39.3535227 60.4904318,40.0182955 60.4726364,40.8499773 C60.3996136,44.2298864 58.1148409,48.1776136 54.3606136,51.41025 Z" id="Shape"></path>
                            </g>
                        </g>
                    </g>
                </g>
            </g>
        </g>
    </g>
</svg>