<?xml version="1.0" encoding="UTF-8"?>
<svg width="90px" height="97px" viewBox="0 0 90 97" version="1.1" xmlns="http://www.w3.org/2000/svg" xmlns:xlink="http://www.w3.org/1999/xlink">
    <!-- Generator: Sketch 57.1 (83088) - https://sketch.com -->
    <title>hospital</title>
    <desc>Created with Sketch.</desc>
    <g id="Page-1" stroke="none" stroke-width="1" fill="none" fill-rule="evenodd">
        <g id="1.-Euromedik---Home-v4" transform="translate(-1116.000000, -3851.000000)" fill="#FFFFFF" fill-rule="nonzero">
            <g id="Group-28" transform="translate(0.000000, 3680.000000)">
                <g id="Group-27">
                    <g id="Group-26" transform="translate(200.000000, 163.000000)">
                        <g id="Group-22" transform="translate(916.000000, 8.000000)">
                            <g id="hospital">
                                <path d="M70.7142857,41.7857143 L70.7142857,51.4285714 L83.5714286,51.4285714 L83.5714286,41.7857143 L70.7142857,41.7857143 Z M80.3571429,48.2142857 L73.9285714,48.2142857 L73.9285714,45 L80.3571429,45 L80.3571429,48.2142857 Z" id="Shape"></path>
                                <path d="M70.7142857,54.6428571 L70.7142857,64.2857143 L83.5714286,64.2857143 L83.5714286,54.6428571 L70.7142857,54.6428571 Z M80.3571429,61.0714286 L73.9285714,61.0714286 L73.9285714,57.8571429 L80.3571429,57.8571429 L80.3571429,61.0714286 Z" id="Shape"></path>
                                <path d="M70.7142857,67.5 L70.7142857,77.1428571 L83.5714286,77.1428571 L83.5714286,67.5 L70.7142857,67.5 Z M80.3571429,73.9285714 L73.9285714,73.9285714 L73.9285714,70.7142857 L80.3571429,70.7142857 L80.3571429,73.9285714 Z" id="Shape"></path>
                                <path d="M70.7142857,80.3571429 L70.7142857,90 L83.5714286,90 L83.5714286,80.3571429 L70.7142857,80.3571429 Z M80.3571429,86.7857143 L73.9285714,86.7857143 L73.9285714,83.5714286 L80.3571429,83.5714286 L80.3571429,86.7857143 Z" id="Shape"></path>
                                <path d="M51.4285714,16.0714286 L51.4285714,6.42857143 L38.5714286,6.42857143 L38.5714286,16.0714286 L28.9285714,16.0714286 L28.9285714,28.9285714 L38.5714286,28.9285714 L38.5714286,38.5714286 L51.4285714,38.5714286 L51.4285714,28.9285714 L61.0714286,28.9285714 L61.0714286,16.0714286 L51.4285714,16.0714286 Z M57.8571429,25.7142857 L48.2142857,25.7142857 L48.2142857,35.3571429 L41.7857143,35.3571429 L41.7857143,25.7142857 L32.1428571,25.7142857 L32.1428571,19.2857143 L41.7857143,19.2857143 L41.7857143,9.64285714 L48.2142857,9.64285714 L48.2142857,19.2857143 L57.8571429,19.2857143 L57.8571429,25.7142857 Z" id="Shape"></path>
                                <path d="M67.5,35.3571429 L67.5,0 L22.5,0 L22.5,35.3571429 L0,35.3571429 L0,96.4285714 L90,96.4285714 L90,35.3571429 L67.5,35.3571429 Z M22.5,93.2142857 L3.21428571,93.2142857 L3.21428571,38.5714286 L22.5,38.5714286 L22.5,93.2142857 Z M43.3928571,93.2142857 L35.3571429,93.2142857 L35.3571429,64.2857143 L43.3928571,64.2857143 L43.3928571,93.2142857 Z M54.6428571,93.2142857 L46.6071429,93.2142857 L46.6071429,64.2857143 L54.6428571,64.2857143 L54.6428571,93.2142857 Z M64.2857143,93.2142857 L57.8571429,93.2142857 L57.8571429,61.0714286 L32.1428571,61.0714286 L32.1428571,93.2142857 L25.7142857,93.2142857 L25.7142857,3.21428571 L64.2857143,3.21428571 L64.2857143,93.2142857 Z M86.7857143,93.2142857 L67.5,93.2142857 L67.5,38.5714286 L86.7857143,38.5714286 L86.7857143,93.2142857 Z" id="Shape"></path>
                                <path d="M6.42857143,41.7857143 L6.42857143,51.4285714 L19.2857143,51.4285714 L19.2857143,41.7857143 L6.42857143,41.7857143 Z M16.0714286,48.2142857 L9.64285714,48.2142857 L9.64285714,45 L16.0714286,45 L16.0714286,48.2142857 Z" id="Shape"></path>
                                <path d="M6.42857143,54.6428571 L6.42857143,64.2857143 L19.2857143,64.2857143 L19.2857143,54.6428571 L6.42857143,54.6428571 Z M16.0714286,61.0714286 L9.64285714,61.0714286 L9.64285714,57.8571429 L16.0714286,57.8571429 L16.0714286,61.0714286 Z" id="Shape"></path>
                                <path d="M6.42857143,67.5 L6.42857143,77.1428571 L19.2857143,77.1428571 L19.2857143,67.5 L6.42857143,67.5 Z M16.0714286,73.9285714 L9.64285714,73.9285714 L9.64285714,70.7142857 L16.0714286,70.7142857 L16.0714286,73.9285714 Z" id="Shape"></path>
                                <path d="M6.42857143,80.3571429 L6.42857143,90 L19.2857143,90 L19.2857143,80.3571429 L6.42857143,80.3571429 Z M16.0714286,86.7857143 L9.64285714,86.7857143 L9.64285714,83.5714286 L16.0714286,83.5714286 L16.0714286,86.7857143 Z" id="Shape"></path>
                            </g>
                        </g>
                    </g>
                </g>
            </g>
        </g>
    </g>
</svg>