<?xml version="1.0" encoding="UTF-8"?>
<svg width="98px" height="98px" viewBox="0 0 98 98" version="1.1" xmlns="http://www.w3.org/2000/svg" xmlns:xlink="http://www.w3.org/1999/xlink">
    <!-- Generator: Sketch 57.1 (83088) - https://sketch.com -->
    <title>patient</title>
    <desc>Created with Sketch.</desc>
    <g id="Page-1" stroke="none" stroke-width="1" fill="none" fill-rule="evenodd">
        <g id="1.-Euromedik---Home-v4" transform="translate(-1502.000000, -3850.000000)" fill="#FFFFFF" fill-rule="nonzero">
            <g id="Group-28" transform="translate(0.000000, 3680.000000)">
                <g id="Group-27">
                    <g id="Group-26" transform="translate(200.000000, 163.000000)">
                        <g id="Group-2" transform="translate(1302.000000, 7.000000)">
                            <g id="patient">
                                <polygon id="Path" points="39.516129 25.2903226 42.6774194 25.2903226 42.6774194 28.4516129 39.516129 28.4516129"></polygon>
                                <polygon id="Path" points="26.8709677 25.2903226 30.0322581 25.2903226 30.0322581 28.4516129 26.8709677 28.4516129"></polygon>
                                <polygon id="Path" points="83.7741935 52.1612903 86.9354839 52.1612903 86.9354839 55.3225806 83.7741935 55.3225806"></polygon>
                                <polygon id="Path" points="83.7741935 58.483871 86.9354839 58.483871 86.9354839 61.6451613 83.7741935 61.6451613"></polygon>
                                <path d="M83.7741935,77.4516129 C83.7741935,78.3222026 83.0656816,79.0322581 82.1935484,79.0322581 L69.5483871,79.0322581 L69.5483871,7.90322581 C69.5483871,6.15973092 68.1305917,4.74193548 66.3870968,4.74193548 L63.2065115,4.74193548 C63.103862,2.11164315 60.9466829,0 58.2924647,0 C56.9935263,0 55.7223728,0.526367089 54.8039315,1.44480847 L53.4146925,2.83404738 C49.3287864,0.977097935 44.8369142,0 40.3504441,0 L29.1963993,0 C24.7099294,0 20.218057,0.977097935 16.1321511,2.83404738 L14.7429121,1.44480847 C13.8260143,0.526367089 12.5548608,0 11.2559224,0 C8.60170421,0 6.44606855,2.11164315 6.34187558,4.74193548 L3.16129032,4.74193548 C1.41779544,4.74193548 0,6.15973092 0,7.90322581 L0,98 L69.5483871,98 L69.5483871,82.1935484 L82.1935484,82.1935484 C84.807633,82.1935484 86.9354839,80.0656975 86.9354839,77.4516129 L86.9354839,64.8064516 L83.7741935,64.8064516 L83.7741935,77.4516129 Z M66.3870968,79.0322581 L49,79.0322581 C48.1278668,79.0322581 47.4193548,78.3222026 47.4193548,77.4516129 L47.4193548,75.8709677 L55.3225806,75.8709677 C57.9366652,75.8709677 60.0645161,73.7431169 60.0645161,71.1290323 L60.0645161,58.483871 L66.3870968,58.483871 L66.3870968,79.0322581 Z M47.4193548,67.9677419 L52.1612903,67.9677419 L52.1612903,55.3225806 L17.3870968,55.3225806 L17.3870968,67.9677419 L27.6612903,67.9677419 C28.9687186,67.9677419 30.0322581,69.0312814 30.0322581,70.3387097 C30.0322581,71.646138 28.9687186,72.7096774 27.6612903,72.7096774 L14.2258065,72.7096774 C13.3536732,72.7096774 12.6451613,71.999622 12.6451613,71.1290323 L12.6451613,55.8566658 C12.6451613,53.5636498 14.2829195,51.6017358 16.5381174,51.1911385 L27.7469601,49.1535881 C28.7502993,50.3514208 30.9067067,52.1612903 34.7741935,52.1612903 C38.6416804,52.1612903 40.7980878,50.3514208 41.801427,49.1535881 L53.0102697,51.1911385 C55.2654676,51.6017358 56.9032258,53.5651935 56.9032258,55.8566658 L56.9032258,71.1290323 C56.9032258,71.999622 56.1947139,72.7096774 55.3225806,72.7096774 L47.4193548,72.7096774 L47.4193548,67.9677419 Z M44.2580645,72.7096774 L41.8870968,72.7096774 C40.5796685,72.7096774 39.516129,71.646138 39.516129,70.3387097 C39.516129,69.0312814 40.5796685,67.9677419 41.8870968,67.9677419 L44.2580645,67.9677419 L44.2580645,72.7096774 Z M45.8387097,18.9677419 L23.7366904,18.9677419 C24.0129945,13.693265 28.3775202,9.48387097 33.7199155,9.48387097 C36.854193,9.48387097 39.8495464,10.98039 41.7273343,13.4879662 L42.4072895,14.3932869 C42.9382875,15.1002551 43.6352224,15.6814202 44.4240014,16.0765815 C45.2969064,16.5126481 45.8387097,17.3886403 45.8387097,18.3641947 L45.8387097,18.9677419 Z M23.7096774,22.1290323 L45.8387097,22.1290323 L45.8387097,31.6129032 L23.7096774,31.6129032 L23.7096774,22.1290323 Z M45.3725428,34.7741935 C44.0080015,39.339387 39.7754536,42.6774194 34.7741935,42.6774194 C29.7729335,42.6774194 25.5403856,39.339387 24.1758443,34.7741935 L45.3725428,34.7741935 Z M30.0322581,45.0090253 C31.5179719,45.5369361 33.1094223,45.8387097 34.7741935,45.8387097 C36.4389648,45.8387097 38.0304152,45.5369361 39.516129,45.0090253 L39.516129,46.9547317 C39.0800624,47.5521043 37.7286416,49 34.7741935,49 C31.8197455,49 30.4683247,47.5521043 30.0322581,46.9547317 L30.0322581,45.0090253 Z M66.3870968,55.3225806 L60.0174364,55.3225806 C59.7735478,51.7375725 57.156376,48.7329575 53.5759986,48.0815586 L42.6774194,46.1011215 L42.6774194,44.214072 C46.395177,44.0033708 50.0751165,43.0548292 53.4270413,41.4379094 L54.8039315,42.8147995 C55.7223728,43.7316974 56.9935263,44.2580645 58.2924647,44.2580645 C61.0130575,44.2580645 63.2258065,42.0453156 63.2258065,39.3247228 L63.2258065,7.90322581 L66.3870968,7.90322581 L66.3870968,55.3225806 Z M9.48387097,4.93334173 C9.48387097,3.9562438 10.2788244,3.16129032 11.2559224,3.16129032 C11.7220892,3.16129032 12.1789945,3.35115307 12.5093246,3.67993952 L15.4954164,6.66525958 L16.5149636,6.15664373 C20.4310736,4.19627326 24.8179814,3.16129032 29.197943,3.16129032 L40.3519878,3.16129032 C44.7319494,3.16129032 49.118857,4.19627326 53.035739,6.15664373 L54.0552861,6.66525958 L57.040606,3.67993952 C57.3693926,3.35115307 57.8262979,3.16129032 58.2924647,3.16129032 C59.2695627,3.16129032 60.0645161,3.9562438 60.0645161,4.93334173 L60.0645161,39.3247228 C60.0645161,40.3018207 59.2695627,41.0967742 58.2924647,41.0967742 C57.8262979,41.0967742 57.3693926,40.9069114 57.0390625,40.578125 L54.0529707,37.5928049 L52.3681326,38.4348381 C50.292764,39.47368 48.0607202,40.1798765 45.7800529,40.6128559 C47.7905903,38.1600775 49,35.0258002 49,31.6129032 L49,18.3641947 C49,16.1838615 47.7875031,14.224263 45.8387097,13.2487085 C45.4844537,13.0719663 45.1734185,12.8126417 44.9380197,12.4962041 L44.2580645,11.5908832 C41.7844475,8.2922127 37.8436397,6.32258065 33.7199155,6.32258065 C26.4565115,6.32258065 20.5483871,12.2307051 20.5483871,19.494109 L20.5483871,31.6129032 C20.5483871,35.0258002 21.7577968,38.1600775 23.7698779,40.6143996 C21.4876669,40.1814202 19.2571668,39.4752237 17.1817982,38.4363816 L15.4969601,37.5943486 L12.5108681,40.5796685 C12.1789945,40.9069114 11.7220892,41.0967742 11.2559224,41.0967742 C10.2788244,41.0967742 9.48387097,40.3018207 9.48387097,39.3247228 L9.48387097,4.93334173 Z M3.16129032,7.90322581 L6.32258065,7.90322581 L6.32258065,39.3247228 C6.32258065,42.0453156 8.53532956,44.2580645 11.2559224,44.2580645 C12.5548608,44.2580645 13.8260143,43.7316974 14.7444556,42.813256 L16.1213458,41.4363659 C19.4732706,43.0532857 23.1532101,44.0018271 26.8709677,44.2125283 L26.8709677,46.0995778 L15.9723885,48.0800151 C12.3920111,48.7329575 9.77483929,51.7375725 9.53095068,55.3225806 L3.16129032,55.3225806 L3.16129032,7.90322581 Z M66.3870968,94.8387097 L3.16129032,94.8387097 L3.16129032,58.483871 L9.48387097,58.483871 L9.48387097,71.1290323 C9.48387097,73.7431169 11.6117219,75.8709677 14.2258065,75.8709677 L27.6612903,75.8709677 C30.7122133,75.8709677 33.1935484,73.3896326 33.1935484,70.3387097 C33.1935484,67.2877867 30.7122133,64.8064516 27.6612903,64.8064516 L20.5483871,64.8064516 L20.5483871,58.483871 L49,58.483871 L49,64.8064516 L41.8870968,64.8064516 C38.8361738,64.8064516 36.3548387,67.2877867 36.3548387,70.3387097 C36.3548387,73.3896326 38.8361738,75.8709677 41.8870968,75.8709677 L44.2580645,75.8709677 L44.2580645,77.4516129 C44.2580645,80.0656975 46.3859154,82.1935484 49,82.1935484 L66.3870968,82.1935484 L66.3870968,94.8387097 Z" id="Shape"></path>
                                <path d="M93.2580645,0 L77.4516129,0 C74.8375283,0 72.7096774,2.12785088 72.7096774,4.74193548 L72.7096774,28.3412455 C72.7096774,29.8995086 73.4683563,31.3489477 74.7472278,32.2357454 L80.6129032,37.0980816 L80.6129032,44.2580645 L83.7741935,44.2580645 L83.7741935,49 L86.9354839,49 L86.9354839,44.2580645 L90.0967742,44.2580645 L90.0967742,37.0980816 L95.9624496,32.2357454 C97.2413211,31.3489477 98,29.8995086 98,28.3412455 L98,4.74193548 C98,2.12785088 95.8721491,0 93.2580645,0 Z M75.8709677,4.74193548 C75.8709677,3.87134577 76.5794797,3.16129032 77.4516129,3.16129032 L93.2580645,3.16129032 C94.1301977,3.16129032 94.8387097,3.87134577 94.8387097,4.74193548 L94.8387097,28.3412455 C94.8387097,28.3790637 94.8279044,28.4153383 94.8248174,28.4516129 L86.9354839,28.4516129 L86.9354839,31.6129032 L91.7692635,31.6129032 L87.9473129,34.7741935 L82.7623645,34.7741935 L78.948132,31.6129032 L83.7741935,31.6129032 L83.7741935,28.4516129 L75.88486,28.4516129 C75.881773,28.4137948 75.8709677,28.3790637 75.8709677,28.3412455 L75.8709677,4.74193548 Z M83.7741935,41.0967742 L83.7741935,37.9354839 L86.9354839,37.9354839 L86.9354839,41.0967742 L83.7741935,41.0967742 Z" id="Shape"></path>
                                <polygon id="Path" points="83.7741935 22.1290323 86.9354839 22.1290323 86.9354839 18.9677419 90.0967742 18.9677419 90.0967742 15.8064516 86.9354839 15.8064516 86.9354839 12.6451613 83.7741935 12.6451613 83.7741935 15.8064516 80.6129032 15.8064516 80.6129032 18.9677419 83.7741935 18.9677419"></polygon>
                            </g>
                        </g>
                    </g>
                </g>
            </g>
        </g>
    </g>
</svg>