<?xml version="1.0" encoding="UTF-8"?>
<svg width="151px" height="151px" viewBox="0 0 151 151" version="1.1" xmlns="http://www.w3.org/2000/svg" xmlns:xlink="http://www.w3.org/1999/xlink">
    <!-- Generator: Sketch 57.1 (83088) - https://sketch.com -->
    <title>Group 4</title>
    <desc>Created with Sketch.</desc>
    <defs>
        <rect id="path-1" x="0" y="0" width="154" height="159"></rect>
    </defs>
    <g id="Dizajn" stroke="none" stroke-width="1" fill="none" fill-rule="evenodd">
        <g id="1.-Euromedik---Pocetna" transform="translate(-1569.000000, -3950.000000)">
            <g id="izdvojene" transform="translate(0.000000, 3659.000000)">
                <g transform="translate(200.000000, 100.000000)" id="item">
                    <g transform="translate(1040.000000, 191.000000)">
                        <g id="Group-4" transform="translate(326.000000, 0.000000)">
                            <mask id="mask-2" fill="white">
                                <use xlink:href="#path-1"></use>
                            </mask>
                            <g id="Mask"></g>
                            <g mask="url(#mask-2)">
                                <g transform="translate(-16.000000, -63.000000)">
                                    <rect id="Rectangle" fill="#D71920" fill-rule="evenodd" transform="translate(121.000000, 121.000000) rotate(-45.000000) translate(-121.000000, -121.000000) " x="90" y="-18" width="62" height="278"></rect>
                                    <path d="M84.798,110.14 L84.528,109.06 C84.3599992,108.471997 84.1980008,107.848003 84.042,107.188 C83.8859992,106.527997 83.7300008,105.892003 83.574,105.28 L83.502,105.28 C83.3579993,105.904003 83.2110008,106.542997 83.061,107.197 C82.9109993,107.851003 82.7520008,108.471997 82.584,109.06 L82.296,110.14 L84.798,110.14 Z M85.338,112.21 L81.756,112.21 L81.036,115 L78.336,115 L82.008,103.264 L85.194,103.264 L88.866,115 L86.058,115 L85.338,112.21 Z M90.144,103.264 L92.79,103.264 L92.79,108.07 L92.862,108.07 L96.354,103.264 L99.27,103.264 L95.724,107.944 L99.918,115 L97.02,115 L94.158,110.05 L92.79,111.85 L92.79,115 L90.144,115 L90.144,103.264 Z M100.134,109.204 C100.134,108.231995 100.283998,107.365004 100.584,106.603 C100.884002,105.840996 101.288997,105.196003 101.799,104.668 C102.309003,104.139997 102.902997,103.738001 103.581,103.462 C104.259003,103.185999 104.975996,103.048 105.732,103.048 C106.464004,103.048 107.126997,103.200998 107.721,103.507 C108.315003,103.813002 108.809998,104.169998 109.206,104.578 L107.748,106.216 C107.447999,105.939999 107.145002,105.724001 106.839,105.568 C106.532998,105.411999 106.176002,105.334 105.768,105.334 C105.359998,105.334 104.979002,105.420999 104.625,105.595 C104.270998,105.769001 103.962001,106.017998 103.698,106.342 C103.433999,106.666002 103.227001,107.061998 103.077,107.53 C102.926999,107.998002 102.852,108.525997 102.852,109.114 C102.852,110.326006 103.109997,111.264997 103.626,111.931 C104.142003,112.597003 104.831996,112.93 105.696,112.93 C106.176002,112.93 106.595998,112.834001 106.956,112.642 C107.316002,112.449999 107.639999,112.198002 107.928,111.886 L109.386,113.488 C108.893998,114.064003 108.333003,114.495999 107.703,114.784 C107.072997,115.072001 106.392004,115.216 105.66,115.216 C104.903996,115.216 104.190003,115.087001 103.518,114.829 C102.845997,114.570999 102.258003,114.190003 101.754,113.686 C101.249997,113.181997 100.854001,112.555004 100.566,111.805 C100.277999,111.054996 100.134,110.188005 100.134,109.204 Z M111.168,103.264 L113.814,103.264 L113.814,115 L111.168,115 L111.168,103.264 Z M117.288,111.76 C117.504001,112.156002 117.755999,112.449999 118.044,112.642 C118.332001,112.834001 118.625999,112.93 118.926,112.93 C119.406002,112.93 119.768999,112.783001 120.015,112.489 C120.261001,112.194999 120.384,111.658004 120.384,110.878 L120.384,103.264 L123.03,103.264 L123.03,111.094 C123.03,111.658003 122.955001,112.191997 122.805,112.696 C122.654999,113.200003 122.427002,113.637998 122.121,114.01 C121.814998,114.382002 121.425002,114.675999 120.951,114.892 C120.476998,115.108001 119.916003,115.216 119.268,115.216 C118.367996,115.216 117.615003,115.042002 117.009,114.694 C116.402997,114.345998 115.896002,113.812004 115.488,113.092 L117.288,111.76 Z M126.504,111.706 C126.924002,112.066002 127.388997,112.359999 127.899,112.588 C128.409003,112.816001 128.909998,112.93 129.402,112.93 C129.954003,112.93 130.364999,112.828001 130.635,112.624 C130.905001,112.419999 131.04,112.144002 131.04,111.796 C131.04,111.615999 131.001,111.460001 130.923,111.328 C130.845,111.195999 130.731001,111.079001 130.581,110.977 C130.430999,110.874999 130.251001,110.779 130.041,110.689 L129.348,110.392 L127.818,109.744 C127.517999,109.623999 127.227001,109.468001 126.945,109.276 C126.662999,109.083999 126.411001,108.859001 126.189,108.601 C125.966999,108.342999 125.790001,108.043002 125.658,107.701 C125.525999,107.358998 125.46,106.972002 125.46,106.54 C125.46,106.059998 125.561999,105.607002 125.766,105.181 C125.970001,104.754998 126.257998,104.383002 126.63,104.065 C127.002002,103.746998 127.442997,103.498001 127.953,103.318 C128.463003,103.137999 129.023997,103.048 129.636,103.048 C130.320003,103.048 130.994997,103.179999 131.661,103.444 C132.327003,103.708001 132.911997,104.091997 133.416,104.596 L132.066,106.27 C131.681998,105.969999 131.298002,105.739001 130.914,105.577 C130.529998,105.414999 130.104002,105.334 129.636,105.334 C129.179998,105.334 128.817001,105.426999 128.547,105.613 C128.276999,105.799001 128.142,106.059998 128.142,106.396 C128.142,106.576001 128.187,106.728999 128.277,106.855 C128.367,106.981001 128.492999,107.094999 128.655,107.197 C128.817001,107.299001 129.005999,107.395 129.222,107.485 C129.438001,107.575 129.671999,107.673999 129.924,107.782 L131.436,108.394 C132.156004,108.682001 132.722998,109.077997 133.137,109.582 C133.551002,110.086003 133.758,110.751996 133.758,111.58 C133.758,112.072002 133.659001,112.536998 133.461,112.975 C133.262999,113.413002 132.975002,113.796998 132.597,114.127 C132.218998,114.457002 131.754003,114.720999 131.202,114.919 C130.649997,115.117001 130.026003,115.216 129.33,115.216 C128.561996,115.216 127.797004,115.075001 127.035,114.793 C126.272996,114.510999 125.592003,114.088003 124.992,113.524 L126.504,111.706 Z M135.756,103.264 L138.402,103.264 L138.402,108.07 L138.474,108.07 L141.966,103.264 L144.882,103.264 L141.336,107.944 L145.53,115 L142.632,115 L139.77,110.05 L138.402,111.85 L138.402,115 L135.756,115 L135.756,103.264 Z M151.596,110.14 L151.326,109.06 C151.157999,108.471997 150.996001,107.848003 150.84,107.188 C150.683999,106.527997 150.528001,105.892003 150.372,105.28 L150.3,105.28 C150.155999,105.904003 150.009001,106.542997 149.859,107.197 C149.708999,107.851003 149.550001,108.471997 149.382,109.06 L149.094,110.14 L151.596,110.14 Z M152.136,112.21 L148.554,112.21 L147.834,115 L145.134,115 L148.806,103.264 L151.992,103.264 L155.664,115 L152.856,115 L152.136,112.21 Z M96.516,127.204 C96.516,126.231995 96.6659985,125.365004 96.966,124.603 C97.2660015,123.840996 97.6709975,123.196003 98.181,122.668 C98.6910025,122.139997 99.2849966,121.738001 99.963,121.462 C100.641003,121.185999 101.357996,121.048 102.114,121.048 C102.846004,121.048 103.508997,121.200998 104.103,121.507 C104.697003,121.813002 105.191998,122.169998 105.588,122.578 L104.13,124.216 C103.829998,123.939999 103.527002,123.724001 103.221,123.568 C102.914998,123.411999 102.558002,123.334 102.15,123.334 C101.741998,123.334 101.361002,123.420999 101.007,123.595 C100.652998,123.769001 100.344001,124.017998 100.08,124.342 C99.8159987,124.666002 99.6090007,125.061998 99.459,125.53 C99.3089992,125.998002 99.234,126.525997 99.234,127.114 C99.234,128.326006 99.4919974,129.264997 100.008,129.931 C100.524003,130.597003 101.213996,130.93 102.078,130.93 C102.558002,130.93 102.977998,130.834001 103.338,130.642 C103.698002,130.449999 104.021999,130.198002 104.31,129.886 L105.768,131.488 C105.275998,132.064003 104.715003,132.495999 104.085,132.784 C103.454997,133.072001 102.774004,133.216 102.042,133.216 C101.285996,133.216 100.572003,133.087001 99.9,132.829 C99.2279966,132.570999 98.6400025,132.190003 98.136,131.686 C97.6319975,131.181997 97.2360014,130.555004 96.948,129.805 C96.6599986,129.054996 96.516,128.188005 96.516,127.204 Z M107.55,121.264 L114.894,121.264 L114.894,123.496 L110.196,123.496 L110.196,125.854 L114.192,125.854 L114.192,128.068 L110.196,128.068 L110.196,130.768 L115.074,130.768 L115.074,133 L107.55,133 L107.55,121.264 Z M117.414,121.264 L120.132,121.264 L123.192,127.096 L124.344,129.688 L124.416,129.688 C124.356,129.063997 124.287,128.368004 124.209,127.6 C124.131,126.831996 124.092,126.100003 124.092,125.404 L124.092,121.264 L126.612,121.264 L126.612,133 L123.894,133 L120.834,127.15 L119.682,124.594 L119.61,124.594 C119.67,125.242003 119.739,125.937996 119.817,126.682 C119.895,127.426004 119.934,128.145997 119.934,128.842 L119.934,133 L117.414,133 L117.414,121.264 Z M134.352,128.14 L134.082,127.06 C133.913999,126.471997 133.752001,125.848003 133.596,125.188 C133.439999,124.527997 133.284001,123.892003 133.128,123.28 L133.056,123.28 C132.911999,123.904003 132.765001,124.542997 132.615,125.197 C132.464999,125.851003 132.306001,126.471997 132.138,127.06 L131.85,128.14 L134.352,128.14 Z M134.892,130.21 L131.31,130.21 L130.59,133 L127.89,133 L131.562,121.264 L134.748,121.264 L138.42,133 L135.612,133 L134.892,130.21 Z" id="AKCIJSKACENA" fill="#FFFFFF" fill-rule="nonzero" transform="translate(117.000000, 118.132000) rotate(45.000000) translate(-117.000000, -118.132000) "></path>
                                </g>
                            </g>
                        </g>
                    </g>
                </g>
            </g>
        </g>
    </g>
</svg>