<?xml version="1.0" encoding="UTF-8"?>
<svg width="59px" height="48px" viewBox="0 0 59 48" version="1.1" xmlns="http://www.w3.org/2000/svg" xmlns:xlink="http://www.w3.org/1999/xlink">
    <!-- Generator: Sketch 59.1 (86144) - https://sketch.com -->
    <title>stomach</title>
    <desc>Created with Sketch.</desc>
    <g id="Dizajn" stroke="none" stroke-width="1" fill="none" fill-rule="evenodd">
        <g id="3.-Euromedik---Usluge" transform="translate(-350.000000, -2068.000000)" fill="#E12630" fill-rule="nonzero">
            <g id="Group" transform="translate(0.000000, 906.000000)">
                <g id="item" transform="translate(200.000000, 1066.000000)">
                    <g id="content" transform="translate(25.000000, 60.000000)">
                        <g id="icon" transform="translate(95.000000, 0.000000)">
                            <g id="stomach" transform="translate(30.000000, 35.000000)">
                                <path d="M51.525,6.703 C47.048,2.411 42.577,0.522 38.237,1.09 C32.946,1.782 29.534,5.913 28.416,7.479 C23.447,6.308 22.437,2.075 22.393,1.878 C22.275,1.34 21.744,0.992 21.206,1.114 C20.666,1.229 20.322,1.761 20.438,2.302 C20.491,2.55 21.821,8.394 28.703,9.577 L29.372,9.69 L29.726,9.113 C29.759,9.059 33.054,3.776 38.511,3.071 C42.216,2.59 46.129,4.3 50.141,8.146 C58.189,15.863 58.047,25.785 55.231,32.498 C51.7,40.915 43.852,46.216 35.196,45.925 L35.11,45.923 L35.027,45.935 C34.955,45.947 27.655,46.887 19.18,41.817 L18.423,41.378 L17.878,42.062 C17.85,42.097 17.176,42.926 15.968,42.994 C14.748,43.078 13.294,42.306 11.791,40.804 C10.794,39.807 9.401,39.511 8.152,40.025 C7.204,40.416 5,41.883 5,47.016 C5,47.569 5.448,48.016 6,48.016 C6.552,48.016 7,47.569 7,47.016 C7,43.808 7.99,42.255 8.917,41.871 C9.417,41.661 9.949,41.79 10.376,42.216 C12.339,44.18 14.265,45.107 16.134,44.987 C17.356,44.904 18.26,44.37 18.815,43.92 C25.069,47.477 30.581,48.022 33.376,48.022 C34.339,48.022 34.98,47.957 35.216,47.928 C44.639,48.14 53.232,42.433 57.075,33.273 C60.997,23.926 58.87,13.745 51.525,6.703 Z" id="Path"></path>
                                <path d="M6.405,35.086 C10.998,32.352 17.871,36.016 17.939,36.054 L18.651,36.44 L19.176,35.825 C22.101,32.403 26.581,33.815 26.766,33.874 L27.927,34.262 L28.075,33.047 C28.412,30.285 32.308,28.795 32.348,28.78 L33,28.535 L33,21.721 L32.443,21.446 C29.667,20.073 29.501,16.428 29.499,16.395 L29.474,15.589 L28.682,15.442 C16.981,13.272 15.299,5.09 15.233,4.742 C15.132,4.202 14.617,3.836 14.071,3.941 C13.528,4.04 13.167,4.56 13.266,5.103 C13.338,5.498 15.136,14.621 27.583,17.261 C27.79,18.627 28.51,21.384 31,22.928 L31,27.184 C29.778,27.761 27.208,29.233 26.343,31.718 C24.588,31.396 21.004,31.186 18.194,33.947 C16.14,32.987 10.053,30.591 5.388,33.362 C1.813,35.487 0,40.081 0,47.016 C0,47.569 0.448,48.016 1,48.016 C1.552,48.016 2,47.569 2,47.016 C2,40.84 3.482,36.826 6.405,35.086 Z" id="Path"></path>
                            </g>
                        </g>
                    </g>
                </g>
            </g>
        </g>
    </g>
</svg>