<?xml version="1.0" encoding="UTF-8"?>
<svg width="59px" height="65px" viewBox="0 0 59 65" version="1.1" xmlns="http://www.w3.org/2000/svg" xmlns:xlink="http://www.w3.org/1999/xlink">
    <!-- Generator: Sketch 59.1 (86144) - https://sketch.com -->
    <title>blood</title>
    <desc>Created with Sketch.</desc>
    <g id="Dizajn" stroke="none" stroke-width="1" fill="none" fill-rule="evenodd">
        <g id="3.-Euromedik---Usluge" transform="translate(-736.000000, -2593.000000)" fill="#E12630" fill-rule="nonzero">
            <g id="Group" transform="translate(0.000000, 906.000000)">
                <g id="item" transform="translate(586.000000, 1599.000000)">
                    <g id="content" transform="translate(25.000000, 60.000000)">
                        <g id="icon" transform="translate(95.000000, 0.000000)">
                            <g id="blood" transform="translate(30.000000, 28.000000)">
                                <path d="M51.4680851,42.3042553 C51.4680851,35.3205619 47.2490359,27.8680851 40.7978723,27.8680851 C34.2300034,27.8680851 30.1276596,35.4951296 30.1276596,42.3042553 C30.1276596,49.2879487 34.3467088,56.7404255 40.7978723,56.7404255 C47.3657413,56.7404255 51.4680851,49.113381 51.4680851,42.3042553 Z M40.7978723,54.2297872 C35.7819897,54.2297872 32.6382979,47.6962434 32.6382979,42.3042553 C32.6382979,36.9720912 35.7471742,30.3787234 40.7978723,30.3787234 C45.813755,30.3787234 48.9574468,36.9122673 48.9574468,42.3042553 C48.9574468,47.6364195 45.8485705,54.2297872 40.7978723,54.2297872 Z" id="Shape"></path>
                                <path d="M25.106383,16.3191489 C25.106383,8.2174369 20.1973986,0 12.5531915,0 C4.85651596,0 0,8.29197147 0,16.3191489 C0,24.420861 4.90898441,32.6382979 12.5531915,32.6382979 C20.249867,32.6382979 25.106383,24.3463264 25.106383,16.3191489 Z M12.5531915,30.1276596 C7.01556685,30.1276596 2.5106383,23.9329538 2.5106383,16.3191489 C2.5106383,8.70534405 7.01556685,2.5106383 12.5531915,2.5106383 C18.0908161,2.5106383 22.5957447,8.70534405 22.5957447,16.3191489 C22.5957447,23.9329538 18.0908161,30.1276596 12.5531915,30.1276596 Z" id="Shape"></path>
                                <path d="M12.5531915,7.53191489 C9.33839761,7.53191489 7.53191489,12.9356715 7.53191489,16.3191489 C7.53191489,19.6535904 9.31633148,25.106383 12.5531915,25.106383 C15.7679854,25.106383 17.5744681,19.7026263 17.5744681,16.3191489 C17.5744681,12.9847074 15.7900515,7.53191489 12.5531915,7.53191489 Z M12.5531915,22.5878989 C11.5886552,22.2456284 10.0425532,19.7050781 10.0425532,16.3191489 C10.0425532,12.8606466 11.6322971,10.376978 12.5531915,10.0503989 C13.5177278,10.3926695 15.0638298,12.9332198 15.0638298,16.3191489 C15.0638298,19.7776512 13.4740858,22.2613199 12.5531915,22.5878989 Z" id="Shape"></path>
                                <path d="M40.1702128,6.90425532 C40.1702128,3.03287065 37.9645779,0 35.1489362,0 C32.3332945,0 30.1276596,3.03287065 30.1276596,6.90425532 C30.1276596,10.77564 32.3332945,13.8085106 35.1489362,13.8085106 C37.9645779,13.8085106 40.1702128,10.77564 40.1702128,6.90425532 Z M32.6382979,6.90425532 C32.6382979,4.31515957 33.9612865,2.5106383 35.1489362,2.5106383 C36.3365858,2.5106383 37.6595745,4.31515957 37.6595745,6.90425532 C37.6595745,9.49335106 36.3365858,11.2978723 35.1489362,11.2978723 C33.9612865,11.2978723 32.6382979,9.49335106 32.6382979,6.90425532 Z" id="Shape"></path>
                                <path d="M7.53191489,45.3170213 C7.53191489,49.1884059 9.7375498,52.2212766 12.5531915,52.2212766 C15.3688332,52.2212766 17.5744681,49.1884059 17.5744681,45.3170213 C17.5744681,41.4456366 15.3688332,38.412766 12.5531915,38.412766 C9.7375498,38.412766 7.53191489,41.4456366 7.53191489,45.3170213 Z M15.0638298,45.3170213 C15.0638298,47.906117 13.7408412,49.7106383 12.5531915,49.7106383 C11.3655418,49.7106383 10.0425532,47.906117 10.0425532,45.3170213 C10.0425532,42.7279255 11.3655418,40.9234043 12.5531915,40.9234043 C13.7408412,40.9234043 15.0638298,42.7279255 15.0638298,45.3170213 Z" id="Shape"></path>
                                <path d="M42.0531915,63.0170213 C42.0531915,63.710389 41.4912401,64.2723404 40.7978723,64.2723404 C40.1045046,64.2723404 39.5425532,63.710389 39.5425532,63.0170213 C39.5425532,62.3236535 40.1045046,61.7617021 40.7978723,61.7617021 C41.4912401,61.7617021 42.0531915,62.3236535 42.0531915,63.0170213 Z" id="Path"></path>
                                <path d="M40.7978723,20.3361702 C30.0913731,20.3361702 22.5957447,30.9568567 22.5957447,42.3042553 C22.5957447,51.6338264 27.4900183,59.9684591 34.7743019,63.0435007 C35.4127493,63.3131981 36.1492686,63.0140791 36.4189662,62.3751413 C36.6886636,61.7366938 36.3895445,61.0001746 35.7506067,60.730477 C29.3837849,58.0428191 25.106383,50.6379073 25.106383,42.3042553 C25.106383,31.5751995 32.1454871,22.8468085 40.7978723,22.8468085 C49.4502576,22.8468085 56.4893617,31.5751995 56.4893617,42.3042553 C56.4893617,50.6379073 52.2119597,58.0428191 45.8451379,60.730477 C45.2062002,61.0001746 44.9070811,61.7366938 45.1767785,62.3751413 C45.4474567,63.0160406 46.1844664,63.3122174 46.8214428,63.0435007 C54.1057264,59.9684591 59,51.6338264 59,42.3042553 C59,30.7317819 51.3234292,20.3361702 40.7978723,20.3361702 Z" id="Path"></path>
                            </g>
                        </g>
                    </g>
                </g>
            </g>
        </g>
    </g>
</svg>