<?xml version="1.0" encoding="UTF-8"?>
<svg width="64px" height="64px" viewBox="0 0 64 64" version="1.1" xmlns="http://www.w3.org/2000/svg" xmlns:xlink="http://www.w3.org/1999/xlink">
    <!-- Generator: Sketch 59.1 (86144) - https://sketch.com -->
    <title>endoscopy</title>
    <desc>Created with Sketch.</desc>
    <g id="Dizajn" stroke="none" stroke-width="1" fill="none" fill-rule="evenodd">
        <g id="3.-Euromedik---Usluge" transform="translate(-734.000000, -1527.000000)" fill="#E12630" fill-rule="nonzero">
            <g id="Group" transform="translate(0.000000, 906.000000)">
                <g id="item" transform="translate(586.000000, 533.000000)">
                    <g id="content" transform="translate(25.000000, 60.000000)">
                        <g id="icon" transform="translate(95.000000, 0.000000)">
                            <g id="endoscopy" transform="translate(28.000000, 28.000000)">
                                <path d="M41.6340645,37.1612903 L40.9465806,37.1612903 C37.7207742,37.1612903 35.0967742,39.7852903 35.0967742,43.0110968 L35.0967742,53.6774194 L41.2903226,53.6774194 L41.2903226,44.6451613 C41.2903226,43.9339355 41.8694194,43.3548387 42.5806452,43.3548387 C42.8583226,43.3548387 43.131871,43.4467097 43.3548387,43.6129032 L45.2129032,45.0064516 C46.4547097,45.9385806 47.9938065,46.4516129 49.5473548,46.4516129 C51.8110968,46.4516129 53.9726452,45.3708387 55.3290323,43.5602581 C58.2585806,39.6562581 59.8709677,34.8170323 59.8709677,29.9354839 L59.8709677,27.0895484 C59.8709677,24.1052903 57.4430968,21.6774194 54.459871,21.6774194 C53.0136774,21.6774194 51.6541935,22.24 50.6332903,23.2629677 L49.4596129,24.4356129 C49.243871,24.6503226 48.9455484,24.7741935 48.6410323,24.7741935 C48.0030968,24.7741935 47.483871,24.2549677 47.483871,23.6170323 L47.483871,14.4516129 L41.2903226,14.4516129 L41.2903226,25.4627097 C41.2903226,27.2939355 42.1646452,29.0436129 43.6314839,30.1429677 L43.9060645,30.3483871 C44.8536774,31.0596129 45.4193548,32.1909677 45.4193548,33.376 C45.4193548,35.4632258 43.7212903,37.1612903 41.6340645,37.1612903 L41.6340645,37.1612903 Z M45.1427097,28.6957419 L44.8691613,28.4903226 C43.9205161,27.7790968 43.3548387,26.6467097 43.3548387,25.4627097 L43.3548387,16.516129 L45.4193548,16.516129 L45.4193548,23.6170323 C45.4193548,25.3935484 46.8645161,26.8387097 48.6410323,26.8387097 C49.4895484,26.8387097 50.3194839,26.4949677 50.9192258,25.8952258 L52.0939355,24.7215484 C52.7246452,24.0898065 53.5649032,23.7419355 54.459871,23.7419355 C56.3055484,23.7419355 57.8064516,25.243871 57.8064516,27.0895484 L57.8064516,29.9354839 C57.8064516,34.3731613 56.3396129,38.7726452 53.6774194,42.3225806 C52.7091613,43.6149677 51.163871,44.3870968 49.5473548,44.3870968 C48.4387097,44.3870968 47.3383226,44.0206452 46.4516129,43.3548387 L44.5935484,41.9612903 C44.0175484,41.5287742 43.3021935,41.2903226 42.5806452,41.2903226 C40.7308387,41.2903226 39.2258065,42.7953548 39.2258065,44.6451613 L39.2258065,51.6129032 L37.1612903,51.6129032 L37.1612903,43.0110968 C37.1612903,40.923871 38.8593548,39.2258065 40.9465806,39.2258065 L41.6340645,39.2258065 C44.859871,39.2258065 47.483871,36.6018065 47.483871,33.376 C47.483871,31.5447742 46.6095484,29.796129 45.1427097,28.6957419 Z" id="Shape"></path>
                                <polygon id="Path" points="49.5483871 32 51.6129032 32 51.6129032 34.0645161 49.5483871 34.0645161"></polygon>
                                <polygon id="Path" points="52.6451613 25.8064516 54.7096774 25.8064516 54.7096774 27.8709677 52.6451613 27.8709677"></polygon>
                                <polygon id="Path" points="50.5806452 36.1290323 52.6451613 36.1290323 52.6451613 38.1935484 50.5806452 38.1935484"></polygon>
                                <polygon id="Path" points="47.483871 40.2580645 49.5483871 40.2580645 49.5483871 42.3225806 47.483871 42.3225806"></polygon>
                                <polygon id="Path" points="53.6774194 29.9354839 55.7419355 29.9354839 55.7419355 32 53.6774194 32"></polygon>
                                <path d="M64,10.3225806 L22.4381935,10.3225806 C22.6095484,9.66090323 22.7096774,8.9723871 22.7096774,8.25806452 C22.7096774,3.70477419 19.0049032,0 14.4516129,0 C9.89832258,0 6.19354839,3.70477419 6.19354839,8.25806452 C6.19354839,11.1535484 7.69548387,13.7021935 9.95716129,15.1762581 C4.18374194,17.0714839 0,22.5042581 0,28.9032258 L0,36.1290323 C0,38.9749677 2.31535484,41.2903226 5.16129032,41.2903226 L6.19354839,41.2903226 L6.19354839,59.3548387 C6.19354839,61.915871 8.27767742,64 10.8387097,64 C12.3055484,64 13.6,63.3032258 14.4516129,62.2389677 C15.3032258,63.3032258 16.5976774,64 18.0645161,64 C20.6255484,64 22.7096774,61.915871 22.7096774,59.3548387 L22.7096774,57.8064516 L64,57.8064516 L64,10.3225806 Z M16.2663226,40.6131613 L13.0363871,37.3832258 C11.9514839,36.2983226 11.3548387,34.8572903 11.3548387,33.3223226 C11.3548387,31.524129 12.2136774,29.8074839 13.6516129,28.7287742 L14.2709677,28.2642581 L15.4095484,29.6877419 C16.7886452,31.4126452 17.5483871,33.5783226 17.5483871,35.7863226 C17.5483871,37.508129 17.0972903,39.1576774 16.2663226,40.6131613 L16.2663226,40.6131613 Z M15.483871,14.3587097 L15.483871,13.4193548 C15.483871,11.712 16.8732903,10.3225806 18.5806452,10.3225806 L20.283871,10.3225806 C19.5427097,12.4098065 17.7166452,13.9809032 15.483871,14.3587097 L15.483871,14.3587097 Z M8.25806452,8.25806452 C8.25806452,4.84232258 11.035871,2.06451613 14.4516129,2.06451613 C17.8673548,2.06451613 20.6451613,4.84232258 20.6451613,8.25806452 L18.5806452,8.25806452 C15.7347097,8.25806452 13.4193548,10.5734194 13.4193548,13.4193548 L13.4193548,14.3587097 C10.4949677,13.8642581 8.25806452,11.3207742 8.25806452,8.25806452 Z M10.8387097,61.9354839 C9.41522581,61.9354839 8.25806452,60.7783226 8.25806452,59.3548387 L8.25806452,23.7419355 L6.19354839,23.7419355 L6.19354839,39.2258065 L5.16129032,39.2258065 C3.45393548,39.2258065 2.06451613,37.8363871 2.06451613,36.1290323 L2.06451613,28.9032258 C2.06451613,22.4216774 7.07096774,17.0962581 13.4193548,16.5687742 L13.4193548,26.3225806 L12.4129032,27.0771613 C10.4578065,28.544 9.29032258,30.8789677 9.29032258,33.3223226 C9.29032258,35.4085161 10.1016774,37.3687742 11.5767742,38.8428387 L15.0389677,42.3050323 C14.9233548,42.4340645 14.8129032,42.5661935 14.6900645,42.6900645 L13.4193548,43.9597419 L13.4193548,48.516129 L13.4193548,59.3548387 C13.4193548,60.7783226 12.2621935,61.9354839 10.8387097,61.9354839 Z M20.6451613,23.7419355 L20.6451613,59.3548387 C20.6451613,60.7783226 19.488,61.9354839 18.0645161,61.9354839 C16.6410323,61.9354839 15.483871,60.7783226 15.483871,59.3548387 L15.483871,48.516129 L15.483871,44.8144516 L16.1496774,44.1486452 C18.3834839,41.9148387 19.6129032,38.9460645 19.6129032,35.7863226 C19.6129032,33.1107097 18.692129,30.4877419 17.0209032,28.3984516 L15.483871,26.4763871 L15.483871,16.5687742 C21.8322581,17.0962581 26.8387097,22.4216774 26.8387097,28.9032258 L26.8387097,36.1290323 C26.8387097,37.8363871 25.4492903,39.2258065 23.7419355,39.2258065 L22.7096774,39.2258065 L22.7096774,23.7419355 L20.6451613,23.7419355 Z M61.9354839,55.7419355 L22.7096774,55.7419355 L22.7096774,41.2903226 L23.7419355,41.2903226 C26.587871,41.2903226 28.9032258,38.9749677 28.9032258,36.1290323 L28.9032258,28.9032258 C28.9032258,22.5042581 24.7194839,17.0714839 18.9460645,15.1762581 C20.0330323,14.468129 20.9393548,13.5112258 21.5917419,12.3870968 L61.9354839,12.3870968 L61.9354839,55.7419355 Z" id="Shape"></path>
                                <polygon id="Path" points="28.9032258 14.4516129 30.9677419 14.4516129 30.9677419 16.516129 28.9032258 16.516129"></polygon>
                                <polygon id="Path" points="33.0322581 14.4516129 35.0967742 14.4516129 35.0967742 16.516129 33.0322581 16.516129"></polygon>
                                <polygon id="Path" points="37.1612903 14.4516129 39.2258065 14.4516129 39.2258065 16.516129 37.1612903 16.516129"></polygon>
                                <polygon id="Path" points="28.9032258 18.5806452 39.2258065 18.5806452 39.2258065 20.6451613 28.9032258 20.6451613"></polygon>
                                <polygon id="Path" points="28.9032258 22.7096774 39.2258065 22.7096774 39.2258065 24.7741935 28.9032258 24.7741935"></polygon>
                                <polygon id="Path" points="57.8064516 51.6129032 59.8709677 51.6129032 59.8709677 53.6774194 57.8064516 53.6774194"></polygon>
                                <polygon id="Path" points="53.6774194 51.6129032 55.7419355 51.6129032 55.7419355 53.6774194 53.6774194 53.6774194"></polygon>
                                <polygon id="Path" points="49.5483871 51.6129032 51.6129032 51.6129032 51.6129032 53.6774194 49.5483871 53.6774194"></polygon>
                                <polygon id="Path" points="24.7741935 51.6129032 26.8387097 51.6129032 26.8387097 53.6774194 24.7741935 53.6774194"></polygon>
                                <polygon id="Path" points="24.7741935 47.483871 26.8387097 47.483871 26.8387097 49.5483871 24.7741935 49.5483871"></polygon>
                                <polygon id="Path" points="24.7741935 43.3548387 26.8387097 43.3548387 26.8387097 45.4193548 24.7741935 45.4193548"></polygon>
                            </g>
                        </g>
                    </g>
                </g>
            </g>
        </g>
    </g>
</svg>