<?xml version="1.0" encoding="UTF-8"?>
<svg width="64px" height="66px" viewBox="0 0 64 66" version="1.1" xmlns="http://www.w3.org/2000/svg" xmlns:xlink="http://www.w3.org/1999/xlink">
    <!-- Generator: Sketch 59.1 (86144) - https://sketch.com -->
    <title>physical</title>
    <desc>Created with Sketch.</desc>
    <g id="Dizajn" stroke="none" stroke-width="1" fill="none" fill-rule="evenodd">
        <g id="3.-Euromedik---Usluge" transform="translate(-734.000000, -3658.000000)" fill="#E12630" fill-rule="nonzero">
            <g id="Group" transform="translate(0.000000, 906.000000)">
                <g id="item" transform="translate(586.000000, 2665.000000)">
                    <g id="content" transform="translate(25.000000, 60.000000)">
                        <g id="icon" transform="translate(95.000000, 0.000000)">
                            <g id="physical" transform="translate(28.000000, 27.000000)">
                                <path d="M62.9642094,21.9951923 C62.9059829,22.0277778 56.5432692,25.1623932 50.3247863,25.1623932 C43.9797008,25.1623932 35.3595085,23.0288462 35.2745726,23.0069444 C34.9139958,22.9166667 34.5320513,23.0154914 34.2606838,23.2697649 C33.9893162,23.5240384 33.8653846,23.8985042 33.9321581,24.2644231 L35.8835471,35.008547 L21.7590812,35.008547 L20.1629273,21.4428418 C19.8814102,19.0544872 20.6346154,16.6597223 22.2323718,14.8621796 C23.829594,13.0646367 26.1196581,12.0352563 28.5245727,12.034188 L62.3589744,12.034188 L62.3589744,9.84615385 L28.5245727,9.84615385 C25.4957265,9.84722215 22.6116453,11.1426282 20.5988248,13.4059829 C18.5860042,15.6693376 17.636218,18.684829 17.9887821,21.693376 L19.5555556,35.008547 L18.5982906,35.008547 C17.9941239,35.008547 17.5042735,35.4983974 17.5042735,36.1025641 L17.5042735,45.9487179 L0,45.9487179 L0,48.1367521 L4.37606838,48.1367521 L4.37606838,63.4529915 L0,63.4529915 L0,65.6410256 L49.2307692,65.6410256 C49.8349359,65.6410256 50.3247863,65.1511752 50.3247863,64.5470085 L60.1709402,64.5470085 L60.1709402,62.3589744 L50.3247863,62.3589744 L50.3247863,50.3247863 L60.1709402,50.3247863 L60.1709402,48.1367521 L50.3247863,48.1367521 L50.3247863,47.042735 C50.3247863,46.4385683 49.8349359,45.9487179 49.2307692,45.9487179 L40.4786325,45.9487179 L40.4786325,36.1025641 C40.4786325,35.4983974 39.9887821,35.008547 39.3846154,35.008547 L38.1100428,35.008547 L36.3824786,25.5112179 C40.9588676,26.5769231 45.6287393,27.1928418 50.3247863,27.3504274 C55.0475427,27.1581197 59.6810898,26.0037394 63.9417735,23.9588676 L62.9642094,21.9951923 Z M6.56410256,48.1367521 L8.75213675,48.1367521 L8.75213675,63.4529915 L6.56410256,63.4529915 L6.56410256,48.1367521 Z M48.1367521,48.1367521 L48.1367521,63.4529915 L33.8611111,63.4529915 C34.7537394,62.8920941 35.5811966,62.2345086 36.3290598,61.491453 C38.9946582,58.8402777 40.4887821,55.232906 40.4786325,51.4732907 L40.4786325,48.1367521 L48.1367521,48.1367521 Z M38.2905983,51.4732907 C38.2911324,58.0897436 32.9273504,63.4535256 26.3108975,63.4529915 L10.9401709,63.4529915 L10.9401709,48.1367521 L18.5982906,48.1367521 C19.2024573,48.1367521 19.6923077,47.6469017 19.6923077,47.042735 L19.6923077,37.1965812 L38.2905983,37.1965812 L38.2905983,51.4732907 Z" id="Shape"></path>
                                <polygon id="Path" points="8.75213675 32.8205128 8.75213675 30.6324786 10.9401709 30.6324786 10.9401709 28.4444444 8.75213675 28.4444444 8.75213675 26.2564103 6.56410256 26.2564103 6.56410256 28.4444444 4.37606838 28.4444444 4.37606838 30.6324786 6.56410256 30.6324786 6.56410256 32.8205128"></polygon>
                                <polygon id="Path" points="13.1282051 7.65811966 13.1282051 5.47008547 15.3162393 5.47008547 15.3162393 3.28205128 13.1282051 3.28205128 13.1282051 1.09401709 10.9401709 1.09401709 10.9401709 3.28205128 8.75213675 3.28205128 8.75213675 5.47008547 10.9401709 5.47008547 10.9401709 7.65811966"></polygon>
                                <polygon id="Path" points="41.5726496 6.56410256 41.5726496 4.37606838 43.7606838 4.37606838 43.7606838 2.18803419 41.5726496 2.18803419 41.5726496 0 39.3846154 0 39.3846154 2.18803419 37.1965812 2.18803419 37.1965812 4.37606838 39.3846154 4.37606838 39.3846154 6.56410256"></polygon>
                                <polygon id="Path" points="51.4188034 38.2905983 51.4188034 36.1025641 53.6068376 36.1025641 53.6068376 33.9145299 51.4188034 33.9145299 51.4188034 31.7264957 49.2307692 31.7264957 49.2307692 33.9145299 47.042735 33.9145299 47.042735 36.1025641 49.2307692 36.1025641 49.2307692 38.2905983"></polygon>
                                <polygon id="Path" points="31.7264957 14.2222222 52.5128205 14.2222222 52.5128205 16.4102564 31.7264957 16.4102564"></polygon>
                                <polygon id="Path" points="54.7008547 14.2222222 56.8888889 14.2222222 56.8888889 16.4102564 54.7008547 16.4102564"></polygon>
                            </g>
                        </g>
                    </g>
                </g>
            </g>
        </g>
    </g>
</svg>