<?xml version="1.0" encoding="UTF-8"?>
<svg width="36px" height="57px" viewBox="0 0 36 57" version="1.1" xmlns="http://www.w3.org/2000/svg" xmlns:xlink="http://www.w3.org/1999/xlink">
    <!-- Generator: Sketch 59.1 (86144) - https://sketch.com -->
    <title>female</title>
    <desc>Created with Sketch.</desc>
    <g id="Dizajn" stroke="none" stroke-width="1" fill="none" fill-rule="evenodd">
        <g id="3.-Euromedik---Usluge" transform="translate(-362.000000, -2597.000000)" fill="#E12630" fill-rule="nonzero">
            <g id="Group" transform="translate(0.000000, 906.000000)">
                <g id="item" transform="translate(200.000000, 1599.000000)">
                    <g id="content" transform="translate(25.000000, 60.000000)">
                        <g id="icon" transform="translate(95.000000, 0.000000)">
                            <g id="female" transform="translate(42.000000, 32.000000)">
                                <path d="M35.5451786,14.4398571 C35.3179286,13.2926786 34.9776964,12.1707321 34.5294643,11.0905714 C34.0801071,10.0055893 33.5245179,8.96769643 32.8708929,7.992 C31.5564107,6.02389286 29.8679464,4.33333929 27.9016071,3.01628571 C25.9561607,1.70951786 23.7714107,0.800517857 21.4730357,0.342 C19.1552143,-0.113946429 16.7708571,-0.113946429 14.4530357,0.342 C12.1546607,0.800357143 9.96975,1.70935714 8.02446429,3.01628571 C6.05876786,4.33141071 4.37030357,6.019875 3.05517857,7.98557143 C1.74841071,9.93101786 0.839571429,12.1157679 0.380892857,14.4141429 C-0.0752142857,16.7319643 -0.0752142857,19.1163214 0.380892857,21.4341429 C0.83925,23.7325179 1.74825,25.9174286 3.05517857,27.8627143 C4.79330357,30.4613036 7.17685714,32.5636071 9.97232143,33.9634286 C11.6675357,34.8308036 13.4905179,35.4211071 15.3723214,35.712 C15.7475893,35.7459107 16.0304464,36.0683036 16.0151786,36.4448571 L16.0151786,41.5234286 C16.0151786,41.9139643 15.6985714,42.2305714 15.3080357,42.2305714 L7.81232143,42.2305714 C7.30639286,42.2326607 6.82151786,42.4335536 6.46232143,42.7898571 C5.74167857,43.5203036 5.71901786,44.6870893 6.41089286,45.4448571 L6.44946429,45.477 C6.634125,45.6555536 6.85269643,45.7955357 7.09232143,45.8884286 C7.322625,45.9842143 7.56932143,46.0345179 7.81875,46.0362857 L15.3273214,46.0362857 C15.5151964,46.0354821 15.6955179,46.1095714 15.82875,46.242 C15.9510536,46.3750714 16.01775,46.5499286 16.0151786,46.7305714 L16.0151786,54.2455714 C16.0142143,54.4967679 16.0622679,54.7457143 16.1566071,54.9784286 C16.2485357,55.2185357 16.3886786,55.4372679 16.5680357,55.6212857 C16.7520536,55.8008036 16.9707857,55.9409464 17.2108929,56.0327143 C17.6785714,56.2238036 18.2025,56.2238036 18.6701786,56.0327143 C18.9102857,55.9407857 19.1290179,55.8006429 19.3130357,55.6212857 C19.4923929,55.4372679 19.6325357,55.2185357 19.7244643,54.9784286 C19.8188036,54.7457143 19.8668571,54.4967679 19.8658929,54.2455714 L19.8658929,46.7305714 C19.8650893,46.5426964 19.9391786,46.362375 20.0716071,46.2291429 C20.2048393,46.0967143 20.3851607,46.022625 20.5730357,46.0234286 L28.0751786,46.0234286 C28.326375,46.0243929 28.5753214,45.9763393 28.8080357,45.882 C29.0481429,45.7900714 29.266875,45.6500893 29.4508929,45.4705714 C29.63025,45.2865536 29.7703929,45.0678214 29.8623214,44.8277143 C30.0534107,44.3600357 30.0534107,43.8361071 29.8623214,43.3684286 C29.8121786,43.2466071 29.7496607,43.13025 29.6758929,43.0212857 L29.4251786,42.7705714 C29.0659821,42.4142679 28.5811071,42.213375 28.0751786,42.2112857 L20.5601786,42.2112857 C20.3723036,42.2120893 20.1919821,42.138 20.05875,42.0055714 C19.9263214,41.8723393 19.8522321,41.6920179 19.8530357,41.5041429 L19.8530357,36.7727143 L19.8530357,36.4448571 C19.8533571,36.2746607 19.9149107,36.1104107 20.0266071,35.982 C20.1376607,35.8556786 20.2906607,35.7735536 20.4573214,35.7505714 C22.3656429,35.4808929 24.2175536,34.9032857 25.9408929,34.0405714 C29.8219821,32.1010714 32.8720179,28.8252321 34.5294643,24.8155714 C34.9780179,23.7333214 35.31825,22.6092857 35.5451786,21.4598571 C36.0012857,19.1420357 36.0012857,16.7575179 35.5451786,14.4398571 Z M31.7973214,20.7077143 L31.7973214,20.7334286 C30.2218393,28.416375 22.7163214,33.3675 15.033375,31.7920179 C7.35042857,30.2165357 2.39930357,22.7110179 3.97478571,15.0280714 C5.55026786,7.345125 13.0557857,2.394 20.7387321,3.96948214 C27.372375,5.32976786 32.1226071,11.18475 32.0868104,17.9562857 C32.0805,18.8805536 31.9835893,19.80225 31.7973214,20.7077143 Z" id="Shape"></path>
                            </g>
                        </g>
                    </g>
                </g>
            </g>
        </g>
    </g>
</svg>