<?xml version="1.0" encoding="UTF-8"?>
<svg width="64px" height="64px" viewBox="0 0 64 64" version="1.1" xmlns="http://www.w3.org/2000/svg" xmlns:xlink="http://www.w3.org/1999/xlink">
    <!-- Generator: Sketch 59.1 (86144) - https://sketch.com -->
    <title>wax</title>
    <desc>Created with Sketch.</desc>
    <g id="Dizajn" stroke="none" stroke-width="1" fill="none" fill-rule="evenodd">
        <g id="3.-Euromedik---Usluge" transform="translate(-1506.000000, -2060.000000)" fill="#E12630" fill-rule="nonzero">
            <g id="Group" transform="translate(0.000000, 906.000000)">
                <g id="item" transform="translate(1358.000000, 1066.000000)">
                    <g id="content" transform="translate(25.000000, 60.000000)">
                        <g id="icon" transform="translate(95.000000, 0.000000)">
                            <g id="wax" transform="translate(28.000000, 28.000000)">
                                <path d="M11.7740763,28.1823758 L11.2279363,23.8334735 L9.10242217,24.1003176 L9.64012703,28.3832118 L9.64119815,38.0049958 L10.7980134,63.5295082 L12.9382555,63.4321697 L11.7823775,37.9563935 L11.7823775,28.3162665 C11.7822436,28.2714131 11.7794319,28.2268275 11.7740763,28.1823758 L11.7740763,28.1823758 Z" id="Path"></path>
                                <path d="M26.4969603,10.2410283 L27.059301,12.3078983 L31.3438019,11.140104 C31.8098753,11.0133096 32.133489,10.5902151 32.1337568,10.1071376 L32.1337568,6.56198091 C32.7195284,6.77834821 33.3387726,6.89068247 33.9632386,6.89376195 L38.8732767,6.89376195 C39.4977427,6.89054858 40.1168531,6.77821432 40.7027586,6.56198091 L40.7027586,10.1071376 C40.7027586,10.590349 41.0263723,11.0138451 41.4927134,11.1406396 C41.4927134,11.1406396 53.461065,14.3916385 53.5562613,14.3916385 L54.3596052,14.3916385 C58.5005753,14.3925758 61.8566784,17.7502856 61.8557412,21.8912557 C61.8556073,22.5027343 61.7806285,23.1120707 61.6325455,23.7053401 C61.6219681,23.7476496 61.6139347,23.7906285 61.608579,23.8340091 L61.0624391,28.1823758 C61.0570834,28.2268275 61.0542717,28.271547 61.0541378,28.3162665 L61.055209,37.9114062 L59.9840837,63.4364542 L62.1241919,63.5264288 L63.1963883,37.9563935 L63.1963883,28.3832118 L63.7256581,24.1640495 C64.9818202,18.9902469 61.8060678,13.7777499 56.6322651,12.5215878 C55.8882348,12.3409693 55.1253258,12.249522 54.3596052,12.2493881 L53.6995243,12.2493881 L42.845009,9.28919963 L42.845009,5.11703298 C43.2697102,4.65002238 43.6085874,4.11178196 43.8461094,3.52708148 L44.9109418,0.86506751 L42.9213267,0.0689536864 L41.8564943,2.73163711 C41.3723457,3.95446044 40.1884846,4.75606378 38.8732767,4.7515115 L33.9632386,4.7515115 C32.6478969,4.75606378 31.4640357,3.95419266 30.980021,2.73110154 L29.9151886,0.0689536864 L27.9255735,0.86506751 L28.9904059,3.5266798 C29.2279279,4.11151418 29.5668052,4.64988849 29.9915063,5.11689909 L29.9915063,9.28919963 L26.4969603,10.2410283 Z" id="Path"></path>
                                <polygon id="Path" points="35.3471324 46.5253953 37.4893829 46.5253953 37.4893829 50.8098962 35.3471324 50.8098962"></polygon>
                                <polygon id="Path" transform="translate(43.932674, 16.545945) rotate(-11.298700) translate(-43.932674, -16.545945) " points="38.4688849 15.4744704 49.3964629 15.4744704 49.3964629 17.617419 38.4688849 17.617419"></polygon>
                                <path d="M14.3514713,19.7472647 L18.8368082,19.7472647 L20.9656696,21.876126 C22.5102322,23.4342116 23.4273831,25.5060355 23.5423952,27.6968883 L23.1575935,27.4660608 L20.0379413,24.3464086 C19.6198008,23.9280003 18.9416446,23.9277325 18.5231024,24.345873 C18.3222664,24.5465751 18.2092627,24.8189087 18.2091288,25.1028908 L18.2102,40.0500416 L17.1390747,63.5253576 L19.2791829,63.6225622 L20.3513793,40.0986439 L20.3513793,27.6885871 L21.4842281,28.8210342 L23.5490898,43.2812248 L21.6933653,52.5646671 C21.5134163,53.4640106 21.4226384,54.3788854 21.4225045,55.2960364 L21.4225045,62.5922737 C21.4225045,63.1838026 21.9021008,63.6633989 22.4936297,63.6633989 L50.3428856,63.6633989 C50.9344145,63.6633989 51.4140108,63.1838026 51.4140108,62.5922737 L51.4140108,55.2963042 C51.4138769,54.3791532 51.3230991,53.4642784 51.14315,52.5649349 L49.2874256,43.2814925 L51.3522872,28.821302 L52.485136,27.6885871 L52.4862072,40.1472462 L53.5573324,63.6225622 L55.6974406,63.5253576 L54.6273865,40.0986439 L54.6273865,25.1028908 C54.6272526,24.5113619 54.1476563,24.0318994 53.5559935,24.0320333 C53.2720114,24.0320333 52.9998117,24.1449032 52.7989757,24.3456052 L49.6793235,27.4652575 L44.4361655,30.6116878 L45.5386212,32.4483998 L48.9640796,30.3931783 L47.1400873,43.1607232 C47.1232171,43.280957 47.1268321,43.4031991 47.1505308,43.5222279 L49.0428074,52.9856193 C49.1787064,53.6805118 49.2520784,54.3863833 49.2617186,55.0943971 L23.5747968,55.0943971 C23.5845708,54.3863833 23.657809,53.6805118 23.7938419,52.9856193 L25.6861185,43.5222279 C25.7098171,43.4031991 25.7134322,43.280957 25.6965619,43.1607232 L24.4898055,34.7139635 C24.5377383,34.7272187 24.5864745,34.7369927 24.6358802,34.7430178 L35.3471324,34.7430178 C35.9386613,34.7430178 36.4182577,34.2634215 36.4182577,33.6718926 L36.4182577,26.945494 C36.4265589,23.8728374 35.3609232,20.8940381 33.405718,18.5237719 L34.0659328,18.6559219 L34.4863494,16.5554454 L30.7873524,15.8156995 L28.6066753,13.6350224 C28.4059732,13.4337848 28.1335057,13.3206472 27.8492559,13.3205133 L25.3612997,13.3205133 L24.2959318,10.6583654 C23.6503111,9.02771118 22.0717403,7.9588621 20.3179066,7.96486184 L13.9915733,7.96486184 C13.0596943,7.96486184 12.1438822,8.20830038 11.3346471,8.67049092 L5.07110849,12.2493881 L-1.13686838e-13,12.2493881 L-1.13686838e-13,14.3916385 L5.35562613,14.3916385 C5.54200192,14.3916385 5.72516433,14.3429023 5.88703813,14.2503839 L12.3974711,10.5302321 C12.8830925,10.2532123 13.4324459,10.1074054 13.9915733,10.1071376 L20.3179066,10.1071376 C21.1946226,10.1040581 21.9837741,10.6385496 22.3061828,11.4539437 L23.0532927,13.3205133 L20.7948251,13.3205133 L20.0375396,12.5632278 C19.7712311,12.2978565 19.385626,12.1910118 19.020774,12.2812541 L14.7362731,13.3523793 C14.1622838,13.4956423 13.813097,14.0769955 13.95636,14.6509847 C14.0753888,15.1280371 14.5039728,15.4628976 14.9957532,15.4627638 L21.3074924,15.4627638 C21.8832222,15.4627638 22.3973624,15.8510466 22.4779645,16.3464421 C22.5810603,16.929402 22.1919741,17.4855837 21.6090142,17.5886795 C21.5474245,17.5995247 21.4850314,17.6050142 21.4225045,17.6050142 L13.9246279,17.6050142 C13.640512,17.6050142 13.3681784,17.717884 13.1673424,17.9188539 C11.9991464,19.0933427 10.4095966,19.751683 8.75310145,19.7472647 L-1.13686838e-13,19.7472647 L-1.13686838e-13,21.8895151 L8.75310145,21.8895151 C10.820507,21.8956741 12.8162811,21.1320957 14.3514713,19.7472647 L14.3514713,19.7472647 Z M23.564755,61.5211484 L23.564755,57.2366475 L49.2717604,57.2366475 L49.2717604,61.5211484 L23.564755,61.5211484 Z M23.8712307,18.6144158 C24.4837804,17.891808 24.7476789,16.9364982 24.5930352,16.0019414 C24.5627759,15.8182434 24.5155125,15.6377588 24.4517805,15.4627638 L27.40581,15.4627638 L31.0124225,19.0695102 C33.1084807,21.1535182 34.2837729,23.98959 34.2760455,26.945494 L34.2760455,32.6007674 L25.7070054,32.6007674 L25.7070054,28.1447525 C25.6976331,25.2266057 24.5382739,22.42963 22.4802407,20.3607516 L21.8231053,19.7036163 C22.6182819,19.6102945 23.3493249,19.2214761 23.8712307,18.6144158 L23.8712307,18.6144158 Z" id="Shape"></path>
                                <polygon id="Path" points="38.5605081 20.8183899 40.7027586 20.8183899 40.7027586 24.0317656 38.5605081 24.0317656"></polygon>
                                <polygon id="Path" points="42.845009 20.8183899 44.9872595 20.8183899 44.9872595 24.0317656 42.845009 24.0317656"></polygon>
                                <polygon id="Path" points="47.1295099 19.7472647 49.2717604 19.7472647 49.2717604 22.9606403 47.1295099 22.9606403"></polygon>
                                <polygon id="Path" points="38.5605081 26.174016 40.7027586 26.174016 40.7027586 29.3873917 38.5605081 29.3873917"></polygon>
                                <polygon id="Path" points="42.845009 26.174016 44.9872595 26.174016 44.9872595 29.3873917 42.845009 29.3873917"></polygon>
                                <polygon id="Path" points="38.5605081 31.5296421 40.7027586 31.5296421 40.7027586 34.7430178 38.5605081 34.7430178"></polygon>
                                <polygon id="Path" points="47.1295099 25.1028908 49.2717604 25.1028908 49.2717604 27.2451412 47.1295099 27.2451412"></polygon>
                                <polygon id="Path" points="42.845009 33.6718926 44.9872595 33.6718926 44.9872595 36.8852683 42.845009 36.8852683"></polygon>
                                <polygon id="Path" points="38.5605081 36.8852683 40.7027586 36.8852683 40.7027586 40.0986439 38.5605081 40.0986439"></polygon>
                            </g>
                        </g>
                    </g>
                </g>
            </g>
        </g>
    </g>
</svg>