<?xml version="1.0" encoding="UTF-8"?>
<svg width="64px" height="47px" viewBox="0 0 64 47" version="1.1" xmlns="http://www.w3.org/2000/svg" xmlns:xlink="http://www.w3.org/1999/xlink">
    <!-- Generator: Sketch 59.1 (86144) - https://sketch.com -->
    <title>heart</title>
    <desc>Created with Sketch.</desc>
    <g id="Dizajn" stroke="none" stroke-width="1" fill="none" fill-rule="evenodd">
        <g id="3.-Euromedik---Usluge" transform="translate(-1120.000000, -2602.000000)" fill="#E12630" fill-rule="nonzero">
            <g id="Group" transform="translate(0.000000, 906.000000)">
                <g id="item" transform="translate(972.000000, 1599.000000)">
                    <g id="content" transform="translate(25.000000, 60.000000)">
                        <g id="icon" transform="translate(95.000000, 0.000000)">
                            <g id="heart" transform="translate(28.000000, 37.000000)">
                                <path d="M62.8750594,22.4988124 L57.4631829,22.4988124 C59.7130641,17.3909739 59.4698337,13.256057 58.6185273,10.4589074 C57.1591449,5.47268409 52.2337292,0.060807601 44.9368171,0.060807601 C42.9909739,0.060807601 41.0451306,0.425653207 39.0384798,1.15534442 C35.5724466,2.43230404 33.2617577,3.83087886 32.2280285,4.56057007 C31.1942993,3.83087886 28.9444181,2.43230404 25.4175772,1.15534442 C23.4109264,0.425653207 21.4042755,0.060807601 19.5192399,0.060807601 C12.2223278,0.060807601 7.29691211,5.47268409 5.83752969,10.4589074 C4.98622328,13.4384798 4.68218527,17.9382423 7.54014252,23.5933492 L0.972921615,23.5933492 C0.425653207,23.5933492 0,24.0190024 0,24.5662708 C0,25.1135392 0.425653207,25.5391924 0.972921615,25.5391924 L8.69548694,25.5391924 C8.99952494,26.0864608 9.36437055,26.6337292 9.79002375,27.1809976 C16.1140143,36.3021378 29.8565321,46.2137767 32.3496437,46.8218527 L32.3496437,46.8826603 C32.3496437,46.8826603 32.4104513,46.8826603 32.4712589,46.8218527 C32.5320665,46.8218527 32.5928741,46.8218527 32.6536817,46.8218527 L32.6536817,46.7610451 C34.7819477,45.7273159 47.9771971,37.2142518 54.9092637,27.12019 C55.5781473,26.208076 56.1254157,25.295962 56.6118765,24.383848 L62.9966746,24.383848 C63.543943,24.383848 63.9695962,23.9581948 63.9695962,23.4109264 C63.9695962,22.863658 63.4223278,22.4988124 62.8750594,22.4988124 Z M53.1458432,26.0864608 C46.7002375,35.511639 34.8427553,43.1125891 32.2888361,44.7543943 C29.6741093,43.1125891 17.8774347,35.4508314 11.3710214,26.0864608 C11.2494062,25.904038 11.127791,25.7216152 11.0061758,25.5391924 L19.9448931,25.5391924 C20.3097387,25.5391924 20.6745843,25.3567696 20.8570071,24.991924 L24.9311164,16.9653207 L31.3159145,33.3225653 C31.4375297,33.6874109 31.8631829,33.9306413 32.2280285,33.9306413 C32.2280285,33.9306413 32.2280285,33.9306413 32.2888361,33.9306413 C32.7144893,33.9306413 33.0793349,33.6266033 33.2009501,33.2009501 L38.7952494,14.0465558 L41.7748219,23.7149644 C41.8964371,24.07981 42.2004751,24.3230404 42.5653207,24.383848 C42.9301663,24.4446556 43.2950119,24.2622328 43.5382423,23.9581948 L45.9097387,20.4921615 L47.9163895,23.8973872 C48.0988124,24.2014252 48.4028504,24.383848 48.767696,24.383848 L54.24038,24.383848 C53.8755344,24.991924 53.5106888,25.5391924 53.1458432,26.0864608 Z M55.3349169,22.4988124 L49.375772,22.4988124 L46.8826603,18.2422803 C46.7002375,17.9382423 46.3961995,17.7558195 46.0313539,17.7558195 C45.6665083,17.7558195 45.3624703,17.8774347 45.1800475,18.1814727 L43.1125891,21.2218527 L39.768171,10.3372922 C39.6465558,9.91163895 39.2209026,9.66840855 38.7952494,9.60760095 C38.3695962,9.60760095 37.943943,9.91163895 37.8223278,10.3372922 L32.1672209,29.8565321 L26.0256532,14.168171 C25.904038,13.8033254 25.5391924,13.560095 25.1743468,13.560095 C24.7486936,13.560095 24.4446556,13.7425178 24.2622328,14.1073634 L19.4584323,23.5325416 L9.79002375,23.5325416 C7.35771971,19.0935867 6.6888361,14.8370546 7.78337292,11.0061758 C9.06033254,6.6888361 13.256057,2.06745843 19.5800475,2.06745843 C21.2826603,2.06745843 23.0460808,2.43230404 24.8095012,3.04038005 C29.2484561,4.68218527 31.6199525,6.5672209 31.6807601,6.5672209 C32.0456057,6.87125891 32.5320665,6.87125891 32.8969121,6.5672209 C32.8969121,6.5672209 35.2684086,4.68218527 39.768171,3.04038005 C41.5315914,2.37149644 43.2950119,2.06745843 44.9976247,2.06745843 C51.2608076,2.06745843 55.5173397,6.6888361 56.7942993,11.0061758 C57.8280285,14.5330166 57.2807601,18.4247031 55.3349169,22.4988124 Z" id="Shape"></path>
                            </g>
                        </g>
                    </g>
                </g>
            </g>
        </g>
    </g>
</svg>