<?xml version="1.0" encoding="UTF-8"?>
<svg width="62px" height="62px" viewBox="0 0 62 62" version="1.1" xmlns="http://www.w3.org/2000/svg" xmlns:xlink="http://www.w3.org/1999/xlink">
    <!-- Generator: Sketch 59.1 (86144) - https://sketch.com -->
    <title>mri</title>
    <desc>Created with Sketch.</desc>
    <g id="Dizajn" stroke="none" stroke-width="1" fill="none" fill-rule="evenodd">
        <g id="3.-Euromedik---Usluge" transform="translate(-1121.000000, -995.000000)" fill="#E12630" fill-rule="nonzero">
            <g id="Group" transform="translate(0.000000, 906.000000)">
                <g id="item" transform="translate(972.000000, 0.000000)">
                    <g id="content" transform="translate(25.000000, 60.000000)">
                        <g id="icon" transform="translate(95.000000, 0.000000)">
                            <g id="mri" transform="translate(29.000000, 29.000000)">
                                <polygon id="Path" points="4 38 6 38 6 40 4 40"></polygon>
                                <polygon id="Path" points="8 38 10 38 10 40 8 40"></polygon>
                                <polygon id="Path" points="12 38 14 38 14 40 12 40"></polygon>
                                <path d="M51,0 L45,0 L41,0 L29,0 C22.935,0 18,4.935 18,11 L18,20.529 C17.505,20.69 17.018,20.873 16.553,21.106 C15.382,21.69 14.071,22 12.764,22 L0,22 L0,32 L22,32 L32,32 L35,32 C36.378,32 37.677,31.431 38.608,30.461 C39.814,31.43 41.346,32 43,32 C44.9,32 46.686,31.235 48,29.891 L48,34 L3,34 C1.346,34 0,35.346 0,37 L0,41 C0,42.654 1.346,44 3,44 L18,44 L18,48 L17,48 C15.346,48 14,49.346 14,51 C14,51.771 14.301,52.468 14.78,53 C14.3,53.532 14,54.229 14,55 C14,55.771 14.301,56.468 14.78,57 C14.3,57.532 14,58.229 14,59 C14,60.654 15.346,62 17,62 L62,62 L62,11 C62,4.935 57.065,0 51,0 Z M20,11 C20,6.037 24.037,2 29,2 L41,2 L45,2 C49.963,2 54,6.037 54,11 L54,60 L50,60 L50,11 C50,8.243 47.757,6 45,6 L41,6 L36,6 L29,6 C26.243,6 24,8.243 24,11 L24,20 L21.236,20 C20.823,20 20.41,20.026 20,20.076 L20,11 Z M16,55 C16,54.448 16.448,54 17,54 L48,54 L48,56 L17,56 C16.448,56 16,55.552 16,55 Z M31,20.039 C30.712,20.015 30.424,20 30.133,20 L26,20 L26,11 C26,9.346 27.346,8 29,8 L32.026,8 C31.391,8.838 31,9.87 31,11 L31,20.039 Z M35,30 L32,30 L22,30 C21.448,30 21,29.552 21,29 C21,28.448 21.448,28 22,28 L31,28 L31,26 L22,26 C20.346,26 19,27.346 19,29 C19,29.352 19.072,29.686 19.184,30 L2,30 L2,24 L12.764,24 C14.38,24 15.999,23.618 17.448,22.895 C18.618,22.31 19.929,22 21.236,22 L30.132,22 C31.809,22 33.434,22.492 34.829,23.422 L35.697,24 L38.049,24 L38.284,23.333 C39.117,20.977 41.512,19.623 44,20.1 L44,22.362 C44,23.563 43.286,24.646 42.172,25.125 L38.348,26.816 C38.227,26.503 38.127,26.178 38.07,25.834 L36.097,26.166 C36.273,27.212 36.672,28.169 37.242,28.992 C36.679,29.626 35.865,30 35,30 L35,30 Z M46.882,28.151 C45.927,29.326 44.512,30 43,30 C41.617,30 40.368,29.43 39.458,28.511 L42.971,26.958 C44.811,26.169 46,24.364 46,22.362 L46,20.984 C46.947,21.692 47.64,22.731 47.887,23.913 C48.203,25.433 47.837,26.977 46.882,28.151 L46.882,28.151 Z M44.435,18.144 C41.191,17.496 38.039,19.099 36.673,22 L36.303,22 L35.941,21.758 C35.029,21.15 34.037,20.699 33.001,20.404 L33.001,11 C33.001,9.346 34.347,8 36.001,8 L41.001,8 L45.001,8 C46.655,8 48.001,9.346 48.001,11 L48.001,20.098 C47.042,19.122 45.807,18.418 44.435,18.144 Z M2,41 L2,37 C2,36.448 2.448,36 3,36 L48,36 L48,40 L31.764,40 L27.764,42 L3,42 C2.448,42 2,41.552 2,41 Z M20,44 L28.236,44 L32.236,42 L48,42 L48,48 L20,48 L20,44 Z M17,50 L48,50 L48,52 L17,52 C16.448,52 16,51.552 16,51 C16,50.448 16.448,50 17,50 Z M16,59 C16,58.448 16.448,58 17,58 L48,58 L48,60 L17,60 C16.448,60 16,59.552 16,59 Z M60,60 L56,60 L56,11 C56,7.29 54.149,4.01 51.327,2.017 C56.138,2.191 60,6.147 60,11 L60,60 Z" id="Shape"></path>
                            </g>
                        </g>
                    </g>
                </g>
            </g>
        </g>
    </g>
</svg>