<?xml version="1.0" encoding="utf-8"?>
<!-- Generator: Adobe Illustrator 23.0.3, SVG Export Plug-In . SVG Version: 6.00 Build 0)  -->
<svg version="1.1" id="Layer_1" xmlns="http://www.w3.org/2000/svg" xmlns:xlink="http://www.w3.org/1999/xlink" x="0px" y="0px"
	 viewBox="0 0 60 60" style="enable-background:new 0 0 60 60;" xml:space="preserve">
<style type="text/css">
	.st0{fill:#E12630;}
</style>
<title>medicina-rada</title>
<desc>Created with Sketch.</desc>
<g id="Dizajn">
	<g transform="translate(-1122.000000, -3661.000000)">
		<g id="Group" transform="translate(0.000000, 906.000000)">
			<g id="item" transform="translate(972.000000, 2665.000000)">
				<g id="content" transform="translate(25.000000, 60.000000)">
					<g id="icon" transform="translate(95.000000, 0.000000)">
						<g id="medicina-rada" transform="translate(25.000000, 25.000000)">
							<g id="Path">
								<path class="st0" d="M39.6,47.7h-9.4v-8.1h-8.1v-9.4h8.1v-8.1h9.4v8.1h8.1v9.4h-8.1V47.7z M31.7,46.2h6.4v-8.1h8.1v-6.4
									h-8.1v-8.1h-6.4v8.1h-8.1v6.4h8.1V46.2z"/>
							</g>
							<g id="Oval">
								<path class="st0" d="M34.8,64.4c-2.2,0-4.4-0.2-6.7-0.8C20.5,61.8,14,57.2,9.8,50.5c-4.2-6.7-5.5-14.6-3.7-22.3l0,0
									C7.9,20.5,12.5,14,19.2,9.8c6.7-4.2,14.6-5.5,22.3-3.7c7.7,1.8,14.2,6.4,18.4,13.1s5.5,14.6,3.7,22.3
									C60.4,55.2,48.2,64.4,34.8,64.4z M34.8,6.9c-5.2,0-10.2,1.4-14.7,4.2c-6.3,4-10.8,10.1-12.5,17.4l0,0
									c-1.7,7.3-0.4,14.8,3.5,21.1c4,6.3,10.1,10.8,17.4,12.5c15,3.5,30.1-5.9,33.6-20.9c1.7-7.3,0.4-14.8-3.5-21.1
									c-4-6.3-10.1-10.8-17.4-12.5C39,7.1,36.9,6.9,34.8,6.9z M6.8,28.4L6.8,28.4L6.8,28.4z"/>
							</g>
							<g>
								<path class="st0" d="M34.8,57.6c-12.5,0-22.7-10.2-22.7-22.7c0-12.5,10.2-22.8,22.7-22.8c4.9,0,9.6,1.6,13.5,4.5l0.6,0.5
									l-0.9,1.2l-0.6-0.4c-3.6-2.7-8-4.2-12.6-4.2c-11.7,0-21.2,9.5-21.2,21.2c0,11.7,9.5,21.2,21.2,21.2S56,46.6,56,34.9
									c0-5-1.7-9.7-4.9-13.6l-0.5-0.6l1.2-1l0.5,0.6c3.4,4.2,5.3,9.2,5.3,14.6C57.5,47.4,47.3,57.6,34.8,57.6z"/>
							</g>
						</g>
					</g>
				</g>
			</g>
		</g>
	</g>
</g>
</svg>
