<?xml version="1.0" encoding="UTF-8"?>
<svg width="65px" height="46px" viewBox="0 0 65 46" version="1.1" xmlns="http://www.w3.org/2000/svg" xmlns:xlink="http://www.w3.org/1999/xlink">
    <!-- Generator: Sketch 59.1 (86144) - https://sketch.com -->
    <title>eye</title>
    <desc>Created with Sketch.</desc>
    <g id="Dizajn" stroke="none" stroke-width="1" fill="none" fill-rule="evenodd">
        <g id="3.-Euromedik---Usluge" transform="translate(-1506.000000, -2602.000000)" fill="#E12630" fill-rule="nonzero">
            <g id="Group" transform="translate(0.000000, 906.000000)">
                <g id="item" transform="translate(1358.000000, 1599.000000)">
                    <g id="content" transform="translate(25.000000, 60.000000)">
                        <g id="icon" transform="translate(95.000000, 0.000000)">
                            <g id="eye" transform="translate(28.000000, 37.000000)">
                                <path d="M25.7803711,23.2235352 C25.2852539,22.7271484 24.4803711,22.7271484 23.9852539,23.2235352 C23.4888672,23.7186523 23.4888672,24.5235352 23.9852539,25.0186523 C24.4803711,25.5150391 25.2852539,25.5150391 25.7803711,25.0186523 C26.2767578,24.5235352 26.2767578,23.7186523 25.7803711,23.2235352 Z" id="Path"></path>
                                <path d="M32.5,25.390625 C30.3999414,25.390625 28.6914062,27.0991602 28.6914062,29.1992188 C28.6914062,31.2992773 30.3999414,33.0078125 32.5,33.0078125 C34.6000586,33.0078125 36.3085938,31.2992773 36.3085938,29.1992188 C36.3085938,27.0991602 34.6000586,25.390625 32.5,25.390625 Z M32.5,30.46875 C31.7999805,30.46875 31.2304688,29.8992383 31.2304688,29.1992188 C31.2304688,28.4991992 31.7999805,27.9296875 32.5,27.9296875 C33.2000195,27.9296875 33.7695312,28.4991992 33.7695312,29.1992188 C33.7695312,29.8992383 33.2000195,30.46875 32.5,30.46875 Z" id="Shape"></path>
                                <path d="M32.5,19.0429688 C31.080918,19.0429688 29.7086816,19.3297559 28.4217578,19.895459 C27.7798828,20.1776758 27.4882715,20.9266992 27.7703613,21.5685742 C28.0524512,22.2104492 28.8016016,22.5019336 29.4434766,22.2199707 C30.406416,21.796709 31.4348633,21.5820312 32.5,21.5820312 C36.7001172,21.5820312 40.1171875,24.9991016 40.1171875,29.1992188 C40.1171875,33.3993359 36.7001172,36.8164062 32.5,36.8164062 C28.2998828,36.8164062 24.8828125,33.3993359 24.8828125,29.1992188 C24.8828125,29.1558008 24.8826855,29.1133984 24.8837012,29.0699805 C24.8999512,28.3690723 24.3449121,27.787627 23.6440039,27.771377 C22.9419531,27.7538574 22.3616504,28.3100391 22.3454004,29.0110742 C22.34375,29.0742969 22.34375,29.1359961 22.34375,29.1992188 C22.34375,34.799375 26.8998438,39.3554688 32.5,39.3554688 C38.1001562,39.3554688 42.65625,34.799375 42.65625,29.1992188 C42.65625,23.5990625 38.1001563,19.0429688 32.5,19.0429688 Z" id="Path"></path>
                                <path d="M32.5,0 C31.7988379,0 31.2304688,0.568369141 31.2304688,1.26953125 L31.2304688,8.88671875 C31.2304688,9.58788086 31.7988379,10.15625 32.5,10.15625 C33.2011621,10.15625 33.7695312,9.58788086 33.7695312,8.88671875 L33.7695312,1.26953125 C33.7695312,0.568369141 33.2011621,0 32.5,0 Z" id="Path"></path>
                                <path d="M18.3169238,9.41205078 L12.9315723,4.02669922 C12.4358203,3.53094727 11.6319531,3.53094727 11.1360742,4.02669922 C10.6403223,4.52245117 10.6403223,5.32631836 11.1360742,5.82219727 L16.5214258,11.2075488 C17.0171777,11.7033008 17.8211719,11.7034277 18.3169238,11.2075488 C18.8126758,10.7117969 18.8126758,9.90792969 18.3169238,9.41205078 Z" id="Path"></path>
                                <path d="M53.8639258,4.02669922 C53.3681738,3.53094727 52.5643066,3.53094727 52.0684277,4.02669922 L46.6830762,9.41205078 C46.1873242,9.90780273 46.1873242,10.7116699 46.6830762,11.2075488 C47.1787012,11.7033008 47.9826953,11.7034277 48.4785742,11.2075488 L53.8639258,5.82219727 C54.3596777,5.32644531 54.3596777,4.52257812 53.8639258,4.02669922 Z" id="Path"></path>
                                <path d="M64.6819824,29.4163086 C56.6172852,20.2859668 44.6425586,12.6953125 32.5,12.6953125 C20.355791,12.6953125 8.38119141,20.2878711 0.318017578,29.4163086 C-0.146123047,29.9418945 -0.0963574219,30.7441113 0.429101563,31.208252 C0.9546875,31.6723926 1.75703125,31.622627 2.22104492,31.097168 C2.49158203,30.7908301 2.7687207,30.4856348 3.04941406,30.1823438 C9.32280273,39.6611719 20.6950098,45.703125 32.5,45.703125 C44.3049902,45.703125 55.6771973,39.6611719 61.9505859,30.1823438 C62.2312793,30.4857617 62.508418,30.790957 62.7789551,31.097168 C63.2415723,31.6209766 64.0437891,31.6737891 64.5708984,31.208252 C65.0963574,30.7441113 65.146123,29.9417676 64.6819824,29.4163086 Z M32.5,43.1640625 C21.338916,43.1640625 10.6042676,37.3649707 4.86370117,28.3130859 C9.38678711,23.8810254 19.8378223,15.234375 32.5,15.234375 C45.1623047,15.234375 55.6132129,23.8810254 60.1362988,28.312959 C54.3957324,37.3649707 43.661084,43.1640625 32.5,43.1640625 Z" id="Shape"></path>
                            </g>
                        </g>
                    </g>
                </g>
            </g>
        </g>
    </g>
</svg>