<?xml version="1.0" encoding="UTF-8"?>
<svg width="64px" height="54px" viewBox="0 0 64 54" version="1.1" xmlns="http://www.w3.org/2000/svg" xmlns:xlink="http://www.w3.org/1999/xlink">
    <!-- Generator: Sketch 59.1 (86144) - https://sketch.com -->
    <title>radiation</title>
    <desc>Created with Sketch.</desc>
    <g id="Dizajn" stroke="none" stroke-width="1" fill="none" fill-rule="evenodd">
        <g id="3.-Euromedik---Usluge" transform="translate(-348.000000, -3664.000000)" fill="#E12630" fill-rule="nonzero">
            <g id="Group" transform="translate(0.000000, 906.000000)">
                <g id="item" transform="translate(200.000000, 2665.000000)">
                    <g id="content" transform="translate(25.000000, 60.000000)">
                        <g id="icon" transform="translate(95.000000, 0.000000)">
                            <g id="radiation" transform="translate(28.000000, 33.000000)">
                                <path d="M61.8125,39.844875 L60.3125,39.844875 L60.3125,32.028 C60.3125,31.166375 59.611625,30.4655 58.75,30.4655 L57.05925,30.4655 C56.197625,30.4655 55.49675,31.166375 55.49675,32.028 L55.49675,34.152 L52.53075,34.152 L52.53075,33.4515 C52.53075,32.589875 51.829875,31.889 50.96825,31.889 L41.13475,31.889 L29.877125,31.889 L27.162875,31.889 C26.668125,31.889 26.1865,31.966875 25.7295,32.118625 C25.132125,29.671 22.920625,27.849125 20.29175,27.849125 C17.2055,27.849125 14.694875,30.359875 14.694875,33.446 C14.694875,34.712625 15.11925,35.88125 15.831375,36.820125 L14.85075,36.820125 C13.644625,36.820125 12.66325,37.8015 12.66325,39.007625 L12.66325,39.837 C12.66325,39.839625 12.6635,39.84225 12.6635,39.844875 L11.6715,39.844875 L11.6715,35.125 C11.6715,34.60725 11.251875,34.1875 10.734,34.1875 C10.216125,34.1875 9.7965,34.60725 9.7965,35.125 L9.7965,51.86275 L1.875,51.86275 L1.875,2.1445 C1.875,2.005125 1.99275,1.88725 2.13225,1.88725 L41.55775,1.88725 C41.697125,1.88725 41.815,2.005 41.815,2.1445 L41.815,5.9675 C41.815,6.106875 41.69725,6.22475 41.55775,6.22475 L15.1545,6.22475 C12.200125,6.22475 9.796625,8.62825 9.796625,11.58275 L9.796625,30.5 C9.796625,31.01775 10.21625,31.4375 10.734125,31.4375 C11.252,31.4375 11.671625,31.01775 11.671625,30.5 L11.671625,11.58275 C11.671625,9.66225 13.234,8.09975 15.1545,8.09975 L23.2625,8.09975 L23.2625,10.5 C23.2625,11.361625 23.963375,12.0625 24.825,12.0625 L25.6375,12.0625 L25.6375,13 C25.6375,13.861625 26.338375,14.5625 27.2,14.5625 L37.375,14.5625 C38.236625,14.5625 38.9375,13.861625 38.9375,13 L38.9375,12.0625 L39.75,12.0625 C40.611625,12.0625 41.3125,11.361625 41.3125,10.5 L41.3125,8.09975 L41.55775,8.09975 C42.733375,8.09975 43.69,7.14325 43.69,5.9675 L43.69,2.1445 C43.69,0.96875 42.7335,0.01225 41.55775,0.01225 L2.13225,0.01225 C0.9565,0.01225 0,0.96875 0,2.1445 L0,52.80025 C0,53.318 0.419625,53.73775 0.9375,53.73775 L10.734125,53.73775 C11.252,53.73775 11.671625,53.318 11.671625,52.80025 L11.671625,48.959 L19.6875,48.959 L19.6875,52.17525 C19.6875,53.03675 20.388375,53.73775 21.25,53.73775 L50.345625,53.73775 C51.20725,53.73775 51.908125,53.03675 51.908125,52.17525 L51.908125,48.959 L53.61975,48.959 C54.825875,48.959 55.80725,47.977625 55.80725,46.7715 L55.80725,45.856625 L61.8125,45.856625 C63.018625,45.856625 64,44.87525 64,43.669125 L64,42.0325 C64,40.82625 63.018625,39.844875 61.8125,39.844875 Z M39.4375,10.1875 L35.875,10.1875 C35.357125,10.1875 34.9375,10.60725 34.9375,11.125 C34.9375,11.64275 35.357125,12.0625 35.875,12.0625 L37.0625,12.0625 L37.0625,12.6875 L27.5125,12.6875 L27.5125,12.0625 L31.25,12.0625 C31.767875,12.0625 32.1875,11.64275 32.1875,11.125 C32.1875,10.60725 31.767875,10.1875 31.25,10.1875 L25.1375,10.1875 L25.1375,8.09975 L39.4375,8.09975 L39.4375,10.1875 Z M57.37175,32.340625 L58.4375,32.340625 L58.4375,33.6145 L57.37175,33.6145 L57.37175,32.340625 Z M52.53075,36.027125 L55.49675,36.027125 L55.49675,36.42 L52.53075,36.42 L52.53075,36.027125 Z M52.53075,38.295 L56.43425,38.295 C56.952125,38.295 57.37175,37.87525 57.37175,37.3575 L57.37175,35.4895 L58.4375,35.4895 L58.4375,39.844875 L52.53075,39.844875 L52.53075,38.295 Z M30.189625,33.764 L30.189625,33.764 L50.655875,33.764 L50.655875,39.844875 L42.01375,39.844875 C42.080125,39.628375 42.116125,39.398875 42.116125,39.160875 C42.116125,37.866125 41.06275,36.81275 39.768125,36.81275 L30.189625,36.81275 L30.189625,33.764 L30.189625,33.764 Z M20.291875,29.724125 C22.344125,29.724125 24.013625,31.39375 24.013625,33.446 C24.013625,33.472 24.0125,33.49775 24.011625,33.5235 L24.0105,33.5585 C23.999125,33.92175 24.198875,34.258875 24.523,34.423375 C24.847,34.588 25.237,34.5505 25.52375,34.327125 C25.996625,33.95875 26.563375,33.764 27.162875,33.764 L28.314625,33.764 L28.314625,36.81275 L27.5,36.81275 C26.982125,36.81275 26.5625,37.2325 26.5625,37.75025 C26.5625,38.268 26.982125,38.68775 27.5,38.68775 L39.76825,38.68775 C40.029125,38.68775 40.24125,38.9 40.24125,39.160875 C40.24125,39.42175 40.029125,39.634 39.76825,39.634 L27.163,39.634 C25.69025,39.634 24.492,38.435875 24.492,36.963 L24.492,36.771125 C24.492,36.3935 24.2655,36.05275 23.917375,35.90675 C23.800125,35.8575 23.676875,35.833625 23.55475,35.833625 C23.31375,35.833625 23.07675,35.9265 22.897875,36.102 C22.591875,36.40225 22.243,36.643375 21.865375,36.82 L18.723625,36.82 C17.453,36.227125 16.57,34.938125 16.57,33.446 C16.57,31.39375 18.239625,29.724125 20.291875,29.724125 Z M14.538375,39.007625 C14.538375,38.83825 14.6815,38.695125 14.850875,38.695125 L22.563,38.695125 C22.732375,38.695125 22.8755,38.83825 22.8755,39.007625 L22.8755,39.837 C22.8755,39.839625 22.87475,39.84225 22.874625,39.844875 L14.539125,39.844875 C14.539125,39.84225 14.538375,39.83975 14.538375,39.837 L14.538375,39.007625 Z M50.033125,51.86275 L21.5625,51.86275 L21.5625,48.959 L50.033125,48.959 L50.033125,51.86275 Z M62.125,43.669 C62.125,43.838375 61.981875,43.9815 61.8125,43.9815 L50.625,43.9815 C50.107125,43.9815 49.6875,44.40125 49.6875,44.919 C49.6875,45.43675 50.107125,45.8565 50.625,45.8565 L53.93225,45.8565 L53.93225,46.771375 C53.93225,46.94075 53.789125,47.083875 53.61975,47.083875 L11.671625,47.083875 L11.671625,45.8565 L45.999875,45.8565 C46.51775,45.8565 46.937375,45.43675 46.937375,44.919 C46.937375,44.40125 46.51775,43.9815 45.999875,43.9815 L11.671625,43.9815 L11.671625,41.719875 L61.8125,41.719875 C61.981875,41.719875 62.125,41.863 62.125,42.032375 L62.125,43.669 Z" id="Shape"></path>
                                <path d="M38.033375,19.574875 C37.716875,19.165 37.127875,19.08975 36.718375,19.405875 C35.511125,20.33825 33.9375,20.85175 32.2875,20.851875 C32.28725,20.851875 32.287125,20.851875 32.286875,20.851875 C30.637375,20.851875 29.064,20.338375 27.85675,19.405875 C27.447,19.0895 26.858125,19.165 26.541625,19.574875 C26.225125,19.984625 26.30075,20.573375 26.7105,20.889875 C28.244375,22.074625 30.224625,22.727 32.286875,22.727 L32.2875,22.727 C34.350125,22.726875 36.33075,22.0745 37.864375,20.89 C38.274125,20.5735 38.349875,19.98475 38.033375,19.574875 Z" id="Path"></path>
                                <path d="M40.524125,22.7325 C40.231125,22.3055 39.647625,22.19675 39.220625,22.489875 C37.273,23.826375 34.8105,24.5625 32.2875,24.5625 C29.7645,24.5625 27.30225,23.826375 25.35425,22.489875 C24.927125,22.19675 24.34375,22.3055 24.05075,22.7325 C23.757875,23.159375 23.866375,23.743 24.293375,24.035875 C26.5505,25.584625 29.389375,26.4375 32.287375,26.4375 C35.1855,26.4375 38.024375,25.584625 40.2815,24.035875 C40.7085,23.743 40.817,23.159375 40.524125,22.7325 Z" id="Path"></path>
                                <path d="M35.353875,16.222875 C34.947625,15.90175 34.358125,15.970375 34.037,16.3765 C33.658125,16.8555 33.004,17.1415 32.2875,17.1415 C31.57125,17.1415 30.917125,16.8555 30.538125,16.376375 C30.21675,15.97025 29.627,15.9015 29.22125,16.22275 C28.815125,16.544 28.746375,17.133625 29.067625,17.539625 C29.799125,18.4645 31.002875,19.0165 32.287375,19.0165 C33.57225,19.0165 34.776,18.4645 35.507375,17.53975 C35.828625,17.133625 35.759875,16.544125 35.353875,16.222875 Z" id="Path"></path>
                                <path d="M39.267625,3.0625 L38.956625,3.0625 C38.43875,3.0625 38.019125,3.48225 38.019125,4 C38.019125,4.51775 38.43875,4.9375 38.956625,4.9375 L39.267625,4.9375 C39.7855,4.9375 40.205125,4.51775 40.205125,4 C40.205125,3.48225 39.7855,3.0625 39.267625,3.0625 Z" id="Path"></path>
                                <path d="M36.414375,3.0625 L36.103375,3.0625 C35.5855,3.0625 35.165875,3.48225 35.165875,4 C35.165875,4.51775 35.5855,4.9375 36.103375,4.9375 L36.414375,4.9375 C36.932125,4.9375 37.351875,4.51775 37.351875,4 C37.351875,3.48225 36.932125,3.0625 36.414375,3.0625 Z" id="Path"></path>
                                <path d="M33.561,3.0625 L33.25,3.0625 C32.732125,3.0625 32.3125,3.48225 32.3125,4 C32.3125,4.51775 32.732125,4.9375 33.25,4.9375 L33.561,4.9375 C34.078875,4.9375 34.4985,4.51775 34.4985,4 C34.4985,3.48225 34.078875,3.0625 33.561,3.0625 Z" id="Path"></path>
                                <path d="M22.3115,30.92025 L21.57225,30.5095 C21.119125,30.257875 20.54875,30.421125 20.2975,30.87375 C20.046,31.326375 20.209,31.897125 20.661625,32.148625 L21.400875,32.559375 C21.545125,32.6395 21.70125,32.6775 21.855375,32.6775 C22.184875,32.677375 22.504375,32.503375 22.675625,32.195125 C22.927125,31.7425 22.764125,31.17175 22.3115,30.92025 Z" id="Path"></path>
                            </g>
                        </g>
                    </g>
                </g>
            </g>
        </g>
    </g>
</svg>