<?xml version="1.0" encoding="UTF-8"?>
<svg width="40px" height="66px" viewBox="0 0 40 66" version="1.1" xmlns="http://www.w3.org/2000/svg" xmlns:xlink="http://www.w3.org/1999/xlink">
    <!-- Generator: Sketch 59.1 (86144) - https://sketch.com -->
    <title>nose</title>
    <desc>Created with Sketch.</desc>
    <g id="Dizajn" stroke="none" stroke-width="1" fill="none" fill-rule="evenodd">
        <g id="3.-Euromedik---Usluge" transform="translate(-746.000000, -3125.000000)" fill="#E12630" fill-rule="nonzero">
            <g id="Group" transform="translate(0.000000, 906.000000)">
                <g id="item" transform="translate(586.000000, 2132.000000)">
                    <g id="content" transform="translate(25.000000, 60.000000)">
                        <g id="icon" transform="translate(95.000000, 0.000000)">
                            <g id="nose" transform="translate(40.000000, 27.000000)">
                                <path d="M7.15032154,45.6606713 C5.20749595,45.6606713 2.51657955,42.003115 2.51657955,35.1356512 C2.51657955,30.1793609 20.3300844,12.2995377 31.5584808,2.193529 C32.0749597,1.7287982 32.1161576,0.932978264 31.6519293,0.416499164 C31.1866961,-0.0999799357 30.3923834,-0.14168 29.8754019,0.323050675 C26.8167203,3.07475884 0,27.4331793 0,35.1356512 C0,43.6063102 3.68418405,48.1772508 7.15032154,48.1772508 C10.8144091,48.1772508 19.14791,49.9271504 19.14791,52.8104903 C19.14791,54.5573754 17.9305667,56.4670418 16.7524116,58.3139068 C15.2888867,60.6084205 13.7751205,62.9818127 14.8623393,65.1567524 C15.0834004,65.5978698 15.5270297,65.8525924 15.9892484,65.8525924 C16.1781551,65.8525924 16.3700764,65.8098875 16.5504422,65.7194534 C17.1724277,65.4089631 17.4241358,64.6528336 17.1131432,64.0313505 C16.6634848,63.1325362 17.7878818,61.3700764 18.8740957,59.6669011 C20.1813705,57.6155547 21.6644895,55.2919011 21.6644895,52.8104903 C21.6644895,46.9036374 9.53778135,45.6606713 7.15032154,45.6606713 Z" id="Path"></path>
                                <path d="M29.6588625,45.954582 C29.8593248,45.4988947 29.77291,44.9673433 29.4378014,44.5985731 C24.4021302,39.0650121 21.3595257,37.1699156 19.2710008,38.258139 C17.0337621,39.4222266 17.7009646,43.2571343 17.9587017,44.4046423 C18.1109325,45.0813906 18.7856713,45.5109525 19.4599075,45.355205 C20.1381632,45.2044815 20.5647106,44.53125 20.4134848,43.8539992 C20.0803859,42.3532958 20.1517284,40.7455788 20.4230305,40.494373 C20.4416198,40.4913585 21.5856109,40.2105105 25.5727492,44.1876005 L23.1807677,44.1876005 C22.4849276,44.1876005 21.9222266,44.7508039 21.9222266,45.4456391 C21.9222266,46.1404743 22.4849276,46.7041801 23.1807677,46.7041801 L28.5073352,46.7041801 C29.0052251,46.7041801 29.4573955,46.4102693 29.6588625,45.954582 Z" id="Path"></path>
                                <path d="M38.5475281,38.4485531 C38.3425442,37.7848674 37.6406752,37.4075563 36.9749799,37.6160571 C36.3102894,37.8200361 35.9374999,38.5244172 36.1419815,39.1881029 C37.9787982,45.1567524 37.8948954,49.4222266 35.8993168,51.5248192 C33.4591037,54.0936495 28.724377,52.9501608 28.647508,52.9295619 C27.9777934,52.7582395 27.2909968,53.164188 27.1176648,53.8374197 C26.9453376,54.5101487 27.3507838,55.1954381 28.0245177,55.3682677 C28.1385651,55.39791 29.4327774,55.7184486 31.1359525,55.7184486 C33.1832797,55.7184486 35.8199357,55.2552251 37.7135249,53.2686896 C40.4195137,50.4305667 40.7003617,45.4441318 38.5475281,38.4485531 L38.5475281,38.4485531 Z" id="Path"></path>
                            </g>
                        </g>
                    </g>
                </g>
            </g>
        </g>
    </g>
</svg>