<?xml version="1.0" encoding="UTF-8"?>
<svg width="60px" height="65px" viewBox="0 0 60 65" version="1.1" xmlns="http://www.w3.org/2000/svg" xmlns:xlink="http://www.w3.org/1999/xlink">
    <!-- Generator: Sketch 59.1 (86144) - https://sketch.com -->
    <title>broken-arm</title>
    <desc>Created with Sketch.</desc>
    <g id="Dizajn" stroke="none" stroke-width="1" fill="none" fill-rule="evenodd">
        <g id="3.-Euromedik---Usluge" transform="translate(-736.000000, -2060.000000)" fill="#E12630" fill-rule="nonzero">
            <g id="Group" transform="translate(0.000000, 906.000000)">
                <g id="item" transform="translate(586.000000, 1066.000000)">
                    <g id="content" transform="translate(25.000000, 60.000000)">
                        <g id="icon" transform="translate(95.000000, 0.000000)">
                            <g id="broken-arm" transform="translate(30.000000, 28.000000)">
                                <path d="M59.9519748,49.322395 C59.9519748,47.6398739 58.6807563,46.2492857 57.0485294,46.0588235 C57.2551261,45.6289916 57.3710924,45.1477311 57.3710924,44.6398739 C57.3710924,42.827521 55.8966807,41.3531092 54.0844538,41.3531092 L50.055,41.3531092 C49.6888235,40.8536975 49.247395,40.4131513 48.747479,40.0477311 L48.9402101,39.855 C49.6496218,39.1454622 50.0403782,38.2023529 50.0403782,37.1989916 C50.0403782,36.1956303 49.6496218,35.252521 48.9402101,34.5431092 C48.2307983,33.8335714 47.287563,33.4428151 46.2842017,33.4428151 C45.2808403,33.4428151 44.337605,33.8336975 43.6281933,34.5431092 L39.2763025,38.895 L26.9296639,38.895 C26.2468487,38.895 25.6914706,38.3396218 25.6914706,37.6569328 L25.6914706,35.097479 C25.6914706,35.0962185 25.6914706,35.094958 25.6914706,35.0936975 L25.6914706,25.6909664 C25.6914706,24.4186134 25.1082353,23.2801261 24.1952521,22.5283613 C24.1685294,22.504916 24.1407983,22.4828571 24.1118067,22.4626891 C23.8140756,22.2301261 23.4836975,22.0377731 23.1283613,21.8939496 L23.1283613,16.8306303 C23.1283613,16.3084034 22.7052101,15.8852521 22.1829832,15.8852521 C21.6607563,15.8852521 21.237605,16.3085294 21.237605,16.8306303 L21.237605,21.5954622 L4.50214286,21.5954622 L4.50214286,10.2583613 C4.50214286,5.64441176 8.25579832,1.8907563 12.8697479,1.8907563 C17.4836975,1.8907563 21.2373529,5.64441176 21.2373529,10.2583613 L21.2373529,12.4254202 C21.2373529,12.9476471 21.6605042,13.3707983 22.1827311,13.3707983 C22.704958,13.3707983 23.1281092,12.9476471 23.1281092,12.4254202 L23.1281092,10.2583613 C23.1279832,4.60184874 18.5262605,0 12.8697479,0 C7.21323529,0 2.61138655,4.60184874 2.61138655,10.2583613 L2.61138655,21.8940756 C1.11037815,22.5021429 0.0482773109,23.9744118 0.0482773109,25.6910924 L0.0482773109,35.0628151 C0.0482773109,35.0640756 0.0482773109,35.0653361 0.0482773109,35.0665966 L0.0482773109,39.6753782 C0.0482773109,42.2727731 0.450756303,44.8071429 1.21096639,47.2047479 C1.21235294,47.2097899 1.2142437,47.2145798 1.2157563,47.2196218 C3.1492437,53.3045798 7.38844538,58.5068067 13.2085714,61.6171008 C13.6694118,61.8631513 14.2418067,61.6893277 14.4878571,61.2289916 C14.7340336,60.7685294 14.5602101,60.1957563 14.0997479,59.9497059 C13.9671429,59.8788655 13.837437,59.8041176 13.7065966,59.7308824 L17.0503361,40.1855042 L23.8003361,36.6463866 L23.8003361,37.6568067 C23.8003361,39.1583193 24.8635714,40.4155462 26.2765966,40.7166807 L22.5051681,62.5216387 C20.989916,62.3640756 19.4979832,62.0581513 18.0476471,61.6046218 C17.5493697,61.4484454 17.0190756,61.7266387 16.8632773,62.2247899 C16.707479,62.7231933 16.9851681,63.2533613 17.4834454,63.4091597 C19.8787815,64.1580252 22.3777311,64.5380672 24.9109664,64.5380672 L29.2984034,64.5380672 C29.2997899,64.5380672 29.3010504,64.5380672 29.302437,64.5380672 C29.3034454,64.5380672 29.3043277,64.5380672 29.3053361,64.5380672 L40.6642437,64.5380672 C40.6656303,64.5380672 40.6668908,64.5380672 40.6682773,64.5380672 C40.6692857,64.5380672 40.6701681,64.5380672 40.6711765,64.5380672 L45.2188235,64.5380672 C47.2486134,64.5380672 49.0448319,63.5227311 50.1297479,61.9745798 L52.0377731,61.9745798 C53.8501261,61.9745798 55.3245378,60.5001681 55.3245378,58.6879412 C55.3245378,58.1890336 55.2122269,57.7159664 55.012437,57.2919328 L55.912563,57.2919328 C57.7247899,57.2919328 59.1992017,55.817521 59.1992017,54.0052941 C59.1992017,53.2619748 58.9508824,52.5758824 58.5332773,52.0246639 C59.3896639,51.4307143 59.9519748,50.4412185 59.9519748,49.322395 Z M1.93903361,25.6909664 C1.93903361,24.4752101 2.92802521,23.4862185 4.14365546,23.4862185 L21.0647899,23.4862185 L1.93903361,33.5140336 L1.93903361,25.6909664 Z M11.9717647,58.6592017 C7.91394958,55.8939076 4.89315126,51.9404622 3.27554622,47.4076891 L14.9430252,41.2902101 L11.9717647,58.6592017 Z M23.8003361,34.5113445 L2.70768908,45.5705042 C2.20537815,43.6734454 1.93903361,41.6953361 1.93903361,39.6752521 L1.93903361,35.6489496 L23.3832353,24.4056303 C23.6445378,24.7680252 23.8003361,25.2112185 23.8003361,25.6910924 L23.8003361,34.5113445 Z M44.965084,35.8798739 C45.317395,35.527563 45.7857983,35.3334454 46.2840756,35.3334454 C46.7823529,35.3334454 47.2507563,35.527563 47.6030672,35.88 C48.3303782,36.6073109 48.3303782,37.7906723 47.6030672,38.5179832 L46.9657563,39.1552941 C46.887479,39.1313445 46.8085714,39.1086555 46.7290336,39.0878571 C46.7243697,39.0865966 46.719958,39.0848319 46.7151681,39.0836975 C46.7131513,39.0831933 46.7110084,39.0829412 46.7089916,39.082437 C46.232395,38.960042 45.7331092,38.8947479 45.2188235,38.8947479 L41.9502101,38.8947479 L44.965084,35.8798739 Z M28.5611345,62.6470588 L24.9108403,62.6470588 C24.7415546,62.6470588 24.572395,62.6446639 24.4033613,62.6410084 L28.1834874,40.7855042 L33.9555882,40.7855042 L28.5611345,62.6470588 Z M39.9269748,62.6470588 L30.5086134,62.6470588 L35.9031933,40.7855042 L45.2188235,40.7855042 C45.2529832,40.7855042 45.2867647,40.7872689 45.3209244,40.7881513 L39.9269748,62.6470588 Z M49.322395,58.5433613 C49.322395,60.8060924 47.4815546,62.6470588 45.2186975,62.6470588 L41.8743277,62.6470588 L47.1494118,41.2694118 C48.4413025,41.9613025 49.322395,43.3241597 49.322395,44.8893277 L49.322395,58.5433613 Z M54.0843277,43.2436134 L54.0843277,43.2436134 C54.8539916,43.2437395 55.4802101,43.870084 55.4802101,44.6397479 C55.4802101,45.4094118 54.8539916,46.0356303 54.0843277,46.0356303 L51.2131513,46.0356303 L51.2131513,44.8892017 C51.2131513,44.3185714 51.1313445,43.7669748 50.9815966,43.2436134 L54.0843277,43.2436134 Z M52.0376471,60.0838235 L51.0115966,60.0838235 C51.142563,59.5919748 51.2131513,59.0759244 51.2131513,58.5433613 L51.2131513,57.2918067 L52.0376471,57.2918067 C52.8073109,57.2918067 53.4336555,57.9181513 53.4336555,58.6878151 C53.4336555,59.457605 52.807437,60.0838235 52.0376471,60.0838235 Z M55.912437,55.4011765 L51.2131513,55.4011765 L51.2131513,52.6092857 L55.912437,52.6092857 C56.6821008,52.6092857 57.3083193,53.2356303 57.3083193,54.0052941 C57.3084454,54.774958 56.6822269,55.4011765 55.912437,55.4011765 Z M56.6653361,50.7184034 L51.2131513,50.7184034 L51.2131513,47.9265126 L56.6653361,47.9265126 C57.435,47.9265126 58.0612185,48.5527311 58.0612185,49.322395 C58.0612185,50.0920588 57.435,50.7184034 56.6653361,50.7184034 Z" id="Shape"></path>
                            </g>
                        </g>
                    </g>
                </g>
            </g>
        </g>
    </g>
</svg>