<?xml version="1.0" encoding="UTF-8"?>
<svg width="40px" height="67px" viewBox="0 0 40 67" version="1.1" xmlns="http://www.w3.org/2000/svg" xmlns:xlink="http://www.w3.org/1999/xlink">
    <!-- Generator: Sketch 59.1 (86144) - https://sketch.com -->
    <title>beauty</title>
    <desc>Created with Sketch.</desc>
    <g id="Dizajn" stroke="none" stroke-width="1" fill="none" fill-rule="evenodd">
        <g id="3.-Euromedik---Usluge" transform="translate(-1132.000000, -3125.000000)" fill="#E12630" fill-rule="nonzero">
            <g id="Group" transform="translate(0.000000, 906.000000)">
                <g id="item" transform="translate(972.000000, 2132.000000)">
                    <g id="content" transform="translate(25.000000, 60.000000)">
                        <g id="icon" transform="translate(95.000000, 0.000000)">
                            <g id="beauty" transform="translate(40.000000, 27.000000)">
                                <path d="M17.483871,33.2056452 C16.9495968,33.2056452 16.516129,33.6386089 16.516129,34.1733871 C16.516129,34.7263105 16.0665323,35.1759072 15.5131048,35.1759072 C14.9601814,35.1759072 14.5105846,34.7263105 14.5105846,34.1733871 C14.5105846,33.6386089 14.0771169,33.2056452 13.5428427,33.2056452 C13.0080645,33.2056452 12.5751008,33.6386089 12.5751008,34.1733871 C12.5751008,35.7933468 13.8931452,37.1113911 15.5131048,37.1113911 C17.1335685,37.1113911 18.4516129,35.7933468 18.4516129,34.1733871 C18.4516129,33.6386089 18.0186492,33.2056452 17.483871,33.2056452 Z" id="Path"></path>
                                <path d="M24.483871,37.1118952 C26.1038307,37.1118952 27.4223791,35.7933468 27.4223791,34.1733871 C27.4223791,33.6386089 26.9889112,33.2056452 26.4546372,33.2056452 C25.9198588,33.2056452 25.4868952,33.6386089 25.4868952,34.1733871 C25.4868952,34.7263105 25.0367943,35.1764114 24.483871,35.1764114 C23.9304436,35.1764114 23.4808467,34.7263105 23.4808467,34.1733871 C23.4808467,33.6386089 23.0473791,33.2056452 22.5131048,33.2056452 C21.9783266,33.2056452 21.5453628,33.6386089 21.5453628,34.1733871 C21.5453628,35.7933468 22.8634072,37.1118952 24.483871,37.1118952 Z" id="Path"></path>
                                <path d="M8.9233871,36.0801412 C8.90272181,35.546371 8.4511089,35.1320565 7.91834684,35.1512097 C7.38457665,35.1723791 6.96874994,35.6224799 6.98941535,36.1567541 C7.02066529,36.9506049 7.30594761,37.7288307 7.83618955,38.4687499 C8.02520155,38.7323588 8.32258065,38.8724799 8.623992,38.8724799 C8.81905239,38.8724799 9.01612903,38.8135081 9.186996,38.6915323 C9.62096774,38.3800403 9.72076619,37.7752015 9.40927419,37.3412298 C9.10332658,36.9138105 8.93951613,36.4899194 8.9233871,36.0801412 Z" id="Path"></path>
                                <path d="M16.3351814,38.0488911 C15.875504,38.4324596 15.482863,38.7132057 15.0987903,38.9329637 C14.6350806,39.1980846 14.4737903,39.7893146 14.7389112,40.2530243 C14.9178427,40.5655241 15.2439516,40.7409275 15.5801412,40.7409275 C15.7429435,40.7409275 15.9077621,40.6995968 16.0594759,40.6134072 C16.5448588,40.3356854 17.0267137,39.9929435 17.5756049,39.5342742 C17.9863911,39.1915323 18.0408266,38.5811492 17.6985886,38.170867 C17.3558467,37.7610888 16.7454637,37.7061492 16.3351814,38.0488911 L16.3351814,38.0488911 Z" id="Path"></path>
                                <path d="M12.8820565,39.4042338 C12.3805444,39.3276209 11.8442541,39.1522178 11.3296372,38.8976814 C10.8508065,38.6607863 10.2706653,38.8568548 10.0332661,39.3356854 C9.79637097,39.8150201 9.99193548,40.3951613 10.4712702,40.6325605 C11.1612903,40.9742943 11.8931452,41.2111895 12.5887097,41.3175404 C12.6386089,41.3251008 12.688004,41.329133 12.7363911,41.329133 C13.2061492,41.329133 13.6184476,40.9863911 13.6920363,40.5075605 C13.7731855,39.9793347 13.4102823,39.4853831 12.8820565,39.4042338 Z" id="Path"></path>
                                <path d="M24.984375,38.9329637 C24.6008065,38.7132057 24.2076613,38.4324596 23.7479839,38.0488911 C23.3377017,37.7061492 22.7273186,37.7610888 22.3850806,38.171371 C22.0423387,38.5816532 22.0972782,39.1915323 22.5075605,39.5342742 C23.0569556,39.9929435 23.5388105,40.3361895 24.0241935,40.6134072 C24.1754032,40.7001008 24.3407258,40.7409275 24.5035283,40.7409275 C24.8392137,40.7409275 25.1658266,40.5660283 25.3442541,40.2535283 C25.609375,39.7893146 25.4485886,39.1980846 24.984375,38.9329637 Z" id="Path"></path>
                                <path d="M28.7535283,38.8976814 C28.2394154,39.1522178 27.7026209,39.3276209 27.2011089,39.4042338 C26.6728831,39.4853831 26.3104839,39.9793347 26.391633,40.5075605 C26.4647177,40.9863911 26.8770161,41.328629 27.3467742,41.328629 C27.3956653,41.328629 27.4450605,41.3251008 27.4949597,41.3175404 C28.1900201,41.2106854 28.921875,40.9737903 29.6118952,40.6325605 C30.0912298,40.3951613 30.2872983,39.8145161 30.0498992,39.3356854 C29.813004,38.8568548 29.2323588,38.6607863 28.7535283,38.8976814 L28.7535283,38.8976814 Z" id="Path"></path>
                                <path d="M32.1648186,35.1517137 C31.6330645,35.1325605 31.1809476,35.546371 31.1597782,36.0801412 C31.1436492,36.4899194 30.9798387,36.9138105 30.6738911,37.3412298 C30.3623992,37.7757057 30.4621975,38.3800403 30.8961693,38.6915323 C31.0670363,38.8140121 31.2641129,38.8729839 31.4591734,38.8729839 C31.7605846,38.8729839 32.0574596,38.7323588 32.2469757,38.4687499 C32.7772178,37.7288307 33.061996,36.9506049 33.0937499,36.1567541 C33.1149194,35.6224799 32.6990928,35.1723791 32.1648186,35.1517137 L32.1648186,35.1517137 Z" id="Path"></path>
                                <path d="M17.5322581,23.609375 C16.9974799,23.609375 16.5645161,24.0428427 16.5645161,24.5771169 L16.5645161,25.4803427 C16.5645161,26.0146169 16.9974799,26.4480846 17.5322581,26.4480846 C18.0665323,26.4480846 18.5,26.0146169 18.5,25.4803427 L18.5,24.5771169 C18.5,24.0428427 18.0665323,23.609375 17.5322581,23.609375 Z" id="Path"></path>
                                <path d="M17.5322581,27.4803427 C16.9974799,27.4803427 16.5645161,27.9138105 16.5645161,28.4480846 L16.5645161,30.3835685 C16.5645161,30.9183468 16.9974799,31.3513105 17.5322581,31.3513105 C18.0665323,31.3513105 18.5,30.9183468 18.5,30.3835685 L18.5,28.4480846 C18.5,27.9138105 18.0665323,27.4803427 17.5322581,27.4803427 Z" id="Path"></path>
                                <path d="M22.5478831,31.3513105 C23.0826613,31.3513105 23.515625,30.9183468 23.515625,30.3835685 L23.515625,28.4480846 C23.515625,27.9138105 23.0826613,27.4803427 22.5478831,27.4803427 C22.0136089,27.4803427 21.5801412,27.9138105 21.5801412,28.4480846 L21.5801412,30.3835685 C21.5801412,30.9183468 22.0136089,31.3513105 22.5478831,31.3513105 Z" id="Path"></path>
                                <path d="M22.5478831,26.4480846 C23.0826613,26.4480846 23.515625,26.015121 23.515625,25.4803427 L23.515625,24.5776209 C23.515625,24.0428427 23.0826613,23.609879 22.5478831,23.609879 C22.0136089,23.609879 21.5801412,24.0428427 21.5801412,24.5776209 L21.5801412,25.4803427 C21.5801412,26.015121 22.0136089,26.4480846 22.5478831,26.4480846 Z" id="Path"></path>
                                <path d="M35.3195564,56.5110888 L26.6058467,52.7983871 C26.1144154,52.5887097 25.796875,52.108367 25.796875,51.5745968 L25.796875,50.2883065 C29.4047379,48.4863911 32.2111895,45.7459677 34.1542338,42.1219757 C35.3326613,39.9233871 36.1738911,37.4440524 36.6688508,34.7242943 C37.0065524,34.5564516 37.2696573,34.3311492 37.3931452,34.2142137 C40.1507057,31.7237903 39.7318548,23.9299395 39.6743951,23.0398186 C39.6123992,22.1935484 39.5085685,21.3785283 39.3654234,20.6179435 C39.267137,20.0922379 38.7615928,19.7469757 38.2358871,19.8447581 C37.7106854,19.9435484 37.3649194,20.4490928 37.4632057,20.9742943 C37.5927419,21.6648186 37.6875,22.4072581 37.7434476,23.1728831 C37.9294355,26.0534274 37.6728831,31.063004 36.2308467,32.6431452 C35.7001008,30.4425404 33.2731855,24.0715726 22.6018145,20.0982863 C22.5710685,20.0871975 19.4647177,18.9198588 16.5756049,16.8881048 C12.9148186,14.313004 11.2988911,11.6381048 11.7726814,8.938004 C11.7767137,8.91481858 11.7807459,8.88608877 11.7827621,8.86239923 C11.7998992,8.69405239 12.1910283,5.2646169 15.7943548,3.25453626 C17.0932459,5.20665316 19.3256049,6.2993951 21.5257057,7.248992 C23.8629032,8.25806452 25.873992,9.23689523 26.8114919,11.000504 C26.9853831,11.328125 27.3205645,11.5146169 27.6668347,11.5146169 C27.8200605,11.5146169 27.9753025,11.4778226 28.1204637,11.4012097 C28.5922379,11.1502015 28.7716734,10.5640121 28.5206653,10.0922379 C27.1885081,7.58518142 24.358871,6.36391123 22.2933468,5.47227819 C20.4223791,4.66481858 18.6628025,3.81653226 17.6169355,2.47076619 C17.6930444,2.44606852 17.766633,2.42036284 17.8447581,2.39717742 C21.2520161,1.37903226 25.0635081,2.06401213 28.0413306,4.22782258 C30.3785283,5.92691535 32.3482863,8.05695561 33.8961693,10.5589717 C33.9385081,10.6270161 33.9506049,10.7101814 33.9304436,10.7872983 L33.7308467,11.5332661 C33.5756049,12.1134072 33.6648186,12.7414315 33.9753025,13.2565524 C34.1577621,13.5599799 34.3402218,13.8563508 34.5211693,14.1512097 C35.1053427,15.1018145 35.6572581,16.000504 36.140121,16.9863911 C36.375504,17.4662298 36.9551412,17.6648186 37.4349799,17.4299395 C37.9148186,17.1950605 38.1134072,16.6154234 37.8785283,16.1350806 C37.3548387,15.0660283 36.7792338,14.1295363 36.1703628,13.1376008 C35.9919355,12.8482863 35.8125,12.5559476 35.6330645,12.2580645 C35.5922379,12.1905241 35.5806452,12.108367 35.6008065,12.0332661 L35.7998992,11.2872983 C35.9576613,10.6970766 35.8639112,10.0609879 35.5423387,9.54032258 C33.8613911,6.82358865 31.7207662,4.50957665 29.1789315,2.66229832 C25.7167339,0.14566529 21.2721774,-0.646673419 17.2908266,0.54233871 C10.7197581,2.50504026 9.92792335,8.03326606 9.8603831,8.63810477 C9.75151213,9.27620968 9.72983871,9.89364916 9.78225806,10.4909275 C8.56854839,10.8563508 7.46622981,11.3714717 6.49143148,12.0378025 C4.7016129,13.2620968 4.21673394,14.3044355 4.14566529,16.2862903 C4.14516129,16.2928427 4.14415329,16.2998992 4.14415329,16.3069556 C4.14415329,16.313004 4.14364916,16.3261089 4.14364916,16.3427419 C4.13760077,16.5342742 4.13508065,16.734375 4.13558465,16.9440524 C3.28074594,16.7358871 2.46169355,17.0660283 1.86441535,17.8704637 C1.37298387,18.5322581 0.516129032,20.2721774 0.298891097,24.4924395 C0.20715729,26.2772178 0.335181419,28.0035283 0.679435484,29.624496 C0.989919355,31.0861895 1.61743948,32.4364919 2.65473794,33.873992 C2.82006052,34.1023186 3.03225806,34.2787298 3.27066529,34.3971774 C3.75705652,37.2454637 4.61743948,39.8356854 5.84274194,42.1219757 C7.78528232,45.7449597 10.5907258,48.484375 14.1970766,50.2862903 L14.1970766,51.5745968 C14.1970766,52.108367 13.8795363,52.5887097 13.3881048,52.7983871 L13.2111895,52.8734879 C12.7192541,53.0831653 12.4904234,53.6512097 12.6995968,54.1431452 C12.9092742,54.6350806 13.4778226,54.8639112 13.9692541,54.6542338 L14.1466734,54.579133 C15.3528226,54.0650201 16.1325605,52.8855846 16.1325605,51.5745968 L16.1325605,51.1290323 C17.3855846,51.5856854 18.6920363,51.8170363 19.998992,51.8170363 C21.3044355,51.8170363 22.609375,51.5861895 23.8618952,51.1300403 L23.8618952,51.5745968 C23.8618952,52.8855846 24.641129,54.0650201 25.8472782,54.579133 L34.5609879,58.2918347 C35.9909275,58.9007057 36.9153226,60.2988911 36.9153226,61.8538307 L36.9153226,64.1290323 L3.07913303,64.1290323 L3.07913303,61.8538307 C3.07913303,60.2988911 4.00302426,58.9007057 5.43296374,58.2918347 L9.89868955,56.3891129 C10.390121,56.1794355 10.6189516,55.6108871 10.4092742,55.1194556 C10.1995968,54.6275201 9.63155239,54.3986895 9.1396169,54.608367 L4.6743951,56.5110888 C2.52923381,57.4248992 1.14364916,59.5221774 1.14364916,61.8538307 L1.14364916,65.0967742 C1.14364916,65.6315524 1.5766129,66.0645161 2.1113911,66.0645161 L37.8825605,66.0645161 C38.4173387,66.0645161 38.8503025,65.6315524 38.8503025,65.0967742 L38.8503025,61.8538307 C38.8503025,59.5221774 37.4642137,57.4248992 35.3195564,56.5110888 L35.3195564,56.5110888 Z M2.57258065,29.2227822 C2.26310477,27.766633 2.14868955,26.2086694 2.23185484,24.5922379 C2.36491935,22.001008 2.83064516,19.8155241 3.41834684,19.0246975 C3.54032258,18.8603831 3.60282258,18.8220766 3.65322581,18.8220766 C3.6733871,18.8220766 3.69203626,18.828629 3.71169355,18.8351814 C3.875,18.890625 4.03981858,18.9223791 4.2021169,18.9354839 C4.2641129,20.1103831 4.38810477,21.4561492 4.63508065,22.4722782 C4.74243948,22.9148186 5.13810477,23.2116935 5.57459677,23.2116935 C5.64969755,23.2116935 5.72681445,23.2026209 5.80342735,23.1839717 C6.32308465,23.0579637 6.64163303,22.5347782 6.51562503,22.015121 C6.03528232,20.0367943 6.07862903,16.3699597 6.07913303,16.3331653 C6.07963716,16.3276209 6.07862903,16.3215726 6.07862903,16.3160283 C6.12852826,14.8679435 6.43649187,14.4203628 7.58417342,13.6355846 C8.35887097,13.1058467 9.23790323,12.6885081 10.2096774,12.3835685 C11.2116935,15.1335685 13.7187499,17.3513105 16.1607863,18.953629 C15.5110888,19.2802419 14.8639112,19.546875 14.3644154,19.7520161 L14.2757057,19.7883065 C11.6481855,20.8674395 9.33568542,22.5433468 7.58921368,24.6350806 C5.52368955,27.109375 4.57862903,29.8402218 3.89868955,32.2711693 C3.21018142,31.2308467 2.79536284,30.2721774 2.57258065,29.2227822 Z M23.4712702,49.2106854 C21.2318548,50.1038307 18.765121,50.1038307 16.5257057,49.2106854 C12.5705645,47.6335685 9.54989923,44.9410283 7.5488911,41.2076613 C6.4228831,39.108367 5.63104839,36.7177419 5.18044361,34.079133 C5.38508065,33.873992 5.53830645,33.6144154 5.61895161,33.3170363 C6.43548387,30.3014114 7.2983871,28.0045363 9.07510077,25.876008 C10.6209677,24.0246975 12.6733871,22.5388105 15.0110888,21.578629 L15.0992943,21.5428427 C15.9511089,21.1930444 17.0599799,20.7373992 18.078629,20.1073588 C20.0977822,21.2217742 21.7389112,21.8427419 21.9274194,21.9128025 C25.2792338,23.1607863 29.8518145,25.4758065 32.5977822,29.4148186 C34.2263105,31.751008 34.4450605,33.5856854 34.4465726,33.5987903 C34.4501008,33.6376008 34.4566532,33.6764114 34.4652218,33.7147177 C34.5297379,34.0030243 34.6376008,34.2217742 34.7626008,34.3886089 C34.3034274,36.9047379 33.5297379,39.1905241 32.4485886,41.2076613 C30.4470766,44.9410283 27.4269154,47.6335685 23.4712702,49.2106854 Z" id="Shape"></path>
                                <path d="M39.9904234,46.6663306 L39.6955645,43.0493951 C39.6693548,42.7222782 39.4788307,42.4314516 39.1900201,42.2757057 C38.9017137,42.1204637 38.5539315,42.1214717 38.266129,42.2792338 L34.8860888,44.1315524 C34.4168347,44.3881048 34.2454637,44.9763105 34.5020161,45.4450605 C34.7590725,45.9138105 35.3472782,46.0856854 35.8160283,45.828629 L36.2222782,45.6063508 C34.5680444,48.3608871 32.5216734,49.6063508 32.4788307,49.6320565 C32.0186492,49.9017137 31.8634072,50.4929435 32.1320565,50.954133 C32.311996,51.2626008 32.6360888,51.4349799 32.9692541,51.4349799 C33.1345766,51.4349799 33.3024194,51.392137 33.4551412,51.3029234 C33.5831653,51.2288307 36.0866935,49.7368952 38.0241935,46.3659275 L38.0614919,46.8235886 C38.1028226,47.3296372 38.5262097,47.7127017 39.0252015,47.7127017 C39.0514114,47.7127017 39.078125,47.7116935 39.1048387,47.7096774 C39.6376008,47.6663306 40.0342742,47.1990928 39.9904234,46.6663306 L39.9904234,46.6663306 Z" id="Path"></path>
                                <path d="M1.93245961,46.8235886 L1.96975806,46.3659275 C3.90675406,49.7373992 6.41078632,51.2288307 6.53830645,51.3034274 C6.69153226,51.392137 6.85937497,51.4349799 7.02469755,51.4349799 C7.35786297,51.4349799 7.68195561,51.2626008 7.86189523,50.954133 C8.13054439,50.4924395 7.97429432,49.8996975 7.51260077,49.6305444 C7.48689523,49.6159275 5.43245961,48.391129 3.76663303,45.6033266 L4.17792335,45.829133 C4.64667342,46.0856854 5.23487897,45.9138105 5.49193548,45.4455645 C5.74848787,44.9768145 5.5771169,44.3886089 5.10836697,44.1315524 L1.72782258,42.2792338 C1.44052413,42.1214717 1.09274194,42.1204637 0.803931484,42.2757057 C0.515121032,42.4314516 0.324596774,42.7222782 0.298387097,43.0493951 L0.00352823226,46.6668347 C-0.0398185806,47.1990928 0.356350839,47.6663306 0.889112903,47.7096774 C0.916330581,47.7116935 0.942540387,47.7132057 0.969254065,47.7132057 C1.46774194,47.7132057 1.89112903,47.3296372 1.93245961,46.8235886 L1.93245961,46.8235886 Z" id="Path"></path>
                            </g>
                        </g>
                    </g>
                </g>
            </g>
        </g>
    </g>
</svg>