<?xml version="1.0" encoding="UTF-8"?>
<svg width="55px" height="60px" viewBox="0 0 55 60" version="1.1" xmlns="http://www.w3.org/2000/svg" xmlns:xlink="http://www.w3.org/1999/xlink">
    <!-- Generator: Sketch 59.1 (86144) - https://sketch.com -->
    <title>x-ray</title>
    <desc>Created with Sketch.</desc>
    <g id="Dizajn" stroke="none" stroke-width="1" fill="none" fill-rule="evenodd">
        <g id="3.-Euromedik---Usluge" transform="translate(-1511.000000, -995.000000)" fill="#E12630" fill-rule="nonzero">
            <g id="Group" transform="translate(0.000000, 906.000000)">
                <g id="item" transform="translate(1358.000000, 0.000000)">
                    <g id="content" transform="translate(25.000000, 60.000000)">
                        <g id="icon" transform="translate(95.000000, 0.000000)">
                            <g id="x-ray" transform="translate(33.000000, 29.000000)">
                                <path d="M54.9914756,48.1112208 L54.3645223,35.482707 C54.2936412,34.0549257 53.2148938,32.888949 51.7993737,32.7102866 C46.8820701,32.0885881 42.9726327,34.5869427 40.437845,36.9817197 L40.437845,26.5626645 C40.437845,23.8466454 38.2271019,21.6370701 35.5096815,21.6370701 L17.0440446,21.6370701 C16.6342887,19.6219214 15.9857325,16.0556794 16.4522399,14.4571762 C17.7027601,14.1622081 18.760138,13.3883546 19.4614756,12.7473885 C20.8692887,11.4609023 22.1066136,14.4244798 24.8494904,13.2895648 C25.8758068,12.864862 26.6862102,11.933949 26.8689597,10.6997771 C27.3728344,7.29701699 26.8435032,4.65246285 25.3379512,3.05174098 C22.3949257,-0.0776539278 19.150276,-0.247208068 16.9468896,0.161613588 C13.0340658,0.887473461 9.82316348,3.85093418 9.09940552,5.62191083 C8.55664544,6.95031847 8.75737792,8.62285563 9.0212845,9.79210191 C9.08142251,10.0585775 9.0466242,10.3424522 8.92342887,10.5915287 C7.20009554,14.0713588 6.18919321,17.8377495 5.67364119,21.6371868 L5.04458599,21.6371868 C2.32716561,21.6371868 0.116422505,23.8467622 0.116422505,26.5627813 L0.116422505,54.8613907 C0.116422505,57.5774098 2.32716561,59.7871019 5.04458599,59.7871019 L35.5096815,59.7871019 C37.9229087,59.7871019 39.935138,58.0439172 40.3557537,55.7515499 C43.7408811,55.4982696 46.8228662,55.1759766 49.2642357,54.8860297 C52.6444586,54.4842144 55.1602123,51.5086093 54.9914756,48.1112208 L54.9914756,48.1112208 Z M10.5977176,11.4203822 C10.9107856,10.7884076 10.9981316,10.063949 10.8438747,9.38047771 C10.558482,8.11629512 10.5529936,7.00380042 10.8290446,6.32838641 C11.6643206,4.28416136 18.6483864,-1.33412951 23.9769639,4.33145435 C25.3667941,5.80921444 25.3116773,8.46124204 25.0207962,10.425828 C24.8745966,11.4136093 23.808811,11.9654777 22.9209873,11.5143843 L21.6979087,10.8929193 C20.553535,10.3113907 19.1482909,10.5021975 18.2011465,11.3679512 C16.2210297,13.1771125 15.4510297,12.3063376 14.9708599,13.1722081 C14.0843206,14.770828 14.3664437,17.71 15.1401805,21.6367197 C13.3755096,21.6367197 9.33178344,21.6367197 7.55380042,21.6367197 C8.09142251,17.8445223 9.1072293,14.4300849 10.5977176,11.4203822 Z M10.1876115,23.5053185 L12.3008493,23.5053185 C11.9312633,27.9904459 11.5251274,37.703259 14.2626327,41.2797771 C15.0817941,42.3497665 14.8302654,43.0730573 14.2750106,44.3637473 C14.1258917,44.7107962 13.8874416,45.3930998 13.5111996,45.4220594 C13.1934607,45.4482166 12.8396391,45.0680042 12.8786412,45.0680042 C10.4466136,41.0728556 10.1773355,28.2121975 10.1876115,23.5053185 L10.1876115,23.5053185 Z M35.5096815,57.9183864 L5.04458599,57.9183864 C3.35745223,57.9183864 1.98478769,56.5468896 1.98478769,54.8610403 L1.98478769,26.5625478 C1.98478769,24.8766985 3.35745223,23.5053185 5.04458599,23.5053185 L5.46018047,23.5053185 C4.30880042,35.6906794 7.77403397,46.0459766 8.95016985,50.9739066 C9.61764331,53.0438217 11.441518,53.7121125 11.4298408,53.7038217 C18.350966,56.7099045 30.8933015,56.367293 38.391518,55.8875902 C37.9683333,57.0699151 36.8364544,57.9183864 35.5096815,57.9183864 Z M38.5694798,48.4666773 L22.7246921,48.4666773 C22.2162633,48.4666773 21.8011359,48.8732803 21.7906263,49.3815924 C21.773811,50.1991189 21.0948938,50.8642569 20.2771338,50.8642569 C18.8896391,50.8642569 18.2337261,49.1514331 19.2668153,48.224724 C19.6800743,47.8539703 19.6807749,47.2052972 19.2668153,46.8339597 C18.2331423,45.9067834 18.89069,44.19431 20.2771338,44.19431 C21.0947771,44.19431 21.773811,44.859448 21.7906263,45.6770913 C21.8011359,46.1854034 22.2162633,46.5920064 22.7246921,46.5920064 L38.5694798,46.5920064 L38.5694798,48.4666773 Z M38.5694798,38.9771338 C38.0417834,39.5515393 37.1205626,39.5390446 36.6384076,38.9130255 C35.4306263,37.3448832 33.991518,36.2286518 32.3610191,35.5951592 C31.8799151,35.4079724 31.338673,35.6466561 31.1519533,36.1276433 C30.9651168,36.6086306 31.2034501,37.1499894 31.6844374,37.3367091 C32.9927601,37.8450212 34.1614225,38.7588854 35.1583121,40.0531953 C35.9830786,41.1240021 37.3559766,41.5002442 38.5694798,41.1199151 L38.5694798,44.7235244 L23.5112739,44.7235244 C23.0847028,43.3404671 21.7866561,42.325828 20.2771338,42.325828 C17.6035032,42.325828 15.9937898,45.2908068 17.4278769,47.5293418 C15.9979936,49.7612208 17.597431,52.7327389 20.2771338,52.7327389 C21.7866561,52.7327389 23.084586,51.7180998 23.5112739,50.3351592 L38.5694798,50.3351592 L38.5694798,53.9973885 C31.5286624,54.4554883 20.9897983,54.7269851 14.2560934,52.7354246 C12.29431,52.1551805 11.1599788,51.7377176 10.7282696,50.400552 C8.14315287,42.4114225 6.49198514,32.1452229 7.33695329,23.5054352 L8.31924628,23.5054352 C8.30838641,28.6407537 8.57708068,41.5952972 11.282707,46.0395541 C11.7346178,46.7819958 12.6826964,47.3603715 13.6541295,47.2850531 C14.2045966,47.2428981 15.2212208,46.9478132 15.8449045,45.4465817 C16.5008174,43.8676964 17.3280361,42.2104565 15.7462314,40.1442781 C13.4072718,37.0885669 13.8541614,27.3406051 14.1766879,23.5054352 L15.5271656,23.5054352 C16.6400106,28.6657431 18.2344268,34.6580573 18.2879087,38.4468684 C18.309862,40.001465 20.1448301,40.808482 21.3052017,39.7756263 C22.4604352,38.7475584 23.73069,37.9742887 25.0805839,37.4773036 C25.564724,37.2991083 25.8127495,36.7620701 25.6345541,36.2779299 C25.4563588,35.7937898 24.9194374,35.5458811 24.4351805,35.7239597 C22.9006688,36.2889066 21.4612102,37.1550106 20.1539384,38.2998514 C20.0691614,34.3725478 18.5429406,28.5586624 17.4392038,23.5054352 L35.5096815,23.5054352 C37.1968153,23.5054352 38.5694798,24.8770488 38.5694798,26.5628981 L38.5694798,38.9771338 Z M49.0437686,53.0303928 C46.8688747,53.2886943 43.8550849,53.6087686 40.437845,53.8661359 C40.437845,51.4374947 40.437845,43.3234183 40.437845,39.6691295 C44.6597665,34.8377707 48.8002972,34.2147877 51.5653609,34.5637049 C52.0802123,34.6288641 52.4726858,35.0541507 52.4984926,35.5751911 L53.1254459,48.2037049 C53.2456051,50.6242887 51.4527919,52.7442994 49.0437686,53.0303928 L49.0437686,53.0303928 Z" id="Shape"></path>
                                <circle id="Oval" cx="28.3321231" cy="35.9627601" r="1"></circle>
                            </g>
                        </g>
                    </g>
                </g>
            </g>
        </g>
    </g>
</svg>