<?xml version="1.0" encoding="UTF-8"?>
<svg width="48px" height="62px" viewBox="0 0 48 62" version="1.1" xmlns="http://www.w3.org/2000/svg" xmlns:xlink="http://www.w3.org/1999/xlink">
    <!-- Generator: Sketch 59.1 (86144) - https://sketch.com -->
    <title>spec-pregledi</title>
    <desc>Created with Sketch.</desc>
    <g id="Dizajn" stroke="none" stroke-width="1" fill="none" fill-rule="evenodd">
        <g id="3.-Euromedik---Usluge" transform="translate(-356.000000, -995.000000)" fill="#E12630" fill-rule="nonzero">
            <g id="Group" transform="translate(0.000000, 906.000000)">
                <g id="item" transform="translate(200.000000, 0.000000)">
                    <g id="content" transform="translate(25.000000, 60.000000)">
                        <g id="icon" transform="translate(95.000000, 0.000000)">
                            <g id="spec-pregledi" transform="translate(36.000000, 29.000000)">
                                <path d="M3.65217391,46.8 L2.29565217,46.0173913 C4.8,41.6347826 8.45217391,38.2434783 12.7826087,36.2608696 L13.4086957,37.6695652 C9.33913043,39.5478261 6,42.7304348 3.65217391,46.8 Z M1.2,48.1565217 C0.730434783,48.9391304 0.313043478,49.773913 0,50.6086957 L1.46086957,51.1826087 C1.77391304,50.4521739 2.13913043,49.6695652 2.55652174,48.9913043 L1.2,48.1565217 Z M30.2608696,53.6347826 L36.2086957,53.6347826 L36.2086957,52.0695652 L30.2608696,52.0695652 L30.2608696,53.6347826 Z M47.7391304,57.5478261 C34.226087,62.7130435 17.0086957,63.2869565 1.9826087,57.5478261 C3.33913043,52.7478261 5.00869565,43.773913 14.2956522,39.5478261 L18.5217391,37.6173913 L18.5217391,33.2869565 C16.0173913,31.3043478 15.0782609,29.0086957 15.0782609,26.3478261 C12.9913043,24.7826087 12.9913043,24.9391304 12.4173913,22.0695652 C12.1043478,20.4521739 13.2,18.6782609 15.2347826,18.6782609 C15.4956522,17.2173913 16.173913,14.973913 17.7391304,13.6695652 C20.2956522,11.5826087 22.226087,13.7217391 25.6173913,13.7217391 C29.2695652,13.7217391 30,12.3652174 30.6782609,11.6347826 L33.3913043,18.5217391 C34.2782609,18.5217391 34.8,18.4695652 35.4782609,18.8347826 L36,15.8086957 C36.8347826,11.7391304 34.8,7.46086957 31.2,5.37391304 L31.2,6.36521739 L29.6347826,6.36521739 L29.6347826,4.69565217 C29.426087,4.17391304 28.1217391,1.56521739 24.1043478,1.56521739 C19.7217391,1.56521739 18.4695652,4.53913043 15.5478261,4.33043478 C15.7043478,5.2173913 16.1217391,5.5826087 16.6956522,6.20869565 C12.0521739,10.8 13.1478261,14.7652174 13.7217391,17.7391304 L12.2086957,18.0521739 C11.8956522,16.4869565 10.226087,11.0608696 14.5565217,6.15652174 C13.5652174,4.59130435 13.9826087,3.07826087 14.1391304,2.4 L14.973913,2.66086957 C17.5826087,3.44347826 18.8869565,0 24.0521739,0 C28.0173913,0 29.8434783,2.08695652 30.626087,3.33913043 C35.6347826,5.47826087 38.6086957,10.8521739 37.5652174,16.0695652 L36.8347826,20.2956522 L36.7826087,20.2956522 C36.9913043,20.8173913 37.0434783,21.3913043 36.9391304,21.9130435 C36.6782609,23.3217391 36.626087,24.4695652 35.4782609,25.3565217 L34.3826087,26.1913043 C34.3826087,29.2173913 33.2347826,31.5130435 31.2521739,33.1304348 L31.2521739,37.7217391 L35.4782609,39.6521739 C44.6608696,43.826087 46.3826087,52.7478261 47.7391304,57.5478261 Z M18.7304348,39.3391304 L15.026087,41.0086957 L20.8173913,47.8956522 L22.4869565,43.5652174 L21.8086957,43.3043478 L21.8086957,40.6434783 C20.6608696,40.3826087 19.6695652,39.9130435 18.7304348,39.3391304 Z M26.3478261,40.9565217 C25.3043478,41.1130435 24.4173913,41.1130435 23.373913,40.9565217 L23.373913,42.1565217 L24.8869565,42.6782609 L26.4,42.1565217 L26.4,40.9565217 L26.3478261,40.9565217 Z M21.9652174,49.2521739 L24.8347826,52.6434783 L27.4956522,49.2521739 L25.6695652,44.0869565 L24.8347826,44.3478261 L24,44.0347826 L21.9652174,49.2521739 Z M34.1217391,40.7478261 L30.9913043,39.3391304 C30.0521739,39.9652174 29.0086957,40.3826087 27.9130435,40.6956522 L27.9130435,43.3043478 L27.1304348,43.5652174 L28.6434783,47.7913043 L34.1217391,40.7478261 Z M15.0782609,24.4695652 L15.0782609,20.2956522 C14.3478261,20.2956522 13.826087,21.0782609 13.9826087,21.8086957 C14.3478261,23.6869565 14.2434783,23.8434783 15.0782609,24.4695652 Z M21.1826087,33.4434783 C23.3217391,35.1652174 26.1391304,35.1652174 28.2782609,33.4434783 C33.2347826,29.4782609 32.8173913,29.2695652 32.8173913,22.4347826 L34.3826087,22.4347826 L34.3826087,24.2086957 C34.7478261,23.8956522 35.0086957,23.6347826 35.1130435,23.0608696 C35.373913,21.6 35.6347826,21.0782609 35.1130435,20.4521739 C34.6956522,19.9304348 34.173913,20.0347826 33.3913043,20.0347826 L32.5043478,20.4 L30.1043478,14.3478261 C29.2695652,14.8173913 27.8608696,15.3391304 25.6695652,15.3391304 C22.0173913,15.3391304 20.5565217,13.4608696 18.7826087,14.9217391 C16.9043478,16.4347826 16.6434783,19.9826087 16.6434783,20.1391304 L16.6434783,26.5043478 C16.6434783,30.3652174 19.0956522,31.826087 21.1826087,33.4434783 Z M20.0869565,34.5913043 L20.0869565,38.2956522 C23.0086957,39.9130435 26.8173913,39.8608696 29.6347826,38.2434783 L29.6347826,34.3304348 C26.3478261,36.9913043 22.8,36.7826087 20.0869565,34.5913043 Z M45.8086957,56.6086957 C44.8695652,53.2173913 43.3565217,45.4434783 35.5826087,41.426087 L24.8869565,55.1478261 L13.5652174,41.7391304 C6.36521739,45.8608696 4.95652174,52.9043478 3.91304348,56.6086957 C5.84347826,57.2869565 7.82608696,57.9130435 9.91304348,58.3826087 L9.91304348,55.826087 L11.4782609,55.826087 L11.4782609,58.7478261 C19.5130435,60.4173913 28.7478261,60.626087 37.5652174,58.8521739 L37.5652174,55.5130435 L39.1304348,55.5130435 L39.1304348,58.5391304 C41.4782609,58.0173913 43.7217391,57.3913043 45.8086957,56.6086957 Z" id="Shape"></path>
                            </g>
                        </g>
                    </g>
                </g>
            </g>
        </g>
    </g>
</svg>