<?xml version="1.0" encoding="UTF-8"?>
<svg width="36px" height="66px" viewBox="0 0 36 66" version="1.1" xmlns="http://www.w3.org/2000/svg" xmlns:xlink="http://www.w3.org/1999/xlink">
    <!-- Generator: Sketch 59.1 (86144) - https://sketch.com -->
    <title>spine</title>
    <desc>Created with Sketch.</desc>
    <g id="Dizajn" stroke="none" stroke-width="1" fill="none" fill-rule="evenodd">
        <g id="3.-Euromedik---Usluge" transform="translate(-1134.000000, -2059.000000)" fill="#E12630" fill-rule="nonzero">
            <g id="Group" transform="translate(0.000000, 906.000000)">
                <g id="item" transform="translate(972.000000, 1066.000000)">
                    <g id="content" transform="translate(25.000000, 60.000000)">
                        <g id="icon" transform="translate(95.000000, 0.000000)">
                            <g id="spine" transform="translate(42.000000, 27.000000)">
                                <path d="M21.1764706,10.5882353 L23.489028,10.5882353 C23.9274471,11.81767 25.0922565,12.7058824 26.4705882,12.7058824 L36,12.7058824 L36,6.35294118 L32.9538143,6.35294118 C31.493796,6.35294118 30.2261029,5.3628791 29.8724724,3.9473231 L29.4149242,2.11764706 L26.4705882,2.11764706 C25.0922565,2.11764706 23.9274471,3.00585944 23.489028,4.23529412 L21.1764706,4.23529412 L21.1764706,0 L14.8235294,0 L14.8235294,4.23529412 L12.510972,4.23529412 C12.0725529,3.00585944 10.9077435,2.11764706 9.52941176,2.11764706 L6.58507579,2.11764706 L6.12856165,3.9473231 C5.77389706,5.3628791 4.50620404,6.35294118 3.04618566,6.35294118 L0,6.35294118 L0,12.7058824 L9.52941176,12.7058824 C10.9077435,12.7058824 12.0725529,11.81767 12.510972,10.5882353 L14.8235294,10.5882353 L14.8235294,16.9411765 L12.510972,16.9411765 C12.0725529,15.7117418 10.9077435,14.8235294 9.52941176,14.8235294 L6.58507579,14.8235294 L6.12856165,16.6532055 C5.77389706,18.0687615 4.50620404,19.0588235 3.04618566,19.0588235 L0,19.0588235 L0,25.4117647 L9.52941176,25.4117647 C10.9077435,25.4117647 12.0725529,24.5235523 12.510972,23.2941176 L14.8235294,23.2941176 L14.8235294,29.6470588 L12.510972,29.6470588 C12.0725529,28.4176241 10.9077435,27.5294118 9.52941176,27.5294118 L6.58507579,27.5294118 L6.12856165,29.3590878 C5.77389706,30.7746438 4.50620404,31.7647059 3.04618566,31.7647059 L0,31.7647059 L0,38.1176471 L9.52941176,38.1176471 C10.9077435,38.1176471 12.0725529,37.2294347 12.510972,36 L14.8235294,36 L14.8235294,42.3529412 L12.510972,42.3529412 C12.0725529,41.1235065 10.9077435,40.2352941 9.52941176,40.2352941 L6.58507579,40.2352941 L6.12856165,42.0649702 C5.77389706,43.4805262 4.50620404,44.4705882 3.04618566,44.4705882 L0,44.4705882 L0,50.8235294 L9.52941176,50.8235294 C10.9077435,50.8235294 12.0725529,49.935317 12.510972,48.7058824 L14.8235294,48.7058824 L14.8235294,55.0588235 L12.510972,55.0588235 C12.0725529,53.8293889 10.9077435,52.9411765 9.52941176,52.9411765 L6.58507579,52.9411765 L6.12856165,54.7708525 C5.77389706,56.1864085 4.50620404,57.1764706 3.04618566,57.1764706 L0,57.1764706 L0,63.5294118 L9.52941176,63.5294118 C10.9077435,63.5294118 12.0725529,62.6411994 12.510972,61.4117647 L14.8235294,61.4117647 L14.8235294,65.6470588 L21.1764706,65.6470588 L21.1764706,61.4117647 L23.489028,61.4117647 C23.9274471,62.6411994 25.0922565,63.5294118 26.4705882,63.5294118 L36,63.5294118 L36,57.1764706 L32.9538143,57.1764706 C31.493796,57.1764706 30.2261029,56.1864085 29.8724724,54.7708525 L29.4149242,52.9411765 L26.4705882,52.9411765 C25.0922565,52.9411765 23.9274471,53.8293889 23.489028,55.0588235 L21.1764706,55.0588235 L21.1764706,48.7058824 L23.489028,48.7058824 C23.9274471,49.935317 25.0922565,50.8235294 26.4705882,50.8235294 L36,50.8235294 L36,44.4705882 L32.9538143,44.4705882 C31.493796,44.4705882 30.2261029,43.4805262 29.8724724,42.0649702 L29.4149242,40.2352941 L26.4705882,40.2352941 C25.0922565,40.2352941 23.9274471,41.1235065 23.489028,42.3529412 L21.1764706,42.3529412 L21.1764706,36 L23.489028,36 C23.9274471,37.2294347 25.0922565,38.1176471 26.4705882,38.1176471 L36,38.1176471 L36,31.7647059 L32.9538143,31.7647059 C31.493796,31.7647059 30.2261029,30.7746438 29.8724724,29.3590878 L29.4149242,27.5294118 L26.4705882,27.5294118 C25.0922565,27.5294118 23.9274471,28.4176241 23.489028,29.6470588 L21.1764706,29.6470588 L21.1764706,23.2941176 L23.489028,23.2941176 C23.9274471,24.5235523 25.0922565,25.4117647 26.4705882,25.4117647 L36,25.4117647 L36,19.0588235 L32.9538143,19.0588235 C31.493796,19.0588235 30.2261029,18.0687615 29.8724724,16.6532055 L29.4149242,14.8235294 L26.4705882,14.8235294 C25.0922565,14.8235294 23.9274471,15.7117418 23.489028,16.9411765 L21.1764706,16.9411765 L21.1764706,10.5882353 Z M12.7058824,8.47058824 L12.7058824,6.35294118 L23.2941176,6.35294118 L23.2941176,8.47058824 L12.7058824,8.47058824 Z M25.4117647,5.29411765 C25.4117647,4.7109375 25.8863741,4.23529412 26.4705882,4.23529412 L27.7615464,4.23529412 L27.8184169,4.46070772 C28.408318,6.82186354 30.519761,8.47058824 32.9538143,8.47058824 L33.8823529,8.47058824 L33.8823529,10.5882353 L26.4705882,10.5882353 C25.8863741,10.5882353 25.4117647,10.1125919 25.4117647,9.52941176 L25.4117647,5.29411765 Z M16.9411765,2.11764706 L19.0588235,2.11764706 L19.0588235,4.23529412 L16.9411765,4.23529412 L16.9411765,2.11764706 Z M10.5882353,9.52941176 C10.5882353,10.1125919 10.1136259,10.5882353 9.52941176,10.5882353 L2.11764706,10.5882353 L2.11764706,8.47058824 L3.04618566,8.47058824 C5.48023897,8.47058824 7.59168199,6.82186354 8.18365116,4.45967365 L8.23845362,4.23529412 L9.52941176,4.23529412 C10.1136259,4.23529412 10.5882353,4.7109375 10.5882353,5.29411765 L10.5882353,9.52941176 Z M16.9411765,10.5882353 L19.0588235,10.5882353 L19.0588235,16.9411765 L16.9411765,16.9411765 L16.9411765,10.5882353 Z M23.2941176,19.0588235 L23.2941176,21.1764706 L12.7058824,21.1764706 L12.7058824,19.0588235 L23.2941176,19.0588235 Z M10.5882353,22.2352941 C10.5882353,22.8184743 10.1136259,23.2941176 9.52941176,23.2941176 L2.11764706,23.2941176 L2.11764706,21.1764706 L3.04618566,21.1764706 C5.48023897,21.1764706 7.59168199,19.5277459 8.18365116,17.165556 L8.23845362,16.9411765 L9.52941176,16.9411765 C10.1136259,16.9411765 10.5882353,17.4168199 10.5882353,18 L10.5882353,22.2352941 Z M23.2941176,31.7647059 L23.2941176,33.8823529 L12.7058824,33.8823529 L12.7058824,31.7647059 L23.2941176,31.7647059 Z M10.5882353,34.9411765 C10.5882353,35.5243566 10.1136259,36 9.52941176,36 L2.11764706,36 L2.11764706,33.8823529 L3.04618566,33.8823529 C5.48023897,33.8823529 7.59168199,32.2336282 8.18365116,29.8714384 L8.23845362,29.6470588 L9.52941176,29.6470588 C10.1136259,29.6470588 10.5882353,30.1227022 10.5882353,30.7058824 L10.5882353,34.9411765 Z M23.2941176,44.4705882 L23.2941176,46.5882353 L12.7058824,46.5882353 L12.7058824,44.4705882 L23.2941176,44.4705882 Z M10.5882353,47.6470588 C10.5882353,48.230239 10.1136259,48.7058824 9.52941176,48.7058824 L2.11764706,48.7058824 L2.11764706,46.5882353 L3.04618566,46.5882353 C5.48023897,46.5882353 7.59168199,44.9395106 8.18365116,42.5773207 L8.23845362,42.3529412 L9.52941176,42.3529412 C10.1136259,42.3529412 10.5882353,42.8285846 10.5882353,43.4117647 L10.5882353,47.6470588 Z M23.2941176,57.1764706 L23.2941176,59.2941176 L12.7058824,59.2941176 L12.7058824,57.1764706 L23.2941176,57.1764706 Z M10.5882353,60.3529412 C10.5882353,60.9361213 10.1136259,61.4117647 9.52941176,61.4117647 L2.11764706,61.4117647 L2.11764706,59.2941176 L3.04618566,59.2941176 C5.48023897,59.2941176 7.59168199,57.645393 8.18365116,55.2832031 L8.23845362,55.0588235 L9.52941176,55.0588235 C10.1136259,55.0588235 10.5882353,55.5344669 10.5882353,56.1176471 L10.5882353,60.3529412 Z M19.0588235,63.5294118 L16.9411765,63.5294118 L16.9411765,61.4117647 L19.0588235,61.4117647 L19.0588235,63.5294118 Z M25.4117647,56.1176471 C25.4117647,55.5344669 25.8863741,55.0588235 26.4705882,55.0588235 L27.7615464,55.0588235 L27.8184169,55.2842371 C28.408318,57.645393 30.519761,59.2941176 32.9538143,59.2941176 L33.8823529,59.2941176 L33.8823529,61.4117647 L26.4705882,61.4117647 C25.8863741,61.4117647 25.4117647,60.9361213 25.4117647,60.3529412 L25.4117647,56.1176471 Z M19.0588235,55.0588235 L16.9411765,55.0588235 L16.9411765,48.7058824 L19.0588235,48.7058824 L19.0588235,55.0588235 Z M25.4117647,43.4117647 C25.4117647,42.8285846 25.8863741,42.3529412 26.4705882,42.3529412 L27.7615464,42.3529412 L27.8184169,42.5783548 C28.408318,44.9395106 30.519761,46.5882353 32.9538143,46.5882353 L33.8823529,46.5882353 L33.8823529,48.7058824 L26.4705882,48.7058824 C25.8863741,48.7058824 25.4117647,48.230239 25.4117647,47.6470588 L25.4117647,43.4117647 Z M19.0588235,42.3529412 L16.9411765,42.3529412 L16.9411765,36 L19.0588235,36 L19.0588235,42.3529412 Z M25.4117647,30.7058824 C25.4117647,30.1227022 25.8863741,29.6470588 26.4705882,29.6470588 L27.7615464,29.6470588 L27.8184169,29.8724724 C28.408318,32.2336282 30.519761,33.8823529 32.9538143,33.8823529 L33.8823529,33.8823529 L33.8823529,36 L26.4705882,36 C25.8863741,36 25.4117647,35.5243566 25.4117647,34.9411765 L25.4117647,30.7058824 Z M19.0588235,29.6470588 L16.9411765,29.6470588 L16.9411765,23.2941176 L19.0588235,23.2941176 L19.0588235,29.6470588 Z M25.4117647,18 C25.4117647,17.4168199 25.8863741,16.9411765 26.4705882,16.9411765 L27.7615464,16.9411765 L27.8184169,17.1665901 C28.408318,19.5277459 30.519761,21.1764706 32.9538143,21.1764706 L33.8823529,21.1764706 L33.8823529,23.2941176 L26.4705882,23.2941176 C25.8863741,23.2941176 25.4117647,22.8184743 25.4117647,22.2352941 L25.4117647,18 Z" id="Shape"></path>
                            </g>
                        </g>
                    </g>
                </g>
            </g>
        </g>
    </g>
</svg>