<?xml version="1.0" encoding="UTF-8"?>
<svg width="47px" height="47px" viewBox="0 0 47 47" version="1.1" xmlns="http://www.w3.org/2000/svg" xmlns:xlink="http://www.w3.org/1999/xlink">
    <!-- Generator: Sketch 59.1 (86144) - https://sketch.com -->
    <title>teeth</title>
    <desc>Created with Sketch.</desc>
    <g id="Dizajn" stroke="none" stroke-width="1" fill="none" fill-rule="evenodd">
        <g id="3.-Euromedik---Usluge" transform="translate(-356.000000, -3135.000000)" fill="#E12630" fill-rule="nonzero">
            <g id="Group" transform="translate(0.000000, 906.000000)">
                <g id="item" transform="translate(200.000000, 2132.000000)">
                    <g id="content" transform="translate(25.000000, 60.000000)">
                        <g id="icon" transform="translate(95.000000, 0.000000)">
                            <g id="teeth" transform="translate(36.000000, 37.000000)">
                                <path d="M3.74380937,24.383612 C4.17756303,25.1008086 4.62634779,25.8419834 5.02610258,26.5924631 C6.21033593,28.6918022 6.98193072,30.9983553 7.30008837,33.3879371 C7.5402275,36.1060551 7.99760145,38.8005528 8.66755759,41.4460206 C9.18290847,43.3614081 10.1438231,46.9262761 13.2058662,46.9262761 C15.6076161,46.9262761 17.4653843,42.3385798 18.7254889,33.2916667 C19.1499375,30.2951161 20.4454724,30.0009366 21.0968186,29.9211288 C21.1225862,29.9211288 21.1437013,29.9315074 21.1687531,29.9354441 C21.2124147,30.0564084 21.2546449,30.1791621 21.3008117,30.2972633 C21.6851775,31.206285 22.1472039,32.0805921 22.6815226,32.9101639 C22.9481451,33.3510752 23.2161992,33.7927022 23.4631381,34.2532971 C24.1728192,35.51197 24.6355613,36.8944704 24.8266706,38.3263584 C24.9640975,39.7056377 25.175964,41.076328 25.4608385,42.4323449 C25.465491,42.450597 25.4608385,42.4692069 25.4679962,42.487101 C25.474796,42.505353 25.4805221,42.5193104 25.4866061,42.5372045 C25.5474461,42.8016797 25.6032757,43.0665128 25.6766416,43.3291987 C25.989431,44.4966115 26.6443561,46.9255604 28.7601577,46.9255604 C29.4408504,46.9255604 31.2492309,46.9255604 32.4542215,38.2766127 C32.6761087,36.712666 33.2648255,36.514399 33.6159082,36.4635798 L33.7128944,36.4807581 C33.9473075,36.5290723 34.5728862,36.6564784 34.8072993,38.2787601 C36.0097847,46.9262761 37.8174495,46.9262761 38.4974262,46.9262761 C40.6082176,46.9262761 41.2398803,44.5878716 41.5802266,43.337072 C41.996444,41.691886 42.2816764,40.0166378 42.4330608,38.3263584 C42.6259594,36.8930388 43.0901331,35.5094648 43.8012458,34.2500762 C44.047469,33.7848288 44.3173124,33.339265 44.5828613,32.894417 C45.1139589,32.068782 45.5724065,31.1984116 45.9528356,30.2933267 C47.2644752,26.9635874 47.6148423,22.4020163 44.6651742,19.5826176 C43.7647417,18.7362253 42.6689053,18.1260356 41.475367,17.8064465 C43.0758178,11.9217836 42.0712415,6.55533471 38.714661,3.33689693 C34.198899,-0.99849237 26.1486888,-1.0876051 21.1179337,3.00979223 C16.0868208,-1.0876051 8.03732634,-0.99849237 3.51798555,3.33904418 C-1.08545776,7.75066244 -0.523940058,14.9505437 1.54068437,20.2167854 C2.15445297,21.6662098 2.89133317,23.0605202 3.74380937,24.383612 L3.74380937,24.383612 Z M44.5009061,29.7264407 C44.1519706,30.5488548 43.7336059,31.3397752 43.2501066,32.0906128 C42.96559,32.5597969 42.6807155,33.0289808 42.42304,33.51928 C41.6188779,34.9522417 41.0952957,36.5254934 40.8805662,38.1545748 C40.7366975,39.762899 40.4672118,41.3572658 40.0742568,42.9233598 C39.7514467,44.1032986 39.339524,45.3626873 38.5138889,45.3626873 C38.2010996,45.2664169 37.1424829,43.7171434 36.3551413,38.0575886 C36.0963922,36.2592288 35.3129873,35.2109908 34.0224628,34.9475893 C33.9208242,34.9254005 33.8177541,34.9082221 33.7143259,34.8967699 C33.6856953,34.8978436 33.6567069,34.9003488 33.6284341,34.9046434 C33.598372,34.8999909 33.567952,34.8971278 33.537532,34.8960542 C32.0655611,35.0599643 31.1798017,36.1232334 30.9060216,38.0575886 C30.1172484,43.7210801 29.0539794,45.2696378 28.7601577,45.3626873 C27.9134077,45.3626873 27.5036322,44.1040144 27.1840431,42.9187074 C26.7925195,41.3522554 26.5237497,39.7578886 26.3802388,38.1499224 C26.1680145,36.5204831 25.645148,34.9468735 24.8399123,33.5146275 C24.5822368,33.0296966 24.2998675,32.5630178 24.0174982,32.0977705 C23.5318515,31.3444277 23.1109816,30.55136 22.759541,29.7264407 C21.6386529,26.8666012 21.2897173,22.9968171 23.6750045,20.7124528 C26.0602917,18.4280885 30.5488548,18.4670976 33.1023468,20.7951236 C33.3321074,21.0188003 36.2810596,23.8310413 38.9243802,23.8310413 C39.3559865,23.8310413 39.7059957,23.4810322 39.7059957,23.049068 C39.7059957,22.6174617 39.3559865,22.2674525 38.9243802,22.2674525 C37.5826785,22.2674525 35.88381,21.107913 34.8541819,20.2582999 C36.4882736,19.2021884 38.4616381,18.804223 40.3770255,19.1449272 C41.5805845,19.3349628 42.6996832,19.8818073 43.5893793,20.7146001 C45.979319,23.0029012 45.5752696,26.9957968 44.5009061,29.7264407 L44.5009061,29.7264407 Z M4.60058025,4.46708999 C8.64322158,0.587285248 16.2621832,0.649556858 20.5879097,4.59556985 C20.8928256,4.89261241 25.5875289,9.39978525 29.7178515,9.39978525 C30.1494578,9.39978525 30.499467,9.04977616 30.499467,8.61781189 C30.499467,8.18620549 30.1494578,7.83619639 29.7178515,7.83619639 C26.9728923,7.83619639 23.6800149,5.24047426 22.3139773,4.05051479 C26.7202273,0.659935429 33.7927022,0.778036717 37.6374345,4.46816366 C40.5942602,7.30366715 41.4331369,12.1493969 39.9389773,17.5194246 C37.7007797,17.280717 35.4536352,17.8848228 33.6370233,19.2143564 C30.4189434,16.7531981 25.4211135,16.869152 22.5916941,19.5833333 C20.1734816,21.9006229 19.9795093,25.3960617 20.7153159,28.4180221 C18.7644981,28.774473 17.5709597,30.328757 17.1822993,33.0733584 C15.8227035,42.7945221 13.9871239,45.3626873 13.2058662,45.3626873 C11.4858827,45.3626873 10.7411291,43.1312896 10.1749589,41.0330242 C9.53184389,38.4652169 9.09021686,35.8516005 8.85365652,33.2150798 C8.51545743,30.6283047 7.68445419,28.1306424 6.40573985,25.8566566 C5.98665936,25.0685993 5.52642235,24.3088146 5.07692186,23.5737239 C4.27097044,22.3261452 3.57345727,21.0120005 2.99261387,19.645247 C1.11695143,14.8510523 0.550781273,8.34582115 4.60058025,4.46708999 Z" id="Shape"></path>
                                <path d="M4.50466773,16.3709795 C4.74838572,16.3709795 4.97814637,16.2575308 5.1263097,16.0635584 C5.27411517,15.869944 5.32314506,15.6179946 5.25908415,15.3828658 C3.51333301,8.9828521 7.5924784,6.87277656 7.77786151,6.7797271 C8.15363824,6.58503899 8.30645402,6.12659146 8.12214458,5.74544656 C7.93783504,5.36430157 7.4836821,5.19895988 7.09788466,5.37253289 C7.045276,5.39830044 1.6509122,8.08850357 3.74989344,15.7947887 C3.84294281,16.1351349 4.15179548,16.3709795 4.50466773,16.3709795 Z" id="Path"></path>
                                <path d="M10.9544271,4.70866073 C10.9544271,5.140625 10.604418,5.49063418 10.1724537,5.49063418 C9.7408473,5.49063418 9.39083821,5.140625 9.39083821,4.70866073 C9.39083821,4.27705442 9.7408473,3.92704524 10.1724537,3.92704524 C10.604418,3.92704524 10.9544271,4.27705442 10.9544271,4.70866073 Z" id="Path"></path>
                                <path d="M25.7453551,21.5645712 C24.5460907,22.244548 22.6353558,24.5618376 23.9917307,28.4649046 C24.0829907,28.7293799 24.3084567,28.9247838 24.5833105,28.9777503 C24.8581643,29.0303591 25.1401758,28.9322993 25.3230538,28.7204328 C25.5055738,28.5085664 25.5614035,28.2151027 25.4687119,27.9509853 C24.2179124,24.3549814 26.4145955,22.9857228 26.5226761,22.9216618 C26.8973791,22.7072901 27.0272904,22.2295169 26.8125609,21.854456 C26.5978314,21.479753 26.1200582,21.3498416 25.7453551,21.5645712 L25.7453551,21.5645712 Z" id="Path"></path>
                                <path d="M28.9358781,21.1268808 C28.9358781,21.5584872 28.585869,21.9084963 28.1542626,21.9084963 C27.7222984,21.9084963 27.3722892,21.5584872 27.3722892,21.1268808 C27.3722892,20.6949165 27.7222984,20.3449074 28.1542626,20.3449074 C28.585869,20.3449074 28.9358781,20.6949165 28.9358781,21.1268808 L28.9358781,21.1268808 Z" id="Path"></path>
                            </g>
                        </g>
                    </g>
                </g>
            </g>
        </g>
    </g>
</svg>