<?xml version="1.0" encoding="UTF-8"?>
<svg width="60px" height="62px" viewBox="0 0 60 62" version="1.1" xmlns="http://www.w3.org/2000/svg" xmlns:xlink="http://www.w3.org/1999/xlink">
    <!-- Generator: Sketch 59.1 (86144) - https://sketch.com -->
    <title>home (1)</title>
    <desc>Created with Sketch.</desc>
    <g id="Dizajn" stroke="none" stroke-width="1" fill="none" fill-rule="evenodd">
        <g id="3.-Euromedik---Usluge" transform="translate(-1508.000000, -3660.000000)" fill="#E12630" fill-rule="nonzero">
            <g id="Group" transform="translate(0.000000, 906.000000)">
                <g id="item" transform="translate(1358.000000, 2665.000000)">
                    <g id="content" transform="translate(25.000000, 60.000000)">
                        <g id="icon" transform="translate(95.000000, 0.000000)">
                            <g id="home-(1)" transform="translate(30.000000, 29.000000)">
                                <path d="M29.982223,36.8263473 C29.982223,34.6907747 28.250842,32.9593938 26.1152695,32.9593938 L23.5371444,32.9593938 C21.4015719,32.9593938 19.6701909,34.6907747 19.6701909,36.8263473 L19.6701909,46.0324663 C16.9128929,46.7444798 15.2549588,49.556512 15.9669723,52.3138098 C16.678518,55.0711078 19.491018,56.7290419 22.2483159,56.0170285 C25.005146,55.305015 26.6630801,52.4929828 25.9515344,49.7356849 C25.4823166,47.9196295 24.0643713,46.5012163 22.2483159,46.0324663 L22.2483159,36.8263473 C22.2483159,36.1143339 22.825131,35.5375187 23.5371444,35.5375187 L26.1152695,35.5375187 C26.8272829,35.5375187 27.4040981,36.1143339 27.4040981,36.8263473 L27.4040981,49.7165044 C27.4040981,51.8520771 29.135479,53.5834581 31.2710516,53.5834581 L35.1380053,53.5834581 C37.2740456,53.5834581 39.0054266,51.8520771 39.0054266,49.7165044 L39.0054266,40.564652 C42.0041168,39.9476048 44.1574663,37.3100673 44.1612089,34.2482223 L44.1612089,26.5143151 C44.1612089,25.8023017 43.5839259,25.2254865 42.8723802,25.2254865 L39.0054266,25.2254865 L39.0054266,27.8031437 L41.5830838,27.8031437 L41.5830838,34.2482223 C41.5830838,36.383795 39.8517029,38.1151759 37.7161303,38.1151759 C35.5805576,38.1151759 33.8491766,36.383795 33.8491766,34.2482223 L33.8491766,27.8031437 L36.4273017,27.8031437 L36.4273017,25.2254865 L32.560348,25.2254865 C31.8483346,25.2254865 31.2710516,25.8023017 31.2710516,26.5143151 L31.2710516,34.2482223 C31.275262,37.3095995 33.4286115,39.9476048 36.4273017,40.564652 L36.4273017,49.7165044 C36.4273017,50.4280502 35.8500187,51.0053331 35.1384731,51.0053331 L31.2710516,51.0053331 C30.559506,51.0053331 29.982223,50.4280502 29.982223,49.7165044 L29.982223,36.8263473 Z M23.5371444,51.0053331 C23.5371444,52.42936 22.3830465,53.5834581 20.9590194,53.5834581 C19.5354604,53.5834581 18.3808945,52.42936 18.3808945,51.0053331 C18.3808945,49.5817739 19.5354604,48.4272081 20.9590194,48.4272081 C22.3830465,48.4272081 23.5371444,49.5817739 23.5371444,51.0053331 Z" id="Shape"></path>
                                <path d="M59.4863399,23.5146893 L51.895116,17.3699475 L51.895116,7.17907928 C51.895116,6.46753365 51.3183008,5.89025078 50.6062874,5.89025078 L42.8723802,5.89025078 C42.1603667,5.89025078 41.5830838,6.46753365 41.5830838,7.17907928 L41.5830838,9.02226802 L30.7929454,0.28677018 C30.319985,-0.0954341317 29.6444611,-0.0954341317 29.1715007,0.28677018 L0.478106347,23.5146893 C-0.0753180838,23.9623878 -0.160928144,24.7740456 0.287238084,25.3274701 C0.287705868,25.3284057 0.288173653,25.3288735 0.288641437,25.3298091 L3.53714443,29.3254117 C3.98531066,29.8769648 4.79556515,29.9611714 5.34805389,29.5139408 L8.06933006,27.311003 L8.06933006,58.7392402 L4.20190874,58.7392402 L4.20190874,61.3173653 L55.7620696,61.3173653 L55.7620696,58.7392402 L51.895116,58.7392402 L51.895116,27.311003 L54.6163922,29.5139408 C55.168881,29.9611714 55.9786677,29.8769648 56.4273017,29.3254117 L59.6758047,25.3298091 C60.1244386,24.7773204 60.0406999,23.9651946 59.488211,23.5165606 C59.4877432,23.5160928 59.4868077,23.5151571 59.4863399,23.5146893 L59.4863399,23.5146893 Z M44.1612089,8.46837581 L49.316991,8.46837581 L49.316991,15.2820921 L44.1612089,11.1091879 L44.1612089,8.46837581 Z M49.3174588,58.7392402 L10.6469873,58.7392402 L10.6469873,25.2254865 L29.982223,9.57148204 L49.3174588,25.2254865 L49.3174588,58.7392402 Z M55.2390532,26.7014408 L30.7929454,6.91102168 C30.319985,6.52834958 29.6444611,6.52834958 29.1715007,6.91102168 L4.72539293,26.7014408 L3.10394838,24.7094873 L29.982223,2.94723054 L56.8604977,24.7094873 L55.2390532,26.7014408 Z" id="Shape"></path>
                            </g>
                        </g>
                    </g>
                </g>
            </g>
        </g>
    </g>
</svg>