<?xml version="1.0" encoding="UTF-8"?>
<svg width="64px" height="52px" viewBox="0 0 64 52" version="1.1" xmlns="http://www.w3.org/2000/svg" xmlns:xlink="http://www.w3.org/1999/xlink">
    <!-- Generator: Sketch 59.1 (86144) - https://sketch.com -->
    <title>ct-scanners</title>
    <desc>Created with Sketch.</desc>
    <g id="Dizajn" stroke="none" stroke-width="1" fill="none" fill-rule="evenodd">
        <g id="3.-Euromedik---Usluge" transform="translate(-348.000000, -1533.000000)" fill="#E12630" fill-rule="nonzero">
            <g id="Group" transform="translate(0.000000, 906.000000)">
                <g id="item" transform="translate(200.000000, 533.000000)">
                    <g id="content" transform="translate(25.000000, 60.000000)">
                        <g id="icon" transform="translate(95.000000, 0.000000)">
                            <g id="ct-scanners" transform="translate(28.000000, 34.000000)">
                                <path d="M63.7837838,42.0177297 L63.7837838,32.9366486 C63.7837838,31.0287568 62.2322162,29.4771892 60.3243243,29.4771892 L53.3336216,29.4771892 L53.3336216,11.5312432 C53.3336216,5.33189189 48.2897297,0.288 42.0903784,0.288 L34.8108108,0.288 C28.6114595,0.288 23.5675676,5.33189189 23.5675676,11.5312432 L23.5675676,29.4771892 L3.45945946,29.4771892 C1.55156757,29.4771892 0,31.0287568 0,32.9366486 L0,42.0177297 C0,43.0555676 0.468756757,43.9775135 1.19524324,44.6123243 C0.468756757,45.2471351 0,46.1690811 0,47.2069189 L0,47.9273514 C0,49.8352432 1.55156757,51.3868108 3.45945946,51.3868108 L35.2795676,51.3868108 L41.6216216,51.3868108 L60.3243243,51.3868108 C62.2322162,51.3868108 63.7837838,49.8352432 63.7837838,47.9273514 L63.7837838,47.2069189 C63.7837838,46.1690811 63.315027,45.2471351 62.5885405,44.6123243 C63.315027,43.9783784 63.7837838,43.0564324 63.7837838,42.0177297 Z M51.6038919,32.3104865 C51.2579459,32.0908108 51.027027,31.7076757 51.027027,31.2683243 L51.027027,13.0854054 C51.027027,12.6469189 51.2579459,12.2629189 51.6038919,12.0432432 L51.6038919,32.3104865 Z M34.8108108,2.01772973 L42.0903784,2.01772973 C46.8938378,2.01772973 50.8661622,5.59913514 51.5044324,10.2296216 C50.2374054,10.5677838 49.2972973,11.7137297 49.2972973,13.0854054 L49.2972973,31.2683243 C49.2972973,32.6763243 50.2858378,33.8534054 51.6038919,34.1543784 L51.6038919,34.2339459 C51.6038919,38.0263784 49.3621622,41.4183784 45.9459459,42.9301622 L45.9459459,11.2700541 C45.9459459,8.88562162 44.0060541,6.94572973 41.6216216,6.94572973 L35.2795676,6.94572973 C32.8951351,6.94572973 30.9552432,8.88562162 30.9552432,11.2700541 L30.9552432,42.9301622 C27.539027,41.4183784 25.2972973,38.0281081 25.2972973,34.2339459 L25.2972973,34.1431351 C26.5963243,33.8283243 27.5675676,32.6633514 27.5675676,31.2683243 L27.5675676,13.0854054 C27.5675676,11.7267027 26.6438919,10.5902703 25.395027,10.2408649 C26.028973,5.60518919 30.0038919,2.01772973 34.8108108,2.01772973 Z M25.8378378,13.0854054 L25.8378378,31.2683243 C25.8378378,31.6921081 25.6233514,32.0665946 25.2972973,32.2888649 L25.2972973,12.064 C25.6233514,12.2871351 25.8378378,12.6616216 25.8378378,13.0854054 Z M1.72972973,42.0177297 L1.72972973,32.9366486 C1.72972973,31.9827027 2.50551351,31.2069189 3.45945946,31.2069189 L23.5675676,31.2069189 L23.5675676,34.2339459 C23.5675676,38.1595676 25.5965405,41.7219459 28.8112432,43.7474595 L9.2972973,43.7474595 L9.2972973,41.8732973 C9.2972973,41.3958919 8.9107027,41.0084324 8.43243243,41.0084324 C7.95416216,41.0084324 7.56756757,41.3958919 7.56756757,41.8732973 L7.56756757,43.7474595 L3.45945946,43.7474595 C2.50551351,43.7474595 1.72972973,42.9725405 1.72972973,42.0177297 Z M1.72972973,47.9282162 L1.72972973,47.2077838 C1.72972973,46.2538378 2.50551351,45.4780541 3.45945946,45.4780541 L7.56756757,45.4780541 L7.56756757,46.9656216 C7.56756757,47.443027 7.95416216,47.8304865 8.43243243,47.8304865 C8.9107027,47.8304865 9.2972973,47.443027 9.2972973,46.9656216 L9.2972973,45.4780541 L30.9552432,45.4780541 L30.9552432,47.0633514 C30.9552432,48.0406486 31.2934054,48.9331892 31.8425946,49.6579459 L3.45945946,49.6579459 C2.50551351,49.6579459 1.72972973,48.8821622 1.72972973,47.9282162 Z M35.2795676,49.6579459 C33.8490811,49.6579459 32.684973,48.4938378 32.684973,47.0633514 L32.684973,11.2700541 C32.684973,9.83956757 33.8490811,8.67545946 35.2795676,8.67545946 L41.6216216,8.67545946 C43.0521081,8.67545946 44.2162162,9.83956757 44.2162162,11.2700541 L44.2162162,47.0633514 C44.2162162,48.4938378 43.0521081,49.6579459 41.6216216,49.6579459 L35.2795676,49.6579459 Z M62.0540541,47.2069189 L62.0540541,47.9273514 C62.0540541,48.8812973 61.2782703,49.6570811 60.3243243,49.6570811 L45.0585946,49.6570811 C45.6077838,48.9323243 45.9459459,48.0397838 45.9459459,47.0624865 L45.9459459,45.4771892 L55.1351351,45.4771892 L55.1351351,46.9647568 C55.1351351,47.4421622 55.5217297,47.8296216 56,47.8296216 C56.4782703,47.8296216 56.8648649,47.4421622 56.8648649,46.9647568 L56.8648649,45.4771892 L60.3243243,45.4771892 C61.2782703,45.4771892 62.0540541,46.252973 62.0540541,47.2069189 Z M56.8648649,43.7474595 L56.8648649,41.8732973 C56.8648649,41.3958919 56.4782703,41.0084324 56,41.0084324 C55.5217297,41.0084324 55.1351351,41.3958919 55.1351351,41.8732973 L55.1351351,43.7474595 L48.0890811,43.7474595 C51.3037838,41.7210811 53.3336216,38.1578378 53.3336216,34.2339459 L53.3336216,31.2069189 L60.3243243,31.2069189 C61.2782703,31.2069189 62.0540541,31.9827027 62.0540541,32.9366486 L62.0540541,42.0177297 C62.0540541,42.9716757 61.2782703,43.7474595 60.3243243,43.7474595 L56.8648649,43.7474595 Z M1.72972973,27.4231351 C1.72972973,26.7061622 2.31091892,26.1258378 3.02702703,26.1258378 L10.7027027,26.1258378 C11.4188108,26.1258378 12,26.7061622 12,27.4231351 C12,28.1401081 11.4188108,28.7204324 10.7027027,28.7204324 L3.02702703,28.7204324 C2.31091892,28.7204324 1.72972973,28.1401081 1.72972973,27.4231351 Z M41.0992432,13.260973 C41.0992432,13.7383784 40.7126486,14.1258378 40.2343784,14.1258378 L36.6668108,14.1258378 C36.1885405,14.1258378 35.8019459,13.7383784 35.8019459,13.260973 C35.8019459,12.7835676 36.1885405,12.3961081 36.6668108,12.3961081 L40.2343784,12.3961081 C40.7117838,12.3961081 41.0992432,12.7835676 41.0992432,13.260973 Z M41.0992432,44.6123243 C41.0992432,45.0897297 40.7126486,45.4771892 40.2343784,45.4771892 L36.6668108,45.4771892 C36.1885405,45.4771892 35.8019459,45.0897297 35.8019459,44.6123243 C35.8019459,44.1349189 36.1885405,43.7474595 36.6668108,43.7474595 L40.2343784,43.7474595 C40.7117838,43.7474595 41.0992432,44.1349189 41.0992432,44.6123243 Z" id="Shape"></path>
                            </g>
                        </g>
                    </g>
                </g>
            </g>
        </g>
    </g>
</svg>