<?xml version="1.0" encoding="UTF-8"?>
<svg width="62px" height="62px" viewBox="0 0 62 62" version="1.1" xmlns="http://www.w3.org/2000/svg" xmlns:xlink="http://www.w3.org/1999/xlink">
    <!-- Generator: Sketch 59.1 (86144) - https://sketch.com -->
    <title>ultrasound</title>
    <desc>Created with Sketch.</desc>
    <g id="Dizajn" stroke="none" stroke-width="1" fill="none" fill-rule="evenodd">
        <g id="3.-Euromedik---Usluge" transform="translate(-735.000000, -995.000000)" fill="#E12630" fill-rule="nonzero">
            <g id="Group" transform="translate(0.000000, 906.000000)">
                <g id="item" transform="translate(586.000000, 0.000000)">
                    <g id="content" transform="translate(25.000000, 60.000000)">
                        <g id="icon" transform="translate(95.000000, 0.000000)">
                            <g id="ultrasound" transform="translate(29.000000, 29.000000)">
                                <path d="M57.5195312,53.0390625 L44.8046875,53.0390625 C43.1019883,53.0390625 41.7167969,54.4242539 41.7167969,56.1269531 L41.7167969,56.3085937 L4.55106641,56.3085937 C3.3770625,56.3085937 2.421875,55.3534062 2.421875,54.1794023 C2.421875,53.0052773 3.3770625,52.0500898 4.55106641,52.0500898 L13.8450117,52.0500898 C14.5136914,52.0500898 15.0559492,51.507832 15.0559492,50.8391523 C15.0559492,50.1704727 14.5136914,49.6282148 13.8450117,49.6282148 L4.55106641,49.6282148 C2.04151953,49.6282148 0,51.6698555 0,54.1794023 C0,56.6889492 2.04151953,58.7304687 4.55106641,58.7304687 L41.7167969,58.7304687 L41.7167969,58.9121094 C41.7167969,60.6148086 43.1019883,62 44.8046875,62 L57.5195312,62 C59.9900859,62 62,59.9900859 62,57.5195312 C62,55.0489766 59.9900859,53.0390625 57.5195312,53.0390625 Z M54.25,59.578125 L44.8046875,59.578125 C44.4374102,59.578125 44.1386719,59.2793867 44.1386719,58.9121094 L44.1386719,56.1269531 C44.1386719,55.7596758 44.4374102,55.4609375 44.8046875,55.4609375 L54.25,55.4609375 L54.25,59.578125 Z M57.5195312,59.578125 L56.671875,59.578125 L56.671875,55.4609375 L57.5195312,55.4609375 C58.6546641,55.4609375 59.578125,56.3843984 59.578125,57.5195312 C59.578125,58.6546641 58.6546641,59.578125 57.5195312,59.578125 Z" id="Shape"></path>
                                <path d="M19.9489844,49.9826562 C19.72375,49.7574219 19.4113281,49.6278516 19.0928516,49.6278516 C18.7731641,49.6278516 18.4619531,49.7573008 18.2367188,49.9826562 C18.0102734,50.2078906 17.8819141,50.5203125 17.8819141,50.8387891 C17.8819141,51.1572656 18.0102734,51.4696875 18.2367188,51.6948008 C18.4619531,51.9212461 18.774375,52.0497266 19.0928516,52.0497266 C19.4113281,52.0497266 19.7225391,51.9212461 19.9489844,51.6948008 C20.1740977,51.4696875 20.3037891,51.1572656 20.3037891,50.8387891 C20.3037891,50.5203125 20.1742187,50.2078906 19.9489844,49.9826562 Z" id="Path"></path>
                                <path d="M55.953668,20.0930859 C55.7285547,19.8677305 55.4161328,19.7382812 55.0976562,19.7382812 C54.7791797,19.7382812 54.4667578,19.8677305 54.2415234,20.0930859 C54.0162891,20.3184414 53.8867188,20.6307422 53.8867188,20.9492188 C53.8867188,21.2676953 54.016168,21.5801172 54.2415234,21.8052305 C54.4667578,22.0304648 54.7791797,22.1601562 55.0976562,22.1601562 C55.4161328,22.1601562 55.7285547,22.0305859 55.953668,21.8052305 C56.1790234,21.5801172 56.3085938,21.2676953 56.3085938,20.9492188 C56.3085938,20.6307422 56.1790234,20.3183203 55.953668,20.0930859 Z" id="Path"></path>
                                <path d="M55.0976562,16.7109375 C55.7663359,16.7109375 56.3085938,16.1686797 56.3085938,15.5 L56.3085938,6.0546875 C56.3085938,2.71613281 53.5924609,0 50.2539062,0 L11.7460938,0 C8.40753906,0 5.69140625,2.71613281 5.69140625,6.0546875 L5.69140625,36.8125 C5.69140625,40.1510547 8.40753906,42.8671875 11.7460938,42.8671875 L24.9453125,42.8671875 L24.9453125,46.4515625 C23.0591563,47.0187656 21.6808672,48.7706289 21.6808672,50.8391523 L21.6808672,52.3125 C21.6808672,52.9811797 22.223125,53.5234375 22.8918047,53.5234375 L39.1081953,53.5234375 C39.776875,53.5234375 40.3191328,52.9811797 40.3191328,52.3125 L40.3191328,50.8391523 C40.3191328,48.7706289 38.9408437,47.0187656 37.0546875,46.4515625 L37.0546875,42.8671875 L50.2539062,42.8671875 C53.5924609,42.8671875 56.3085938,40.1510547 56.3085938,36.8125 L56.3085938,25.8737383 C56.3085938,25.2050586 55.7663359,24.6628008 55.0976562,24.6628008 C54.4289766,24.6628008 53.8867188,25.2050586 53.8867188,25.8737383 L53.8867188,36.8125 C53.8867188,38.8156328 52.2570391,40.4453125 50.2539062,40.4453125 L11.7460938,40.4453125 C9.74296094,40.4453125 8.11328125,38.8156328 8.11328125,36.8125 L8.11328125,6.0546875 C8.11328125,4.05155469 9.74296094,2.421875 11.7460938,2.421875 L50.2539062,2.421875 C52.2570391,2.421875 53.8867188,4.05155469 53.8867188,6.0546875 L53.8867188,15.5 C53.8867188,16.1686797 54.4289766,16.7109375 55.0976562,16.7109375 Z M27.3671875,42.8671875 L34.6328125,42.8671875 L34.6328125,46.2578125 L27.3671875,46.2578125 L27.3671875,42.8671875 Z M35.737793,48.6796875 C36.9285078,48.6796875 37.8972578,49.6484375 37.8972578,50.8391523 L37.8972578,51.1015625 L24.1027422,51.1015625 L24.1027422,50.8391523 C24.1027422,49.6484375 25.0714922,48.6796875 26.262207,48.6796875 L35.737793,48.6796875 Z" id="Shape"></path>
                                <path d="M49.0429688,4.84375 L12.9570312,4.84375 C11.6216094,4.84375 10.5351562,5.93020313 10.5351562,7.265625 L10.5351562,35.6015625 C10.5351562,36.9369844 11.6216094,38.0234375 12.9570312,38.0234375 L49.0429688,38.0234375 C50.3783906,38.0234375 51.4648438,36.9369844 51.4648438,35.6015625 L51.4648438,7.265625 C51.4648438,5.93020313 50.3783906,4.84375 49.0429688,4.84375 Z M49.0429687,35.6015625 L12.9570312,35.6015625 L12.9570312,7.265625 L49.0429687,7.265625 L49.044543,35.6015625 C49.044543,35.6015625 49.0440586,35.6015625 49.0429687,35.6015625 Z" id="Shape"></path>
                                <path d="M46.3535977,23.9224336 L37.0108516,12.0510078 C36.6451484,11.5863711 35.997418,11.4536523 35.4782891,11.737375 C32.7160195,13.2477773 29.2841016,13.2477773 26.521832,11.737375 C26.002582,11.4534102 25.3548516,11.5863711 24.9892695,12.0510078 L15.6466445,23.9224336 C15.2672578,24.4043867 15.3083086,25.0938945 15.7419453,25.5276523 C19.9486211,29.734207 25.4743711,31.8374844 31.0001211,31.8374844 C36.5258711,31.8374844 42.0516211,29.734207 46.2582969,25.5276523 C46.6919336,25.0938945 46.7329844,24.4045078 46.3535977,23.9224336 Z M18.2330859,24.5518789 L26.2881211,14.3166719 C29.2710234,15.6132227 32.7289766,15.6132227 35.7118789,14.3166719 L43.7669141,24.5518789 C36.5194531,31.0379023 25.4805469,31.0379023 18.2330859,24.5518789 Z" id="Shape"></path>
                                <path d="M20.8684492,9.6875 L16.5898438,9.6875 C15.9211641,9.6875 15.3789062,10.2297578 15.3789062,10.8984375 C15.3789062,11.5671172 15.9211641,12.109375 16.5898438,12.109375 L20.8684492,12.109375 C21.5371289,12.109375 22.0793867,11.5671172 22.0793867,10.8984375 C22.0793867,10.2297578 21.5371289,9.6875 20.8684492,9.6875 Z" id="Path"></path>
                                <path d="M17.4458555,14.6438672 C17.2207422,14.4186328 16.9083203,14.2890625 16.5898438,14.2890625 C16.2713672,14.2890625 15.9589453,14.4185117 15.7337109,14.6438672 C15.5084766,14.8692227 15.3789062,15.1815234 15.3789062,15.5 C15.3789062,15.8184766 15.5083555,16.1308984 15.7337109,16.3560117 C15.9589453,16.5813672 16.2713672,16.7109375 16.5898438,16.7109375 C16.9083203,16.7109375 17.2207422,16.5813672 17.4458555,16.3560117 C17.6712109,16.1308984 17.8007812,15.8184766 17.8007812,15.5 C17.8007812,15.1815234 17.6712109,14.8691016 17.4458555,14.6438672 Z" id="Path"></path>
                            </g>
                        </g>
                    </g>
                </g>
            </g>
        </g>
    </g>
</svg>