<?xml version="1.0" encoding="UTF-8"?>
<svg width="51px" height="64px" viewBox="0 0 51 64" version="1.1" xmlns="http://www.w3.org/2000/svg" xmlns:xlink="http://www.w3.org/1999/xlink">
    <!-- Generator: Sketch 59.1 (86144) - https://sketch.com -->
    <title>kidney</title>
    <desc>Created with Sketch.</desc>
    <g id="Dizajn" stroke="none" stroke-width="1" fill="none" fill-rule="evenodd">
        <g id="3.-Euromedik---Usluge" transform="translate(-1513.000000, -1527.000000)" fill="#E12630" fill-rule="nonzero">
            <g id="Group" transform="translate(0.000000, 906.000000)">
                <g id="item" transform="translate(1358.000000, 533.000000)">
                    <g id="content" transform="translate(25.000000, 60.000000)">
                        <g id="icon" transform="translate(95.000000, 0.000000)">
                            <g id="kidney" transform="translate(35.000000, 28.000000)">
                                <path d="M35.0635625,43.60075 C35.0168125,43.60075 34.969,43.5975625 34.9211875,43.5911875 C34.3389375,43.513625 33.9309375,42.978125 34.0085,42.3969375 C36.9293125,20.5785 20.5094375,14.048375 19.80925,13.7816875 C19.2620625,13.572375 18.9858125,12.9593125 19.1940625,12.4110625 C19.4023125,11.8628125 20.01325,11.587625 20.5625625,11.79375 C20.7495625,11.8649375 39.2646875,19.1473125 36.1154375,42.6785 C36.04425,43.2129375 35.5884375,43.60075 35.0635625,43.60075 L35.0635625,43.60075 Z" id="Path"></path>
                                <path d="M31.0430625,59.540375 C28.9839375,59.540375 27.4645625,56.9075 26.5508125,54.6985625 C25.9536875,53.2556875 25.3395625,51.61625 24.7254375,49.8280625 C24.53525,49.2734375 24.830625,48.668875 25.38525,48.477625 C25.9388125,48.286375 26.5444375,48.583875 26.734625,49.1374375 C27.333875,50.88525 27.9320625,52.4821875 28.51325,53.88575 C29.461,56.1775625 30.5224375,57.4143125 31.0409375,57.4143125 C31.5063125,57.4143125 32.4455625,56.986125 33.34125,56.1690625 C33.793875,55.7610625 44.1415625,46.2963125 44.6239375,33.99575 C44.6473125,33.40925 45.145625,32.9449375 45.727875,32.97575 C46.314375,32.9980625 46.77125,33.492125 46.747875,34.078625 C46.2410625,47.0421875 35.9496875,56.680125 34.77775,57.73625 C33.5399375,58.86675 32.1438125,59.540375 31.0430625,59.540375 L31.0430625,59.540375 Z" id="Path"></path>
                                <path d="M3.1120625,50.7163125 C2.9845625,50.7163125 0,50.6568125 0,45.4781875 C0,45.13075 0.17,44.805625 0.45475,44.6069375 C0.5238125,44.559125 7.37375,39.7066875 7.4375,34.1115625 C6.364375,27.061875 7.2685625,22.60575 10.1224375,20.865375 C10.865125,20.41275 11.7778125,20.427625 12.5045625,20.9025625 C13.236625,21.38175 13.619125,22.2179375 13.5011875,23.0870625 C13.381125,23.972125 13.266375,25.3034375 13.3991875,26.622 C17.6375,23.222 19.798625,23.695875 20.8855625,24.7296875 C21.16075,24.95175 21.8205625,25.6030625 21.8354375,26.751625 C21.85775,28.5504375 20.3096875,30.51925 17.1051875,32.769625 C16.9745,32.861 16.976625,32.999125 16.983,33.054375 C16.99575,33.160625 17.048875,33.2318125 17.1413125,33.266875 C17.584375,33.419875 19.3513125,32.9555625 20.5200625,32.6474375 C21.5103125,32.3860625 22.5335,32.1161875 23.5078125,31.9483125 C24.643625,31.75175 25.75925,32.3159375 26.282,33.3529375 C26.7973125,34.376125 26.598625,35.544875 25.77625,36.329 C25.4649375,36.6254375 23.3675625,38.065125 21.8014375,38.711125 C25.8091875,41.4066875 27.28925,43.45625 26.449875,45.132875 C26.4296875,45.1721875 26.407375,45.2104375 26.384,45.2465625 C26.288375,45.39 25.7465,46.1156875 24.4885,46.2750625 C22.3964375,46.5375 19.569125,45.081875 16.071375,41.9464375 C15.603875,41.52675 14.9780625,41.3429375 14.358625,41.4406875 C13.75725,41.5363125 13.26,41.8741875 12.9593125,42.3926875 C12.718125,42.81025 12.495,43.275625 12.2984375,43.777125 C10.0555,49.4901875 3.56575,50.653625 3.2895,50.700375 C3.2310625,50.7120625 3.1715625,50.7163125 3.1120625,50.7163125 L3.1120625,50.7163125 Z M2.13775,46.0051875 C2.2301875,47.8295 2.7965,48.4489375 3.0993125,48.5721875 C4.0385625,48.3639375 8.697625,47.1335625 10.3200625,43.0025625 C10.5559375,42.4011875 10.8258125,41.8380625 11.120125,41.3280625 C11.7395625,40.2613125 12.7978125,39.53775 14.025,39.34225 C15.27875,39.1456875 16.5420625,39.5165 17.48875,40.364375 C21.7759375,44.2095625 23.9221875,44.3880625 24.53525,44.0926875 C24.4130625,43.670875 23.4546875,42.2949375 19.9335625,40.0265 C19.3449375,39.6471875 19.0474375,38.957625 19.178125,38.269125 C19.3088125,37.5785 19.839,37.043 20.5285625,36.9038125 C21.4359375,36.722125 23.9583125,35.0975625 24.3195625,34.782 C24.486375,34.622625 24.4470625,34.435625 24.3833125,34.3091875 C24.3450625,34.2326875 24.1963125,33.98725 23.8690625,34.0425 C22.9850625,34.1955 22.0065,34.4536875 21.060875,34.7023125 C18.81475,35.2951875 17.38675,35.6394375 16.3784375,35.251625 C15.5581875,34.9360625 14.98125,34.1944375 14.872875,33.3146875 C14.762375,32.421125 15.149125,31.545625 15.88225,31.031375 C19.3704375,28.58125 19.692375,27.193625 19.7083125,26.826 C19.72,26.547625 19.59675,26.42225 19.5585,26.390375 C19.5000625,26.3510625 19.484125,26.335125 19.43525,26.2851875 C18.8476875,25.69975 16.9989375,26.4998125 14.834625,28.2805625 C14.212,28.7926875 13.359875,28.9201875 12.611875,28.6120625 C11.8734375,28.307125 11.3645,27.627125 11.2848125,26.8355625 C11.1318125,25.310875 11.260375,23.8010625 11.3953125,22.8023125 C11.3985,22.7789375 11.4059375,22.7236875 11.341125,22.6811875 C11.2848125,22.644 11.24975,22.667375 11.2274375,22.680125 C10.066125,23.3888125 8.3045,25.7836875 9.5486875,33.8725 C9.55825,33.925625 9.5625,33.9798125 9.5625,34.034 C9.5625,39.8894375 3.8494375,44.69725 2.13775,46.0051875 L2.13775,46.0051875 Z" id="Shape"></path>
                                <path d="M31.05475,63.7914375 C30.5691875,63.7914375 30.0719375,63.7415 29.565125,63.6278125 C26.7016875,62.98925 24.3663125,60.530625 22.624875,56.323125 C21.1660625,52.7966875 19.64775,48.2534375 18.3504375,43.530625 C18.2314375,43.097125 18.39825,42.6370625 18.765875,42.378875 C19.1345625,42.12175 19.624375,42.123875 19.9909375,42.383125 C22.675875,44.28925 24.0635,44.3030625 24.5341875,44.0884375 C24.4066875,43.66025 23.440875,42.2864375 19.9335625,40.0275625 C19.3449375,39.64825 19.0474375,38.9586875 19.178125,38.2701875 C19.3088125,37.5795625 19.839,37.0440625 20.5285625,36.904875 C21.4359375,36.7231875 23.9583125,35.098625 24.3195625,34.782 C24.486375,34.622625 24.4470625,34.435625 24.3833125,34.3091875 C24.3450625,34.2326875 24.1963125,33.98725 23.8690625,34.0425 C22.9850625,34.1955 22.0065,34.4536875 21.060875,34.7023125 C18.81475,35.2951875 17.38675,35.6394375 16.3784375,35.251625 C15.5581875,34.9360625 14.9823125,34.1944375 14.872875,33.31575 C14.762375,32.4221875 15.149125,31.5466875 15.88225,31.0324375 C19.3704375,28.5823125 19.692375,27.1946875 19.7083125,26.8270625 C19.72,26.5486875 19.59675,26.4233125 19.5585,26.3914375 C19.5000625,26.352125 19.484125,26.3361875 19.43525,26.28625 C18.8476875,25.7008125 16.9989375,26.500875 14.834625,28.281625 C14.212,28.79375 13.359875,28.92125 12.611875,28.613125 C11.8734375,28.3081875 11.3645,27.6281875 11.2848125,26.836625 C11.1615625,25.61475 11.19875,24.2579375 11.3953125,22.8044375 C11.3985,22.78 11.4059375,22.72475 11.341125,22.6833125 C11.285875,22.6471875 11.2486875,22.6684375 11.2274375,22.68225 C10.3030625,23.2464375 9.6506875,24.4831875 9.3404375,26.2596875 C9.26075,26.7165625 8.89525,27.06825 8.4351875,27.1309375 C7.97725,27.189375 7.5299375,26.9503125 7.3323125,26.530625 C6.1189375,23.95725 4.5825625,20.057875 4.154375,16.092625 C3.580625,10.78225 6.2528125,5.5621875 10.962875,2.7933125 C17.6768125,-1.153875 28.4760625,-2.8740625 41.7976875,11.3475 C48.205625,18.187875 51.29325,25.761375 50.9755625,33.857625 C50.381625,49.08325 38.1618125,60.403125 37.64225,60.8780625 C36.6041875,61.8258125 34.082875,63.7914375 31.05475,63.7914375 Z M21.1341875,45.5398125 C22.2275,49.234125 23.428125,52.7053125 24.5894375,55.5103125 C26.050375,59.041 27.88,61.074625 30.028375,61.5538125 C32.7281875,62.152 35.2505625,60.1831875 36.2110625,59.3076875 C36.3321875,59.1971875 48.2938125,48.120625 48.855875,33.7705 C49.1501875,26.2639375 46.254875,19.2068125 40.2506875,12.79675 C27.8885,-0.3984375 18.0869375,1.0678125 12.042375,4.621875 C8.0505625,6.9689375 5.7853125,11.379375 6.2698125,15.861 C6.5439375,18.3993125 7.320625,20.9344375 8.1515,23.058375 C8.6498125,22.09575 9.3085625,21.3615625 10.1235,20.865375 C10.8661875,20.414875 11.778875,20.4286875 12.505625,20.903625 C13.2376875,21.3828125 13.6201875,22.2200625 13.50225,23.088125 C13.3821875,23.9731875 13.2674375,25.306625 13.40025,26.6230625 C17.6385625,23.2230625 19.7996875,23.6969375 20.886625,24.73075 C21.1618125,24.9528125 21.821625,25.604125 21.8365,26.7526875 C21.8588125,28.5515 20.31075,30.5203125 17.10625,32.7706875 C16.9755625,32.8620625 16.9776875,33.0001875 16.9840625,33.0554375 C16.9968125,33.1616875 17.0499375,33.232875 17.142375,33.2679375 C17.588625,33.422 19.3534375,32.956625 20.521125,32.6485 C21.511375,32.387125 22.5345625,32.11725 23.508875,31.949375 C24.6446875,31.7528125 25.7603125,32.317 26.2830625,33.354 C26.798375,34.3771875 26.5996875,35.5459375 25.7773125,36.3300625 C25.4649375,36.6275625 23.3675625,38.0661875 21.8025,38.7121875 C25.8113125,41.40775 27.2903125,43.4573125 26.4509375,45.1339375 C26.4296875,45.175375 26.4063125,45.21575 26.3808125,45.254 C26.2936875,45.3825625 25.80175,46.036 24.684,46.2389375 C23.681,46.420625 22.4920625,46.1858125 21.1341875,45.5398125 L21.1341875,45.5398125 Z" id="Shape"></path>
                            </g>
                        </g>
                    </g>
                </g>
            </g>
        </g>
    </g>
</svg>