<?xml version="1.0" encoding="UTF-8"?>
<svg width="64px" height="64px" viewBox="0 0 64 64" version="1.1" xmlns="http://www.w3.org/2000/svg" xmlns:xlink="http://www.w3.org/1999/xlink">
    <!-- Generator: Sketch 59.1 (86144) - https://sketch.com -->
    <title>kidneys</title>
    <desc>Created with Sketch.</desc>
    <g id="Dizajn" stroke="none" stroke-width="1" fill="none" fill-rule="evenodd">
        <g id="3.-Euromedik---Usluge" transform="translate(-1120.000000, -1527.000000)" fill="#E12630" fill-rule="nonzero">
            <g id="Group" transform="translate(0.000000, 906.000000)">
                <g id="item" transform="translate(972.000000, 533.000000)">
                    <g id="content" transform="translate(25.000000, 60.000000)">
                        <g id="icon" transform="translate(95.000000, 0.000000)">
                            <g id="kidneys" transform="translate(28.000000, 28.000000)">
                                <path d="M53.6774194,0 C51.5055444,0 49.4349799,0.921874968 47.6849799,2.66532258 C45.9788307,4.36643148 45.1859879,6.81401213 45.4067541,9.34072581 C37.8694556,12.9349799 33.0322581,20.5221774 33.0322581,28.9032258 L33.0322581,35.0967742 L30.9677419,35.0967742 L30.9677419,28.9032258 C30.9677419,20.5221774 26.1305444,12.9349799 18.5922379,9.34072581 C18.813004,6.81401213 18.0201613,4.36643148 16.3140121,2.66532258 C14.5650201,0.921874968 12.4944556,0 10.3225806,0 C4.63054439,0 -2.84217094e-14,6.48235884 -2.84217094e-14,14.4516129 C-2.84217094e-14,22.420867 4.63054439,28.9032258 10.3225806,28.9032258 C12.4944556,28.9032258 14.5650201,27.9813508 16.3150201,26.2379032 C18.6290323,23.9309476 19.2782258,20.248992 17.9687499,16.859879 C17.8568548,16.5710685 17.7817541,16.251008 17.7147177,15.9279234 C22.0519154,18.7631048 24.7741935,23.6698588 24.7741935,28.9032258 L24.7741935,35.4682459 C22.8563508,36.0700605 21.2353831,37.3800403 20.3704637,39.1537298 C19.1915323,41.5670363 19.4072581,44.4203628 20.9339717,46.6003025 L25.1759072,52.6597782 C26.9390121,55.1451613 27.8699597,57.8437499 27.8699597,60.4647177 L27.8699597,64 L36.1280243,64 L36.1280243,60.4647177 C36.1280243,57.8437499 37.0589717,55.1451613 38.8487903,52.6234879 L42.9470766,46.7696573 C43.732863,45.6476814 44.2157258,44.4148186 44.3437499,43.2081653 C44.5655241,41.1345766 43.8976814,39.0614919 42.5146169,37.5226814 C41.6214717,36.5297379 40.4788307,35.8140121 39.2258065,35.4269154 L39.2258065,28.9032258 C39.2258065,23.6698588 41.9480846,18.7631048 46.2862903,15.9269154 C46.2182459,16.25 46.1441533,16.5695564 46.0327621,16.858871 C44.7217742,20.248992 45.3709677,23.9299395 47.6859879,26.2368952 C49.4349799,27.9813508 51.5055444,28.9032258 53.6774194,28.9032258 C59.3694556,28.9032258 64,22.420867 64,14.4516129 C64,6.48235884 59.3694556,0 53.6774194,0 L53.6774194,0 Z M14.8573588,24.7762097 C13.5030243,26.125504 11.9349799,26.8387097 10.3225806,26.8387097 C5.76915329,26.8387097 2.06451613,21.2822581 2.06451613,14.4516129 C2.06451613,7.62096774 5.76915329,2.06451613 10.3225806,2.06451613 C11.9349799,2.06451613 13.5030243,2.77772181 14.8573588,4.12701613 C16.5927419,5.85685484 17.0579637,8.6728831 16.0423387,11.2998992 C15.6769154,12.2454637 15.483871,13.3356854 15.483871,14.4516129 C15.483871,15.5675404 15.6769154,16.6577621 16.0423387,17.6033266 C17.0569556,20.2303427 16.5917339,23.046371 14.8573588,24.7762097 Z M17.6310484,13.4793347 C17.6980846,12.9712702 17.7993951,12.4808467 17.9672379,12.0433468 C18.046875,11.8377017 18.0962702,11.6285283 18.1617943,11.420867 C24.7227822,14.7580645 28.9032258,21.4894154 28.9032258,28.9032258 L28.9032258,35.0967742 L27.1214717,35.0967742 C27.0257057,35.0967742 26.9334677,35.1123992 26.8387097,35.1164315 L26.8387097,28.9032258 C26.8387097,22.5 23.2444556,16.5307459 17.6310484,13.4793347 Z M40.9788307,38.9017137 C41.9868952,40.0226814 42.4526209,41.4742943 42.2908266,42.9894154 C42.1985886,43.8503025 41.8407258,44.7484879 41.2550403,45.5856854 L37.1396169,51.4652218 C35.1275201,54.3019154 34.0645161,57.4143146 34.0645161,60.4647177 L34.0645161,61.9354839 L29.9354839,61.9354839 L29.9354839,60.4647177 C29.9354839,57.4143146 28.8724799,54.3019154 26.8417339,51.4395161 L22.626008,45.4173387 C21.5297379,43.8513105 21.3770161,41.7983871 22.2253025,40.0599799 C23.0841734,38.2988911 25.0065524,37.1612903 27.1214717,37.1612903 L37.0756049,37.1612903 C38.5609879,37.1612903 39.984375,37.796371 40.9788307,38.9017137 Z M37.1612903,28.9032258 L37.1612903,35.1008065 C37.1325605,35.1008065 37.1043347,35.0967742 37.0756049,35.0967742 L35.0967742,35.0967742 L35.0967742,28.9032258 C35.0967742,21.4894154 39.2772178,14.7580645 45.8382057,11.421875 C45.9037298,11.6295363 45.953125,11.8377017 46.0327621,12.0443548 C46.2006049,12.4808467 46.3019154,12.9712702 46.3689516,13.4803427 C40.7555444,16.5307459 37.1612903,22.5 37.1612903,28.9032258 L37.1612903,28.9032258 Z M53.6774194,26.8387097 C52.0650201,26.8387097 50.4969757,26.125504 49.1426412,24.7762097 C47.4072581,23.046371 46.9420363,20.2303427 47.9576613,17.6033266 C48.3230846,16.6577621 48.516129,15.5675404 48.516129,14.4516129 C48.516129,13.3356854 48.3230846,12.2454637 47.9576613,11.2998992 C46.9430444,8.6728831 47.4082661,5.85786297 49.1426412,4.12701613 C50.4969757,2.77772181 52.0650201,2.06451613 53.6774194,2.06451613 C58.2308467,2.06451613 61.9354839,7.62096774 61.9354839,14.4516129 C61.9354839,21.2822581 58.2308467,26.8387097 53.6774194,26.8387097 Z" id="Shape"></path>
                                <path d="M49.5483871,7.22580645 L49.5483871,9.29032258 C51.2268145,9.29032258 52.6451613,11.6542338 52.6451613,14.4516129 C52.6451613,17.248992 51.2268145,19.6129032 49.5483871,19.6129032 L49.5483871,21.6774194 C52.4430444,21.6774194 54.7096774,18.5030243 54.7096774,14.4516129 C54.7096774,10.4002015 52.4430444,7.22580645 49.5483871,7.22580645 Z" id="Path"></path>
                                <path d="M9.29032258,14.4516129 C9.29032258,18.5030243 11.5569556,21.6774194 14.4516129,21.6774194 L14.4516129,19.6129032 C12.7731855,19.6129032 11.3548387,17.248992 11.3548387,14.4516129 C11.3548387,11.6542338 12.7731855,9.29032258 14.4516129,9.29032258 L14.4516129,7.22580645 C11.5569556,7.22580645 9.29032258,10.4002015 9.29032258,14.4516129 Z" id="Path"></path>
                                <path d="M32,47.2837702 C30.7187499,44.0730846 28.3034274,41.3840725 25.0756049,39.7696573 L24.203125,39.3341734 L23.2792338,41.1809476 L24.1517137,41.6164315 C28.3563508,43.7192541 30.9677419,47.9450605 30.9677419,52.6451613 L33.0322581,52.6451613 C33.0322581,47.9450605 35.6436492,43.7192541 39.8482863,41.6174395 L40.7207662,41.1819556 L39.796875,39.3351814 L38.9243951,39.7706653 C35.6965726,41.3840725 33.2812501,44.0730846 32,47.2837702 L32,47.2837702 Z" id="Path"></path>
                            </g>
                        </g>
                    </g>
                </g>
            </g>
        </g>
    </g>
</svg>