<?xml version="1.0" encoding="UTF-8"?>
<svg width="44px" height="64px" viewBox="0 0 44 64" version="1.1" xmlns="http://www.w3.org/2000/svg" xmlns:xlink="http://www.w3.org/1999/xlink">
    <!-- Generator: Sketch 59.1 (86144) - https://sketch.com -->
    <title>veins</title>
    <desc>Created with Sketch.</desc>
    <g id="Dizajn" stroke="none" stroke-width="1" fill="none" fill-rule="evenodd">
        <g id="3.-Euromedik---Usluge" transform="translate(-1516.000000, -3126.000000)" fill="#E12630" fill-rule="nonzero">
            <g id="Group" transform="translate(0.000000, 906.000000)">
                <g id="item" transform="translate(1358.000000, 2132.000000)">
                    <g id="content" transform="translate(25.000000, 60.000000)">
                        <g id="icon" transform="translate(95.000000, 0.000000)">
                            <g id="veins" transform="translate(38.000000, 28.000000)">
                                <path d="M1.86968839,0 C0.836977722,0 0,0.836977722 0,1.86968839 L0,61.9490085 C0,62.9817192 0.836977722,63.8186969 1.86968839,63.8186969 C2.90239905,63.8186969 3.73937677,62.9817192 3.73937677,61.9490085 L3.73937677,1.86968839 C3.73937677,0.836977722 2.90239905,0 1.86968839,0 Z" id="Path"></path>
                                <path d="M26.5821973,38.5978665 L21.7633675,43.4166961 L21.7633675,34.6861279 L29.2260534,27.2234419 C29.5771069,26.8728754 29.7739354,26.397176 29.7739354,25.9015138 L29.7739354,13.8853577 C29.7739354,12.8531339 28.9368361,12.0156693 27.9041254,12.0156693 C26.8719016,12.0156693 26.034437,12.8531339 26.034437,13.8853577 L26.034437,25.1268591 L19.8936791,31.2681038 L13.7529215,25.1268591 L13.7529215,22.8311349 L21.0154921,17.3842068 C21.4863226,17.0307188 21.7633675,16.4766289 21.7633675,15.8884561 L21.7633675,5.87491141 C21.7633675,4.84268761 20.9263899,4.00522303 19.8936791,4.00522303 C18.8609685,4.00522303 18.0239907,4.84268761 18.0239907,5.87491141 L18.0239907,14.9536119 L13.7529215,18.156914 L13.7529215,13.8853577 C13.7529215,12.8531339 12.9154569,12.0156693 11.8832331,12.0156693 C10.8505223,12.0156693 10.0135447,12.8531339 10.0135447,13.8853577 L10.0135447,25.9015138 C10.0135447,26.397176 10.2102514,26.8728754 10.5608179,27.2234419 L18.0239907,34.6861279 L18.0239907,53.9385623 C18.0239907,54.9707861 18.8609685,55.8082507 19.8936791,55.8082507 C20.9263899,55.8082507 21.7633675,54.9707861 21.7633675,53.9385623 L21.7633675,48.7048956 L29.2265403,41.2417228 C29.9564005,40.5118626 29.9564005,39.3282135 29.2265403,38.5978665 C28.4961934,37.8675194 27.3120574,37.8675194 26.5821973,38.5978665 Z" id="Path"></path>
                                <path d="M39.6909526,1.27908112 C39.3647309,0.299442312 38.3062145,-0.229815864 37.3260888,0.0964058697 C36.34645,0.423114346 35.8171919,1.48211756 36.1434136,2.46175637 C39.9826044,13.9773814 41.1044175,26.4176257 39.3876151,38.4371902 C36.003187,62.1277001 36.055772,61.6836491 36.0684314,61.6855967 C35.9058074,62.834676 36.7997521,63.8186969 37.91767,63.8186969 C38.8598177,63.8186969 39.6373938,63.1204852 39.7664217,62.213881 C39.7785941,62.2153417 39.7084808,62.6345609 43.0899876,38.9664484 C44.8876151,26.3747787 43.7127301,13.3429533 39.6909526,1.27908112 L39.6909526,1.27908112 Z" id="Path"></path>
                            </g>
                        </g>
                    </g>
                </g>
            </g>
        </g>
    </g>
</svg>